<svg width="21" height="21" viewBox="0 0 21 21" fill="none" xmlns="http://www.w3.org/2000/svg">
<path id="Vector" d="M20.8126 18.535L20.5765 18.3267C19.9067 17.7299 19.3204 17.0454 18.8334 16.2919C18.3017 15.252 17.9829 14.1164 17.8959 12.9517V9.5211C17.9005 7.69167 17.2369 5.92352 16.0298 4.54886C14.8227 3.17421 13.1551 2.28767 11.3404 2.05583V1.15999C11.3404 0.914116 11.2427 0.678309 11.0688 0.504447C10.895 0.330585 10.6592 0.23291 10.4133 0.23291C10.1674 0.23291 9.93162 0.330585 9.75776 0.504447C9.58389 0.678309 9.48622 0.914116 9.48622 1.15999V2.06972C7.68779 2.31828 6.04037 3.21017 4.84909 4.58021C3.65781 5.95024 3.00339 7.70558 3.00705 9.5211V12.9517C2.92008 14.1164 2.60134 15.252 2.06955 16.2919C1.591 17.0436 1.01413 17.7279 0.354275 18.3267L0.118164 18.535V20.4933H20.8126V18.535Z" fill="#0F143F"/>
</svg>
