<svg width="14" height="15" viewBox="0 0 14 15" fill="none" xmlns="http://www.w3.org/2000/svg">
<path id="Vector" d="M13.125 1.80973L9.62194 1.80974V0.937603C9.62194 0.695827 9.42616 0.5 9.18444 0.5C8.94272 0.5 8.74694 0.695827 8.74694 0.937603V1.80953H5.24694V0.937603C5.24694 0.695827 5.05116 0.5 4.80944 0.5C4.56772 0.5 4.37194 0.695827 4.37194 0.937603V1.80953H0.875C0.391781 1.80953 0 2.2014 0 2.68473V13.6248C0 14.1081 0.391781 14.5 0.875 14.5H13.125C13.6082 14.5 14 14.1081 14 13.6248V2.68473C14 2.2016 13.6082 1.80973 13.125 1.80973ZM13.125 13.6248H0.875V2.68473H4.37194V3.12562C4.37194 3.36738 4.56772 3.56322 4.80944 3.56322C5.05116 3.56322 5.24694 3.36738 5.24694 3.12562V2.68495H8.74694V3.12583C8.74694 3.36761 8.94272 3.56344 9.18444 3.56344C9.42616 3.56344 9.62194 3.36761 9.62194 3.12583V2.68495H13.125V13.6248ZM10.0625 7.49856H10.9375C11.179 7.49856 11.375 7.30252 11.375 7.06096V6.18576C11.375 5.9442 11.179 5.74815 10.9375 5.74815H10.0625C9.821 5.74815 9.625 5.9442 9.625 6.18576V7.06096C9.625 7.30252 9.821 7.49856 10.0625 7.49856ZM10.0625 10.9992H10.9375C11.179 10.9992 11.375 10.8033 11.375 10.5616V9.68636C11.375 9.4448 11.179 9.24876 10.9375 9.24876H10.0625C9.821 9.24876 9.625 9.4448 9.625 9.68636V10.5616C9.625 10.8036 9.821 10.9992 10.0625 10.9992ZM7.4375 9.24876H6.5625C6.321 9.24876 6.125 9.4448 6.125 9.68636V10.5616C6.125 10.8033 6.321 10.9992 6.5625 10.9992H7.4375C7.679 10.9992 7.875 10.8033 7.875 10.5616V9.68636C7.875 9.44502 7.679 9.24876 7.4375 9.24876ZM7.4375 5.74815H6.5625C6.321 5.74815 6.125 5.9442 6.125 6.18576V7.06096C6.125 7.30252 6.321 7.49856 6.5625 7.49856H7.4375C7.679 7.49856 7.875 7.30252 7.875 7.06096V6.18576C7.875 5.94398 7.679 5.74815 7.4375 5.74815ZM3.9375 5.74815H3.0625C2.821 5.74815 2.625 5.9442 2.625 6.18576V7.06096C2.625 7.30252 2.821 7.49856 3.0625 7.49856H3.9375C4.179 7.49856 4.375 7.30252 4.375 7.06096V6.18576C4.375 5.94398 4.179 5.74815 3.9375 5.74815ZM3.9375 9.24876H3.0625C2.821 9.24876 2.625 9.4448 2.625 9.68636V10.5616C2.625 10.8033 2.821 10.9992 3.0625 10.9992H3.9375C4.179 10.9992 4.375 10.8033 4.375 10.5616V9.68636C4.375 9.44502 4.179 9.24876 3.9375 9.24876Z" fill="#655D5D"/>
</svg>
