<svg width="129" height="131" viewBox="0 0 129 131" fill="none" xmlns="http://www.w3.org/2000/svg">
<g id="&#240;&#159;&#166;&#134; illustration &#34;Quality Check&#34;">
<path id="Vector" d="M123.975 84.5414L110.758 85.9225L107.913 99.3877C107.913 99.3877 101.27 91.1014 98.8395 87.1585C96.837 83.9407 93.5915 80.854 88.3228 80.854H67.386C65.7766 80.854 64.1829 81.1717 62.6965 81.7889C61.2101 82.406 59.8601 83.3105 58.724 84.4505C57.5879 85.5905 56.6879 86.9435 56.0758 88.432C55.4637 89.9205 55.1514 91.5152 55.1568 93.1247V130.344H97.2306V110.933C97.2306 110.933 104.619 121.056 111.269 119.731C125.735 117.707 124.755 91.9162 123.975 84.5414Z" fill="#68E1FD"/>
<path id="Vector_2" d="M97.2316 131H55.1578C54.9747 131 54.799 130.927 54.6695 130.797C54.54 130.668 54.4673 130.492 54.4673 130.309V93.1243C54.4709 89.6989 55.8333 86.4149 58.2554 83.9927C60.6776 81.5706 63.9616 80.2082 67.387 80.2046H88.3238C92.9503 80.2046 96.6861 82.435 99.4275 86.8336C101.271 89.8029 105.642 95.4307 107.541 97.8475L110.055 85.784C110.086 85.6426 110.16 85.5145 110.268 85.4179C110.376 85.3212 110.511 85.2609 110.655 85.2454L123.879 83.8644C123.969 83.8548 124.06 83.8631 124.147 83.8888C124.235 83.9145 124.316 83.9572 124.386 84.0142C124.457 84.0713 124.515 84.1417 124.559 84.2215C124.602 84.3012 124.629 84.3887 124.639 84.4789C124.825 86.2536 125.674 95.5274 123.989 104.283C122.104 114.089 117.851 119.516 111.339 120.428C105.981 121.498 100.339 115.787 97.8945 112.915V130.323C97.8911 130.499 97.8206 130.667 97.6974 130.793C97.5741 130.919 97.4075 130.993 97.2316 131ZM55.8483 129.619H96.541V110.933C96.5412 110.787 96.5873 110.646 96.6729 110.528C96.7584 110.41 96.8791 110.322 97.0175 110.277C97.1552 110.233 97.3033 110.233 97.4408 110.278C97.5783 110.323 97.6983 110.409 97.784 110.526C97.86 110.629 104.993 120.276 111.139 119.054C125.453 117.051 123.769 90.0998 123.354 85.3007L111.325 86.5643L108.563 99.5393C108.535 99.667 108.472 99.7843 108.38 99.8773C108.289 99.9704 108.172 100.036 108.045 100.065C107.918 100.095 107.785 100.088 107.661 100.045C107.538 100.002 107.429 99.9247 107.348 99.8224C107.078 99.4841 100.65 91.4325 98.2259 87.5311C95.8022 83.6296 92.4186 81.5511 88.2962 81.5511H67.387C65.8691 81.552 64.3662 81.8522 62.9645 82.4346C61.5627 83.017 60.2895 83.87 59.2177 84.945C58.146 86.0199 57.2968 87.2956 56.7186 88.6991C56.1404 90.1027 55.8447 91.6064 55.8483 93.1243V129.619Z" fill="#093F68"/>
<path id="Vector_3" d="M73.8092 76.3374H82.8551V81.544C82.8551 82.5622 82.4506 83.5388 81.7306 84.2588C81.0106 84.9788 80.034 85.3833 79.0158 85.3833H77.6347C76.6165 85.3833 75.6399 84.9788 74.9199 84.2588C74.1999 83.5388 73.7954 82.5622 73.7954 81.544V76.3374H73.8092Z" fill="#FFC9B0"/>
<path id="Vector_4" d="M78.9812 86.0744H77.6002C76.3993 86.0726 75.2482 85.5947 74.3991 84.7456C73.55 83.8965 73.0721 82.7454 73.0703 81.5445V76.338C73.0703 76.1548 73.1431 75.9792 73.2726 75.8497C73.4021 75.7202 73.5777 75.6475 73.7608 75.6475H82.8482C83.0313 75.6475 83.2069 75.7202 83.3364 75.8497C83.4659 75.9792 83.5387 76.1548 83.5387 76.338V81.5445C83.5378 82.1415 83.4191 82.7324 83.1894 83.2834C82.9597 83.8344 82.6235 84.3346 82.2001 84.7554C81.7768 85.1762 81.2745 85.5093 80.7221 85.7357C80.1698 85.962 79.5782 86.0771 78.9812 86.0744ZM74.4721 77.0285V81.5445C74.4721 82.3797 74.8038 83.1806 75.3943 83.7711C75.9849 84.3616 76.7858 84.6933 77.6209 84.6933H79.0019C79.837 84.6933 80.638 84.3616 81.2285 83.7711C81.819 83.1806 82.1507 82.3797 82.1507 81.5445V77.0285H74.4721Z" fill="#093F68"/>
<path id="Vector_5" d="M46.5259 52.8458C46.0839 52.8458 44.1436 41.9562 43.9019 40.8928C42.7625 35.8312 41.0362 30.452 42.0375 25.3076C42.3151 23.3442 43.0046 21.4617 44.0607 19.7834C45.1932 18.1676 47.0783 16.9522 49.0463 17.1042C48.6182 17.1042 51.5184 11.649 51.9189 11.214C53.4845 9.64983 55.1649 8.20491 56.9459 6.89127C61.0271 3.79686 65.844 1.81915 70.9222 1.15299C79.1304 -0.0178006 87.5025 1.13276 95.0906 4.47442C100.767 6.95341 106.042 10.6892 109.536 15.7783C116.663 26.2191 112.499 40.5061 110.455 52.0033L104.827 51.0021L46.5259 52.8458Z" fill="#725858"/>
<path id="Vector_6" d="M46.4226 53.5435C45.732 53.5435 45.5042 53.0809 43.5914 43.0061C43.405 42.0117 43.2669 41.2798 43.2116 41.045C43.0252 40.2371 42.8318 39.4154 42.6316 38.5867C41.5682 34.1881 40.4702 29.6099 41.3403 25.1767C41.6378 23.1195 42.3648 21.148 43.474 19.3901C44.0262 18.5481 44.7626 17.8426 45.6275 17.327C46.4924 16.8114 47.4632 16.4992 48.4665 16.4139C49.2798 14.448 50.2569 12.5539 51.3874 10.7516C52.7019 9.39963 54.1245 8.15717 55.6411 7.03658L56.4973 6.34605C60.669 3.17023 65.5994 1.14189 70.7981 0.462769C79.1327 -0.745076 87.6389 0.422912 95.3394 3.83253C101.734 6.59464 106.83 10.6135 110.089 15.385C116.449 24.7071 114.08 36.8259 111.988 47.5152C111.684 49.0827 111.38 50.6226 111.118 52.1141C111.102 52.2035 111.069 52.2888 111.02 52.3653C110.971 52.4417 110.908 52.5078 110.833 52.5598C110.759 52.6117 110.675 52.6485 110.586 52.668C110.498 52.6875 110.406 52.6894 110.317 52.6735L104.793 51.7067L46.5261 53.5366H46.4226V53.5435ZM48.722 17.795C47.8998 17.8469 47.1011 18.0907 46.39 18.5068C45.679 18.9229 45.0752 19.4997 44.6272 20.1911C43.6246 21.7919 42.9661 23.5838 42.6937 25.4529C41.8858 29.5961 42.9492 34.0223 43.9712 38.2829C44.1714 39.1115 44.3717 39.9402 44.5581 40.755C44.6134 40.9967 44.7584 41.7493 44.9448 42.7575C45.373 45.0155 46.4502 50.6916 46.9197 52.1556L104.807 50.3119C104.852 50.3048 104.899 50.3048 104.945 50.3119L109.875 51.175C110.11 49.8906 110.372 48.5717 110.635 47.2321C112.672 36.8052 114.978 24.9903 108.943 16.1584C105.835 11.601 100.94 7.77544 94.7939 5.11001C87.321 1.8352 79.0849 0.701992 71.0053 1.83691C66.0471 2.47943 61.3431 4.40766 57.3605 7.43018L56.4973 8.1207C55.0398 9.19759 53.6705 10.3891 52.4025 11.6838C51.3671 13.3697 50.4644 15.1336 49.7026 16.9594C49.713 17.0281 49.713 17.0979 49.7026 17.1666C49.6956 17.2574 49.6707 17.3459 49.6294 17.427C49.5881 17.5082 49.5312 17.5803 49.4618 17.6394C49.3925 17.6984 49.3122 17.7432 49.2255 17.7711C49.1389 17.799 49.0475 17.8094 48.9568 17.8019L48.722 17.795Z" fill="#093F68"/>
<path id="Vector_7" d="M52.4852 60.4142C57.3361 60.4142 61.2687 57.0258 61.2687 52.846C61.2687 48.6662 57.3361 45.2778 52.4852 45.2778C47.6342 45.2778 43.7017 48.6662 43.7017 52.846C43.7017 57.0258 47.6342 60.4142 52.4852 60.4142Z" fill="#FFC9B0"/>
<path id="Vector_8" d="M52.4853 61.1112C47.258 61.1112 43.0112 57.4031 43.0112 52.8249C43.0112 48.2467 47.258 44.5386 52.4853 44.5386C57.7125 44.5386 61.9593 48.2467 61.9593 52.8249C61.9593 57.4031 57.7125 61.1112 52.4853 61.1112ZM52.4853 45.968C48.0245 45.968 44.3923 49.0546 44.3923 52.8732C44.3923 56.6918 48.0245 59.7785 52.4853 59.7785C56.9461 59.7785 60.5782 56.6918 60.5782 52.8732C60.5782 49.0546 56.9461 45.968 52.4853 45.968Z" fill="#093F68"/>
<path id="Vector_9" d="M103.708 60.4142C108.559 60.4142 112.492 57.0258 112.492 52.846C112.492 48.6662 108.559 45.2778 103.708 45.2778C98.8573 45.2778 94.9248 48.6662 94.9248 52.846C94.9248 57.0258 98.8573 60.4142 103.708 60.4142Z" fill="#FFC9B0"/>
<path id="Vector_10" d="M103.708 61.1112C98.4812 61.1112 94.2275 57.4031 94.2275 52.8249C94.2275 48.2467 98.4812 44.5386 103.708 44.5386C108.936 44.5386 113.182 48.2467 113.182 52.8249C113.182 57.4031 108.929 61.1112 103.708 61.1112ZM103.708 45.968C99.2408 45.968 95.6086 49.0546 95.6086 52.8732C95.6086 56.6918 99.2408 59.7785 103.708 59.7785C108.176 59.7785 111.801 56.6918 111.801 52.8732C111.801 49.0546 108.169 45.968 103.708 45.968Z" fill="#093F68"/>
<path id="Vector_11" d="M78.3312 77.5263C71.6785 77.5278 65.2687 75.0265 60.3753 70.5195C55.4819 66.0124 52.463 59.8295 51.9186 53.199C51.4491 47.4746 50.289 42.0885 52.1465 36.4745C52.6392 34.6953 53.6142 33.087 54.9638 31.8273C56.3449 30.6603 58.4786 30.1769 60.0806 31.0608C61.0267 27.3941 64.8245 25.0394 68.6224 24.6113C72.4203 24.1831 76.1354 25.3018 79.7606 26.3583C86.501 28.3851 93.0551 30.9864 99.3509 34.1336C106.815 37.8486 104.875 43.9736 104.875 51.0239C104.876 54.508 104.19 57.958 102.856 61.1766C101.521 64.3951 99.5656 67.3189 97.1001 69.7806C94.6345 72.2423 91.7077 74.1936 88.4871 75.5227C85.2664 76.8518 81.8153 77.5326 78.3312 77.5263Z" fill="#FFC9B0"/>
<path id="Vector_12" d="M78.3311 78.2162C71.5049 78.2167 64.9282 75.6498 59.9071 71.0252C54.886 66.4007 51.7879 60.0569 51.228 53.2537C51.1382 52.1627 51.0277 51.0854 50.9103 50.0082C50.4131 45.3403 49.9436 40.9347 51.4973 36.2529C52.2568 33.9535 53.2167 32.3791 54.5218 31.295C55.2167 30.6988 56.0465 30.2809 56.9393 30.0776C57.832 29.8743 58.7609 29.8915 59.6455 30.128C61.0265 26.3922 64.9832 24.3275 68.5118 23.9132C72.4685 23.4575 76.4322 24.6038 79.9262 25.681C86.705 27.7199 93.2962 30.3374 99.6269 33.5046C106.173 36.7639 105.911 41.9291 105.635 47.398C105.579 48.565 105.517 49.7803 105.517 51.0095C105.513 58.2204 102.649 65.1353 97.5518 70.2362C92.4548 75.3371 85.5421 78.2071 78.3311 78.2162ZM58.223 31.295C57.1893 31.3138 56.194 31.6895 55.4056 32.3584C54.3077 33.2699 53.486 34.644 52.8024 36.688C51.3453 41.0866 51.8011 45.3472 52.2845 49.8632C52.4019 50.9473 52.5123 52.0384 52.609 53.1432C52.9626 57.4821 54.4094 61.6608 56.8143 65.2896C59.1895 68.8207 62.3912 71.7183 66.1411 73.7304C69.8909 75.7426 74.0756 76.8084 78.3311 76.8352C85.177 76.826 91.7395 74.1006 96.5776 69.2572C101.416 64.4138 104.134 57.8485 104.136 51.0026C104.136 49.7389 104.198 48.5098 104.26 47.3221C104.53 41.8807 104.744 37.5857 99.0124 34.7338C92.7536 31.6005 86.2362 29.0129 79.5326 26.9999C76.1629 25.9917 72.3512 24.8592 68.6637 25.2805C65.4873 25.6395 61.6549 27.649 60.7503 31.2121C60.7243 31.3142 60.6753 31.409 60.607 31.4892C60.5387 31.5695 60.453 31.633 60.3563 31.675C60.2597 31.717 60.1547 31.7363 60.0494 31.7315C59.9442 31.7267 59.8414 31.6978 59.749 31.6471C59.2777 31.4042 58.7531 31.2831 58.223 31.295Z" fill="#093F68"/>
<path id="Vector_13" d="M66.0607 49.621C67.4146 49.621 68.5121 48.5235 68.5121 47.1696C68.5121 45.8158 67.4146 44.7183 66.0607 44.7183C64.7069 44.7183 63.6094 45.8158 63.6094 47.1696C63.6094 48.5235 64.7069 49.621 66.0607 49.621Z" fill="#093F68"/>
<path id="Vector_14" d="M91.3684 49.621C92.7222 49.621 93.8197 48.5235 93.8197 47.1696C93.8197 45.8158 92.7222 44.7183 91.3684 44.7183C90.0145 44.7183 88.917 45.8158 88.917 47.1696C88.917 48.5235 90.0145 49.621 91.3684 49.621Z" fill="#093F68"/>
<path id="Vector_15" d="M87.9993 59.0127C87.9993 61.5766 86.9808 64.0356 85.1678 65.8486C83.3548 67.6615 80.8959 68.6801 78.3319 68.6801C75.768 68.6801 73.309 67.6615 71.4961 65.8486C69.6831 64.0356 68.6646 61.5766 68.6646 59.0127H87.9993Z" fill="white"/>
<path id="Vector_16" d="M78.3315 69.3707C75.5844 69.3707 72.9499 68.2794 71.0074 66.3369C69.0649 64.3944 67.9736 61.7599 67.9736 59.0128C67.9736 58.8297 68.0464 58.654 68.1759 58.5245C68.3054 58.395 68.481 58.3223 68.6642 58.3223H87.9989C88.182 58.3223 88.3577 58.395 88.4872 58.5245C88.6167 58.654 88.6894 58.8297 88.6894 59.0128C88.6894 61.7599 87.5981 64.3944 85.6557 66.3369C83.7132 68.2794 81.0786 69.3707 78.3315 69.3707ZM69.3547 59.7033C69.5209 61.9641 70.5363 64.0782 72.1969 65.6212C73.8576 67.1643 76.0405 68.0219 78.3074 68.0219C80.5742 68.0219 82.7571 67.1643 84.4178 65.6212C86.0784 64.0782 87.0938 61.9641 87.26 59.7033H69.3547Z" fill="#093F68"/>
<path id="Vector_17" d="M78.2002 56.1124C77.4043 56.11 76.6099 56.0431 75.8248 55.9122C75.7341 55.8963 75.6475 55.8627 75.5698 55.8133C75.492 55.764 75.4248 55.6998 75.3719 55.6244C75.319 55.5491 75.2815 55.4641 75.2614 55.3742C75.2414 55.2844 75.2393 55.1915 75.2551 55.1008C75.271 55.0101 75.3046 54.9234 75.3539 54.8457C75.4033 54.768 75.4675 54.7008 75.5428 54.6479C75.6182 54.595 75.7032 54.5575 75.793 54.5374C75.8829 54.5174 75.9758 54.5152 76.0665 54.5311C77.2942 54.7345 78.5469 54.7345 79.7746 54.5311C79.9887 53.8958 79.0496 51.1959 77.703 48.634C77.6229 48.4724 77.6092 48.286 77.6648 48.1144C77.7204 47.9428 77.8409 47.7998 78.0005 47.716C78.1601 47.6321 78.3463 47.614 78.5191 47.6655C78.6919 47.7171 78.8377 47.8342 78.9253 47.9918C79.6158 49.2693 81.6874 53.5644 80.9968 55.1457C80.9175 55.3155 80.8014 55.4656 80.6569 55.5851C80.5124 55.7045 80.3431 55.7903 80.1613 55.8362C79.5204 56.0033 78.8624 56.0959 78.2002 56.1124Z" fill="#093F68"/>
<path id="Vector_18" d="M59.4047 39.6635C59.2233 39.673 59.0419 39.6467 58.8707 39.5861C58.6995 39.5255 58.5419 39.4317 58.4069 39.3102C58.2719 39.1887 58.1622 39.0418 58.084 38.8779C58.0058 38.714 57.9606 38.5363 57.9511 38.3549C57.9416 38.1735 57.9679 37.9921 58.0285 37.8209C58.0891 37.6497 58.1828 37.4921 58.3043 37.3571C58.4259 37.2221 58.5728 37.1124 58.7367 37.0342C58.9006 36.956 59.0783 36.9109 59.2597 36.9013L70.9019 35.6791C71.2682 35.6416 71.6344 35.7511 71.92 35.9835C72.2055 36.216 72.387 36.5523 72.4246 36.9186C72.4621 37.2849 72.3526 37.6511 72.1201 37.9366C71.8877 38.2222 71.5513 38.4037 71.1851 38.4412L59.5497 39.6635H59.4047Z" fill="#093F68"/>
<path id="Vector_19" d="M99.3508 40.7479C99.2635 40.7547 99.1758 40.7547 99.0884 40.7479L87.5912 38.5727C87.2313 38.5041 86.9135 38.2952 86.7076 37.9922C86.5017 37.6892 86.4246 37.3168 86.4932 36.9569C86.5619 36.597 86.7707 36.2792 87.0738 36.0733C87.3768 35.8674 87.7492 35.7903 88.1091 35.859L99.5994 38.0341C99.9657 38.0671 100.304 38.2442 100.54 38.5265C100.775 38.8088 100.889 39.1732 100.856 39.5395C100.823 39.9057 100.646 40.2439 100.364 40.4796C100.081 40.7153 99.7171 40.8292 99.3508 40.7962V40.7479Z" fill="#093F68"/>
<path id="Vector_20" d="M79.9471 86.3643H77.1436C76.0681 86.3643 75.1963 87.2361 75.1963 88.3115V89.6926C75.1963 90.768 76.0681 91.6399 77.1436 91.6399H79.9471C81.0226 91.6399 81.8944 90.768 81.8944 89.6926V88.3115C81.8944 87.2361 81.0226 86.3643 79.9471 86.3643Z" fill="#F56132"/>
<path id="Vector_21" d="M79.9541 92.33H77.1437C76.4441 92.33 75.7731 92.0521 75.2785 91.5574C74.7838 91.0627 74.5059 90.3918 74.5059 89.6922V88.3111C74.5077 87.6121 74.7862 86.9422 75.2805 86.4479C75.7748 85.9537 76.4446 85.6752 77.1437 85.6733H79.9541C80.6531 85.6752 81.323 85.9537 81.8173 86.4479C82.3116 86.9422 82.5901 87.6121 82.5919 88.3111V89.6922C82.5901 90.3912 82.3116 91.0611 81.8173 91.5554C81.323 92.0497 80.6531 92.3282 79.9541 92.33ZM77.1437 87.0544C76.8109 87.0562 76.4923 87.1892 76.257 87.4245C76.0217 87.6598 75.8887 87.9784 75.8869 88.3111V89.6922C75.8887 90.025 76.0217 90.3436 76.257 90.5789C76.4923 90.8141 76.8109 90.9471 77.1437 90.949H79.9541C80.2869 90.9471 80.6055 90.8141 80.8408 90.5789C81.0761 90.3436 81.209 90.025 81.2109 89.6922V88.3111C81.209 87.9784 81.0761 87.6598 80.8408 87.4245C80.6055 87.1892 80.2869 87.0562 79.9541 87.0544H77.1437Z" fill="#093F68"/>
<path id="Vector_22" d="M76.6254 91.6392L72.3994 115.607L78.5451 123.666L83.1578 115.207L80.4717 91.6392H76.6254Z" fill="#F56132"/>
<path id="Vector_23" d="M78.5453 124.357C78.4399 124.357 78.3359 124.332 78.2413 124.286C78.1467 124.239 78.0641 124.171 77.9998 124.088L71.8472 116.022C71.7893 115.946 71.7478 115.859 71.7252 115.767C71.7026 115.674 71.6995 115.578 71.716 115.484L75.942 91.5155C75.9714 91.3547 76.057 91.2095 76.1834 91.1058C76.3099 91.0021 76.4691 90.9466 76.6326 90.9493H80.4788C80.6495 90.9483 80.8145 91.0105 80.9421 91.124C81.0696 91.2375 81.1505 91.3942 81.1693 91.5639L83.814 115.132C83.8273 115.272 83.801 115.413 83.7381 115.539L79.1254 123.998C79.0705 124.099 78.9912 124.185 78.8947 124.248C78.7983 124.31 78.6876 124.348 78.5729 124.357H78.5453ZM73.1316 115.428L78.4486 122.403L82.433 115.069L79.8435 92.3304H77.1919L73.1316 115.428Z" fill="#093F68"/>
<path id="Vector_24" d="M60.5849 62.5962H17.6065C15.9362 62.5962 14.582 63.9503 14.582 65.6207V119.136C14.582 120.807 15.9362 122.161 17.6065 122.161H60.5849C62.2553 122.161 63.6094 120.807 63.6094 119.136V65.6207C63.6094 63.9503 62.2553 62.5962 60.5849 62.5962Z" fill="#FFBC0E"/>
<path id="Vector_25" d="M60.5845 122.859H17.6061C16.6214 122.857 15.6775 122.465 14.9812 121.769C14.2849 121.073 13.8929 120.129 13.8911 119.144V65.6213C13.8929 64.6366 14.2849 63.6927 14.9812 62.9964C15.6775 62.3001 16.6214 61.9081 17.6061 61.9062H60.5845C61.5692 61.9081 62.5131 62.3001 63.2094 62.9964C63.9057 63.6927 64.2977 64.6366 64.2995 65.6213V119.144C64.2977 120.129 63.9057 121.073 63.2094 121.769C62.5131 122.465 61.5692 122.857 60.5845 122.859ZM17.6061 63.2873C16.9871 63.2873 16.3935 63.5332 15.9558 63.9709C15.5181 64.4086 15.2722 65.0023 15.2722 65.6213V119.144C15.2722 119.763 15.5181 120.357 15.9558 120.794C16.3935 121.232 16.9871 121.478 17.6061 121.478H60.5845C61.2029 121.476 61.7955 121.23 62.2329 120.792C62.6702 120.355 62.9167 119.762 62.9185 119.144V65.6213C62.9167 65.0028 62.6702 64.4102 62.2329 63.9729C61.7955 63.5356 61.2029 63.2891 60.5845 63.2873H17.6061Z" fill="#093F68"/>
<path id="Vector_26" d="M18.8286 65.3516H59.3625V117.196H18.8286V65.3516Z" fill="white"/>
<path id="Vector_27" d="M59.3626 117.886H18.8287C18.6456 117.886 18.4699 117.814 18.3404 117.684C18.2109 117.555 18.1382 117.379 18.1382 117.196V65.3512C18.1382 65.168 18.2109 64.9924 18.3404 64.8629C18.4699 64.7334 18.6456 64.6606 18.8287 64.6606H59.3626C59.5457 64.6606 59.7214 64.7334 59.8509 64.8629C59.9804 64.9924 60.0531 65.168 60.0531 65.3512V117.196C60.0531 117.379 59.9804 117.555 59.8509 117.684C59.7214 117.814 59.5457 117.886 59.3626 117.886ZM19.5192 116.505H58.6721V66.0417H19.5192V116.505Z" fill="#093F68"/>
<path id="Vector_28" d="M47.5133 59.7656H30.6783C29.519 59.7656 28.5791 60.7055 28.5791 61.8648V65.0136C28.5791 66.173 29.519 67.1128 30.6783 67.1128H47.5133C48.6727 67.1128 49.6125 66.173 49.6125 65.0136V61.8648C49.6125 60.7055 48.6727 59.7656 47.5133 59.7656Z" fill="#68E1FD"/>
<path id="Vector_29" d="M47.5136 67.8029H30.6786C29.9461 67.8029 29.2435 67.5119 28.7255 66.9939C28.2075 66.4759 27.9165 65.7733 27.9165 65.0408V61.892C27.9165 61.1594 28.2075 60.4569 28.7255 59.9389C29.2435 59.4209 29.9461 59.1299 30.6786 59.1299H47.5136C48.2462 59.1299 48.9487 59.4209 49.4667 59.9389C49.9847 60.4569 50.2757 61.1594 50.2757 61.892V65.0408C50.2757 65.7733 49.9847 66.4759 49.4667 66.9939C48.9487 67.5119 48.2462 67.8029 47.5136 67.8029ZM30.6786 60.4557C30.3123 60.4557 29.9611 60.6012 29.7021 60.8602C29.4431 61.1192 29.2976 61.4705 29.2976 61.8367V64.9855C29.2976 65.3518 29.4431 65.7031 29.7021 65.9621C29.9611 66.2211 30.3123 66.3666 30.6786 66.3666H47.5136C47.8799 66.3666 48.2312 66.2211 48.4902 65.9621C48.7492 65.7031 48.8947 65.3518 48.8947 64.9855V61.8367C48.8947 61.4705 48.7492 61.1192 48.4902 60.8602C48.2312 60.6012 47.8799 60.4557 47.5136 60.4557H30.6786Z" fill="#093F68"/>
<path id="Vector_30" d="M118.195 76.3798V68.3421C118.195 67.4447 117.839 66.5841 117.204 65.9495C116.57 65.315 115.709 64.9585 114.812 64.9585C113.914 64.9585 113.054 65.315 112.419 65.9495C111.785 66.5841 111.428 67.4447 111.428 68.3421V78.4928C110.662 79.7427 110.213 81.7176 110.213 84.8526C110.213 93.3598 114.183 94.8307 118.251 94.8307C122.318 94.8307 127.359 91.668 127.856 89.2581C128.781 84.8802 121.986 76.7251 118.195 76.3798Z" fill="#FFC9B0"/>
<path id="Vector_31" d="M118.278 95.5208C114.535 95.5208 109.55 94.416 109.55 84.8522C109.55 81.9312 109.937 79.8044 110.738 78.3543V68.3417C110.738 67.2612 111.167 66.2249 111.931 65.4608C112.695 64.6968 113.731 64.2676 114.812 64.2676C115.892 64.2676 116.928 64.6968 117.692 65.4608C118.456 66.2249 118.886 67.2612 118.886 68.3417V75.7994C121.178 76.3863 123.892 78.9205 125.701 81.3236C126.765 82.7599 129.154 86.4127 128.56 89.3682C127.966 92.3237 122.483 95.5208 118.278 95.5208ZM112.125 78.3336C112.169 78.5095 112.142 78.6955 112.05 78.8515C111.304 80.0737 110.938 82.0348 110.938 84.8522C110.938 93.0349 114.653 94.1397 118.285 94.1397C121.917 94.1397 126.799 91.1498 127.213 89.1196C127.552 87.4693 126.523 84.8107 124.596 82.1729C122.483 79.321 119.825 77.2218 118.14 77.063C117.968 77.0475 117.808 76.9679 117.691 76.8401C117.575 76.7122 117.511 76.5454 117.512 76.3725V68.3417C117.512 67.6274 117.228 66.9424 116.723 66.4374C116.218 65.9324 115.533 65.6486 114.819 65.6486C114.104 65.6486 113.419 65.9324 112.914 66.4374C112.409 66.9424 112.125 67.6274 112.125 68.3417V78.3336Z" fill="#093F68"/>
<path id="Vector_32" d="M126.164 74.5625H115.302C114.219 74.5625 113.341 75.4405 113.341 76.5236V76.5305C113.341 77.6136 114.219 78.4916 115.302 78.4916H126.164C127.247 78.4916 128.125 77.6136 128.125 76.5305V76.5236C128.125 75.4405 127.247 74.5625 126.164 74.5625Z" fill="#FFC9B0"/>
<path id="Vector_33" d="M126.165 79.1827H115.31C114.95 79.2011 114.59 79.1461 114.251 79.0209C113.913 78.8958 113.604 78.7032 113.343 78.4548C113.081 78.2065 112.873 77.9076 112.731 77.5763C112.589 77.245 112.516 76.8882 112.516 76.5277C112.516 76.1671 112.589 75.8104 112.731 75.4791C112.873 75.1478 113.081 74.8489 113.343 74.6005C113.604 74.3522 113.913 74.1596 114.251 74.0344C114.59 73.9093 114.95 73.8542 115.31 73.8726H126.165C126.525 73.8542 126.885 73.9093 127.223 74.0344C127.561 74.1596 127.87 74.3522 128.131 74.6005C128.393 74.8489 128.601 75.1478 128.743 75.4791C128.885 75.8104 128.959 76.1671 128.959 76.5277C128.959 76.8882 128.885 77.245 128.743 77.5763C128.601 77.9076 128.393 78.2065 128.131 78.4548C127.87 78.7032 127.561 78.8958 127.223 79.0209C126.885 79.1461 126.525 79.2011 126.165 79.1827ZM115.31 75.2536C115.134 75.2407 114.958 75.2641 114.793 75.3223C114.627 75.3805 114.475 75.4722 114.346 75.5918C114.218 75.7113 114.115 75.8562 114.045 76.0172C113.974 76.1782 113.938 76.352 113.938 76.5277C113.938 76.7033 113.974 76.8771 114.045 77.0382C114.115 77.1992 114.218 77.344 114.346 77.4636C114.475 77.5831 114.627 77.6749 114.793 77.7331C114.958 77.7912 115.134 77.8146 115.31 77.8017H126.165C126.34 77.8146 126.516 77.7912 126.682 77.7331C126.847 77.6749 126.999 77.5831 127.128 77.4636C127.257 77.344 127.359 77.1992 127.43 77.0382C127.5 76.8771 127.536 76.7033 127.536 76.5277C127.536 76.352 127.5 76.1782 127.43 76.0172C127.359 75.8562 127.257 75.7113 127.128 75.5918C126.999 75.4722 126.847 75.3805 126.682 75.3223C126.516 75.2641 126.34 75.2407 126.165 75.2536H115.31Z" fill="#093F68"/>
<path id="Vector_34" d="M126.164 78.4922H115.302C114.219 78.4922 113.341 79.3702 113.341 80.4533V80.4602C113.341 81.5433 114.219 82.4213 115.302 82.4213H126.164C127.247 82.4213 128.125 81.5433 128.125 80.4602V80.4533C128.125 79.3702 127.247 78.4922 126.164 78.4922Z" fill="#FFC9B0"/>
<path id="Vector_35" d="M126.164 83.1045H115.309C114.606 83.1045 113.932 82.8252 113.434 82.3279C112.937 81.8306 112.658 81.1561 112.658 80.4529C112.658 79.7496 112.937 79.0752 113.434 78.5779C113.932 78.0806 114.606 77.8013 115.309 77.8013H126.164C126.868 77.8013 127.542 78.0806 128.039 78.5779C128.537 79.0752 128.816 79.7496 128.816 80.4529C128.816 81.1561 128.537 81.8306 128.039 82.3279C127.542 82.8252 126.868 83.1045 126.164 83.1045ZM115.309 79.1823C114.972 79.1823 114.649 79.3162 114.411 79.5545C114.173 79.7927 114.039 80.1159 114.039 80.4529C114.039 80.7899 114.173 81.113 114.411 81.3513C114.649 81.5896 114.972 81.7235 115.309 81.7235H126.164C126.501 81.7235 126.825 81.5896 127.063 81.3513C127.301 81.113 127.435 80.7899 127.435 80.4529C127.435 80.1159 127.301 79.7927 127.063 79.5545C126.825 79.3162 126.501 79.1823 126.164 79.1823H115.309Z" fill="#093F68"/>
<path id="Vector_36" d="M126.164 82.4146H115.302C114.219 82.4146 113.341 83.2926 113.341 84.3756V84.3825C113.341 85.4656 114.219 86.3436 115.302 86.3436H126.164C127.247 86.3436 128.125 85.4656 128.125 84.3825V84.3756C128.125 83.2926 127.247 82.4146 126.164 82.4146Z" fill="#FFC9B0"/>
<path id="Vector_37" d="M126.165 87.0343H115.31C114.95 87.0527 114.59 86.9976 114.251 86.8725C113.913 86.7473 113.604 86.5547 113.343 86.3064C113.081 86.058 112.873 85.7591 112.731 85.4278C112.589 85.0965 112.516 84.7398 112.516 84.3792C112.516 84.0187 112.589 83.6619 112.731 83.3306C112.873 82.9993 113.081 82.7004 113.343 82.4521C113.604 82.2037 113.913 82.0111 114.251 81.886C114.59 81.7608 114.95 81.7058 115.31 81.7242H126.165C126.525 81.7058 126.885 81.7608 127.223 81.886C127.561 82.0111 127.87 82.2037 128.131 82.4521C128.393 82.7004 128.601 82.9993 128.743 83.3306C128.885 83.6619 128.959 84.0187 128.959 84.3792C128.959 84.7398 128.885 85.0965 128.743 85.4278C128.601 85.7591 128.393 86.058 128.131 86.3064C127.87 86.5547 127.561 86.7473 127.223 86.8725C126.885 86.9976 126.525 87.0527 126.165 87.0343ZM115.31 83.1052C115.134 83.0923 114.958 83.1157 114.793 83.1738C114.627 83.232 114.475 83.3238 114.346 83.4433C114.218 83.5629 114.115 83.7077 114.045 83.8687C113.974 84.0298 113.938 84.2036 113.938 84.3792C113.938 84.5549 113.974 84.7287 114.045 84.8897C114.115 85.0507 114.218 85.1956 114.346 85.3151C114.475 85.4347 114.627 85.5264 114.793 85.5846C114.958 85.6428 115.134 85.6661 115.31 85.6532H126.165C126.34 85.6661 126.516 85.6428 126.682 85.5846C126.847 85.5264 126.999 85.4347 127.128 85.3151C127.257 85.1956 127.359 85.0507 127.43 84.8897C127.5 84.7287 127.536 84.5549 127.536 84.3792C127.536 84.2036 127.5 84.0298 127.43 83.8687C127.359 83.7077 127.257 83.5629 127.128 83.4433C126.999 83.3238 126.847 83.232 126.682 83.1738C126.516 83.1157 126.34 83.0923 126.165 83.1052H115.31Z" fill="#093F68"/>
<path id="Vector_38" d="M126.793 91.7847C126.702 91.7844 126.611 91.7659 126.527 91.7303C126.443 91.6947 126.367 91.6428 126.303 91.5776C126.174 91.4482 126.102 91.2732 126.102 91.0908C126.102 90.9083 126.174 90.7333 126.303 90.6039C126.958 90.0076 127.364 89.1868 127.442 88.3045C127.44 87.9669 127.305 87.6437 127.066 87.4056C126.826 87.1676 126.502 87.0339 126.165 87.0339H115.31C115.134 87.021 114.958 87.0444 114.793 87.1026C114.627 87.1607 114.475 87.2525 114.346 87.372C114.218 87.4916 114.115 87.6364 114.045 87.7975C113.974 87.9585 113.938 88.1323 113.938 88.3079C113.938 88.4836 113.974 88.6574 114.045 88.8184C114.115 88.9795 114.218 89.1243 114.346 89.2439C114.475 89.3634 114.627 89.4552 114.793 89.5133C114.958 89.5715 115.134 89.5949 115.31 89.582H121.642C121.825 89.582 122.001 89.6547 122.13 89.7842C122.26 89.9137 122.332 90.0894 122.332 90.2725C122.332 90.4556 122.26 90.6313 122.13 90.7608C122.001 90.8903 121.825 90.963 121.642 90.963H115.31C114.95 90.9814 114.59 90.9263 114.251 90.8012C113.913 90.6761 113.604 90.4834 113.343 90.2351C113.081 89.9867 112.873 89.6878 112.731 89.3565C112.589 89.0252 112.516 88.6685 112.516 88.3079C112.516 87.9474 112.589 87.5907 112.731 87.2594C112.873 86.9281 113.081 86.6291 113.343 86.3808C113.604 86.1324 113.913 85.9398 114.251 85.8147C114.59 85.6896 114.95 85.6345 115.31 85.6529H126.165C126.869 85.6529 127.544 85.932 128.042 86.4291C128.54 86.9262 128.821 87.6006 128.823 88.3045C128.753 89.5571 128.198 90.7333 127.276 91.5845C127.148 91.7121 126.974 91.784 126.793 91.7847Z" fill="#093F68"/>
<path id="Vector_39" d="M97.2315 114.669C97.0484 114.669 96.8728 114.596 96.7433 114.466C96.6138 114.337 96.541 114.161 96.541 113.978V103.075C96.541 102.892 96.6138 102.716 96.7433 102.587C96.8728 102.457 97.0484 102.384 97.2315 102.384C97.4147 102.384 97.5903 102.457 97.7198 102.587C97.8493 102.716 97.9221 102.892 97.9221 103.075V113.978C97.9221 114.161 97.8493 114.337 97.7198 114.466C97.5903 114.596 97.4147 114.669 97.2315 114.669Z" fill="#093F68"/>
<path id="Vector_40" d="M105.835 108.316C105.78 108.323 105.725 108.323 105.67 108.316C105.492 108.272 105.339 108.159 105.245 108.003C105.15 107.846 105.122 107.658 105.166 107.481L107.237 99.1943C107.259 99.1056 107.298 99.0221 107.352 98.9487C107.407 98.8753 107.475 98.8133 107.553 98.7664C107.632 98.7196 107.718 98.6887 107.809 98.6756C107.899 98.6625 107.991 98.6675 108.08 98.6902C108.256 98.7358 108.407 98.8491 108.5 99.0056C108.593 99.1621 108.621 99.349 108.577 99.5257L106.505 107.812C106.464 107.958 106.377 108.086 106.256 108.177C106.135 108.268 105.987 108.317 105.835 108.316Z" fill="#093F68"/>
<path id="Vector_41" d="M36.2649 88.6087H24.2843C24.1011 88.6087 23.9255 88.5359 23.796 88.4064C23.6665 88.2769 23.5938 88.1013 23.5938 87.9181V74.6324C23.5938 74.4493 23.6665 74.2736 23.796 74.1441C23.9255 74.0146 24.1011 73.9419 24.2843 73.9419H36.2649C36.448 73.9419 36.6237 74.0146 36.7532 74.1441C36.8827 74.2736 36.9554 74.4493 36.9554 74.6324V87.9181C36.9554 88.1013 36.8827 88.2769 36.7532 88.4064C36.6237 88.5359 36.448 88.6087 36.2649 88.6087ZM24.9748 87.2276H35.5744V75.3229H24.9748V87.2276Z" fill="#DFEAEF"/>
<path id="Vector_42" d="M28.8975 86.4406C28.7903 86.4404 28.6835 86.4265 28.5798 86.3992C28.3564 86.3461 28.1497 86.2381 27.9784 86.0849C27.8072 85.9318 27.6769 85.7384 27.5993 85.5222L25.4863 79.6527C25.4186 79.481 25.386 79.2973 25.3905 79.1127C25.3951 78.9281 25.4365 78.7463 25.5125 78.578C25.5885 78.4098 25.6975 78.2584 25.833 78.133C25.9685 78.0075 26.1278 77.9106 26.3014 77.8477C26.4751 77.7849 26.6596 77.7576 26.8439 77.7673C27.0283 77.777 27.2089 77.8237 27.375 77.9044C27.541 77.9851 27.6892 78.0983 27.8108 78.2373C27.9323 78.3763 28.0248 78.5383 28.0827 78.7136L29.4637 82.6013L37.6672 74.8191C37.9336 74.5672 38.2892 74.4316 38.6557 74.442C39.0222 74.4523 39.3695 74.6078 39.6214 74.8743C39.8732 75.1408 40.0088 75.4964 39.9985 75.8628C39.9881 76.2293 39.8326 76.5767 39.5661 76.8285L29.8366 86.0608C29.583 86.3018 29.2473 86.4375 28.8975 86.4406Z" fill="#093F68"/>
<path id="Vector_43" d="M55.2339 79.5974H41.1334C40.9503 79.5974 40.7746 79.5246 40.6451 79.3951C40.5156 79.2656 40.4429 79.09 40.4429 78.9068C40.4429 78.7237 40.5156 78.5481 40.6451 78.4186C40.7746 78.2891 40.9503 78.2163 41.1334 78.2163H55.2339C55.4171 78.2163 55.5927 78.2891 55.7222 78.4186C55.8517 78.5481 55.9245 78.7237 55.9245 78.9068C55.9245 79.09 55.8517 79.2656 55.7222 79.3951C55.5927 79.5246 55.4171 79.5974 55.2339 79.5974Z" fill="#DFEAEF"/>
<path id="Vector_44" d="M51.0977 84.3342H41.1334C40.9503 84.3342 40.7746 84.2614 40.6451 84.1319C40.5156 84.0024 40.4429 83.8268 40.4429 83.6437C40.4429 83.4605 40.5156 83.2849 40.6451 83.1554C40.7746 83.0259 40.9503 82.9531 41.1334 82.9531H51.0977C51.2808 82.9531 51.4565 83.0259 51.586 83.1554C51.7155 83.2849 51.7882 83.4605 51.7882 83.6437C51.7882 83.8268 51.7155 84.0024 51.586 84.1319C51.4565 84.2614 51.2808 84.3342 51.0977 84.3342Z" fill="#DFEAEF"/>
<path id="Vector_45" d="M36.2649 108.171H24.2843C24.1011 108.171 23.9255 108.098 23.796 107.969C23.6665 107.839 23.5938 107.664 23.5938 107.481V94.1881C23.5938 94.0049 23.6665 93.8293 23.796 93.6998C23.9255 93.5703 24.1011 93.4976 24.2843 93.4976H36.2649C36.448 93.4976 36.6237 93.5703 36.7532 93.6998C36.8827 93.8293 36.9554 94.0049 36.9554 94.1881V107.481C36.9554 107.664 36.8827 107.839 36.7532 107.969C36.6237 108.098 36.448 108.171 36.2649 108.171ZM24.9748 106.79H35.5744V94.8786H24.9748V106.79Z" fill="#DFEAEF"/>
<path id="Vector_46" d="M28.8968 105.995C28.7911 106.006 28.6848 106.006 28.5791 105.995C28.3556 105.942 28.1489 105.834 27.9777 105.681C27.8065 105.528 27.6762 105.335 27.5986 105.118L25.4856 99.2421C25.4136 99.0693 25.3775 98.8837 25.3795 98.6965C25.3814 98.5094 25.4214 98.3245 25.497 98.1533C25.5726 97.9821 25.6822 97.828 25.8192 97.7004C25.9561 97.5729 26.1176 97.4745 26.2938 97.4112C26.4699 97.348 26.6571 97.3212 26.8439 97.3325C27.0307 97.3438 27.2133 97.393 27.3806 97.477C27.5478 97.5611 27.6962 97.6782 27.8168 97.8214C27.9374 97.9646 28.0276 98.1307 28.0819 98.3098L29.463 102.191L37.6664 94.4153C37.7961 94.2817 37.9515 94.1757 38.1231 94.1036C38.2948 94.0316 38.4793 93.995 38.6655 93.9961C38.8517 93.9972 39.0357 94.0359 39.2065 94.1099C39.3774 94.184 39.5315 94.2918 39.6596 94.4269C39.7877 94.562 39.8872 94.7216 39.952 94.8961C40.0169 95.0706 40.0458 95.2564 40.037 95.4424C40.0282 95.6284 39.9819 95.8107 39.9008 95.9783C39.8198 96.1459 39.7057 96.2954 39.5654 96.4178L29.8359 105.65C29.577 105.879 29.242 106.002 28.8968 105.995Z" fill="#093F68"/>
<path id="Vector_47" d="M55.2339 99.153H41.1334C40.9503 99.153 40.7746 99.0803 40.6451 98.9508C40.5156 98.8213 40.4429 98.6456 40.4429 98.4625C40.4429 98.2794 40.5156 98.1037 40.6451 97.9742C40.7746 97.8447 40.9503 97.772 41.1334 97.772H55.2339C55.4171 97.772 55.5927 97.8447 55.7222 97.9742C55.8517 98.1037 55.9245 98.2794 55.9245 98.4625C55.9245 98.6456 55.8517 98.8213 55.7222 98.9508C55.5927 99.0803 55.4171 99.153 55.2339 99.153Z" fill="#DFEAEF"/>
<path id="Vector_48" d="M51.0977 103.896H41.1334C40.9503 103.896 40.7746 103.823 40.6451 103.694C40.5156 103.564 40.4429 103.389 40.4429 103.206C40.4429 103.023 40.5156 102.847 40.6451 102.717C40.7746 102.588 40.9503 102.515 41.1334 102.515H51.0977C51.2808 102.515 51.4565 102.588 51.586 102.717C51.7155 102.847 51.7882 103.023 51.7882 103.206C51.7882 103.389 51.7155 103.564 51.586 103.694C51.4565 103.823 51.2808 103.896 51.0977 103.896Z" fill="#DFEAEF"/>
<path id="Vector_49" d="M8.95353 90.3967C8.95353 90.3276 8.95353 90.2655 8.95353 90.1964C9.02744 89.3761 9.26207 88.5783 9.64405 87.8486C11.3497 85.5768 14.0634 85.4801 16.6805 84.8379C18.4275 84.4098 20.4784 84.0369 21.8664 85.197C22.0316 85.3203 22.1585 85.4879 22.2323 85.6804C22.3843 86.1983 21.8871 86.6678 21.4244 86.944C20.0506 87.7692 18.5055 88.2677 16.9084 88.401C18.4545 88.1007 20.044 88.1007 21.5902 88.401C22.3912 88.553 23.3165 88.9466 23.4131 89.7476C23.5236 90.7074 22.3981 91.2874 21.4659 91.5153C20.1201 91.8589 18.7482 92.0898 17.3641 92.2058C18.8793 92.0264 20.409 92.0055 21.9285 92.1437C22.474 92.1989 23.1093 92.3301 23.3096 92.8342C23.3853 93.0475 23.3941 93.2787 23.3349 93.4971C23.2757 93.7155 23.1512 93.9107 22.9781 94.0565C22.6246 94.3431 22.2081 94.5419 21.7628 94.6365C20.2596 95.0559 18.7102 95.2878 17.1501 95.327H20.948C21.3606 95.3103 21.7716 95.3883 22.1495 95.5549C22.3373 95.6417 22.4924 95.7865 22.5918 95.9679C22.6913 96.1494 22.7299 96.358 22.7019 96.5631C22.6232 96.8133 22.4596 97.0283 22.2393 97.1707C21.1689 97.951 19.7257 97.7922 18.4068 97.8267C17.4135 97.7871 16.4434 98.1335 15.7 98.7935C15.0923 99.484 15.1545 100.478 14.2844 100.996C12.8274 101.852 10.7075 100.306 9.94098 99.1387C8.92591 97.6196 8.71875 95.6861 8.71875 93.8838C8.72733 92.7178 8.80573 91.5533 8.95353 90.3967Z" fill="#FFC9B0"/>
<path id="Vector_50" d="M13.381 101.928C11.7375 101.928 10.0664 100.499 9.40354 99.5114C8.22274 97.7299 8.07082 95.5616 8.07082 93.8698C8.06946 92.6812 8.14095 91.4935 8.28489 90.3136V90.1065C8.36012 89.2004 8.61355 88.318 9.03065 87.5101L9.07209 87.4341C10.612 85.3625 12.8493 84.9344 15.0175 84.4856C15.5078 84.3889 15.9981 84.2853 16.4952 84.1679C18.5668 83.657 20.7213 83.36 22.2888 84.6651C22.5632 84.8732 22.7679 85.1598 22.8757 85.4868C23.0898 86.2188 22.6755 86.9853 21.764 87.5584L21.5499 87.6896H21.7018C23.0829 87.952 23.9667 88.6633 24.0772 89.63C24.1033 90.0349 24.0099 90.4386 23.8086 90.7909C23.6072 91.1433 23.3069 91.4287 22.9448 91.6118C23.3815 91.7599 23.7417 92.0753 23.946 92.4888C24.0875 92.8342 24.117 93.2153 24.0303 93.5783C23.9436 93.9413 23.745 94.2679 23.4627 94.512C23.2176 94.7249 22.9402 94.8974 22.6409 95.023C22.9221 95.1944 23.1442 95.4476 23.2775 95.7487C23.4108 96.0499 23.4489 96.3845 23.3867 96.7079C23.2743 97.1222 23.0139 97.4809 22.6547 97.7161C21.5982 98.4895 20.2862 98.4964 19.1261 98.4964H18.4356C17.6311 98.4467 16.8388 98.7117 16.2259 99.2352C16.0529 99.4604 15.9176 99.7123 15.8254 99.981C15.6306 100.635 15.2096 101.198 14.6377 101.569C14.2575 101.797 13.8241 101.921 13.381 101.928ZM10.2322 88.2282C9.9227 88.8791 9.73545 89.5813 9.67975 90.2998V90.4932C9.54728 91.6185 9.48041 92.7506 9.47949 93.8837C9.47949 95.3821 9.60379 97.2879 10.5843 98.7588C11.2749 99.7946 13.0495 100.962 14.037 100.402C14.3386 100.178 14.5533 99.8556 14.6446 99.4907C14.787 99.0706 15.0046 98.6798 15.2868 98.3375C16.1569 97.3501 17.6691 97.1636 18.4909 97.136H19.1814C20.2241 97.136 21.2115 97.136 21.9435 96.6181C22.123 96.4869 22.1438 96.411 22.1438 96.411C22.1287 96.3591 22.1032 96.3109 22.0688 96.2693C22.0343 96.2277 21.9917 96.1937 21.9435 96.1693C21.655 96.0597 21.3472 96.0103 21.0389 96.0243C19.7891 95.9759 18.5254 95.969 17.2755 96.0243C17.0924 96.0243 16.9168 95.9515 16.7873 95.822C16.6578 95.6925 16.585 95.5169 16.585 95.3337C16.585 95.1506 16.6578 94.975 16.7873 94.8455C16.9168 94.716 17.0924 94.6432 17.2755 94.6432C18.7806 94.597 20.2743 94.365 21.7225 93.9527C22.0593 93.879 22.3769 93.7355 22.6547 93.5315C22.719 93.4819 22.7689 93.4162 22.7993 93.3409C22.8296 93.2656 22.8393 93.1836 22.8274 93.1034C22.8274 93.0412 22.6547 92.8824 21.978 92.8202C20.7855 92.7201 19.5867 92.7201 18.3942 92.8202L17.531 92.91C17.35 92.9254 17.1701 92.8688 17.0305 92.7524C16.8909 92.6361 16.8028 92.4694 16.7853 92.2885C16.7678 92.1085 16.8216 91.9288 16.9353 91.788C17.0489 91.6473 17.2132 91.5567 17.3929 91.5359L18.263 91.4461C19.3245 91.3279 20.3767 91.1364 21.4118 90.873C22.1576 90.6865 22.8895 90.2791 22.8412 89.8579C22.7928 89.4367 22.1507 89.2088 21.5775 89.1052C20.5395 88.9132 19.4804 88.8621 18.4287 88.9533C17.973 89.0489 17.5118 89.1158 17.0477 89.1535C16.8645 89.1801 16.6783 89.1328 16.5301 89.0221C16.3818 88.9114 16.2836 88.7463 16.257 88.5631C16.2305 88.38 16.2777 88.1938 16.3885 88.0455C16.4992 87.8973 16.6643 87.799 16.8474 87.7725C17.2893 87.6827 17.7382 87.6206 18.187 87.5722C19.2322 87.3463 20.2331 86.9497 21.1494 86.3983C21.5154 86.1774 21.6397 85.9702 21.6466 85.9219C21.6055 85.8648 21.5567 85.8136 21.5016 85.77C20.4036 84.8654 18.6497 85.1278 16.9165 85.5559C16.4124 85.6802 15.8945 85.7838 15.3904 85.8874C13.236 86.2671 11.4406 86.6331 10.2184 88.2282H10.2322Z" fill="#093F68"/>
<path id="Vector_51" d="M85.1953 95.3828H93.8269V100.002H85.1953V95.3828Z" fill="white"/>
<path id="Vector_52" d="M93.8201 100.72H85.1954C85.0123 100.72 84.8366 100.647 84.7071 100.518C84.5776 100.388 84.5049 100.213 84.5049 100.029V95.4098C84.5049 95.2266 84.5776 95.051 84.7071 94.9215C84.8366 94.792 85.0123 94.7192 85.1954 94.7192H93.8201C94.0032 94.7192 94.1789 94.792 94.3084 94.9215C94.4379 95.051 94.5106 95.2266 94.5106 95.4098V100.029C94.5106 100.213 94.4379 100.388 94.3084 100.518C94.1789 100.647 94.0032 100.72 93.8201 100.72ZM85.8859 99.3389H93.1296V96.1003H85.8859V99.3389Z" fill="#093F68"/>
<g id="Group">
<path id="Vector_53" d="M31.9073 43.2132C31.7242 43.2132 31.5485 43.1404 31.419 43.0109C31.2895 42.8814 31.2168 42.7058 31.2168 42.5227V39.5948C31.2168 39.4117 31.2895 39.236 31.419 39.1065C31.5485 38.977 31.7242 38.9043 31.9073 38.9043C32.0905 38.9043 32.2661 38.977 32.3956 39.1065C32.5251 39.236 32.5978 39.4117 32.5978 39.5948V42.5227C32.5978 42.7058 32.5251 42.8814 32.3956 43.0109C32.2661 43.1404 32.0905 43.2132 31.9073 43.2132Z" fill="#DFEAEF"/>
<path id="Vector_54" d="M31.9073 49.5804C31.7242 49.5804 31.5485 49.5076 31.419 49.3781C31.2895 49.2486 31.2168 49.073 31.2168 48.8898V45.962C31.2168 45.7789 31.2895 45.6032 31.419 45.4737C31.5485 45.3442 31.7242 45.2715 31.9073 45.2715C32.0905 45.2715 32.2661 45.3442 32.3956 45.4737C32.5251 45.6032 32.5978 45.7789 32.5978 45.962V48.8898C32.5978 49.073 32.5251 49.2486 32.3956 49.3781C32.2661 49.5076 32.0905 49.5804 31.9073 49.5804Z" fill="#DFEAEF"/>
<path id="Vector_55" d="M36.5554 44.9328H33.6275C33.4444 44.9328 33.2688 44.8601 33.1393 44.7306C33.0098 44.6011 32.937 44.4254 32.937 44.2423C32.937 44.0591 33.0098 43.8835 33.1393 43.754C33.2688 43.6245 33.4444 43.5518 33.6275 43.5518H36.5554C36.7385 43.5518 36.9141 43.6245 37.0436 43.754C37.1731 43.8835 37.2459 44.0591 37.2459 44.2423C37.2459 44.4254 37.1731 44.6011 37.0436 44.7306C36.9141 44.8601 36.7385 44.9328 36.5554 44.9328Z" fill="#DFEAEF"/>
<path id="Vector_56" d="M30.195 44.9328H27.2672C27.084 44.9328 26.9084 44.8601 26.7789 44.7306C26.6494 44.6011 26.5767 44.4254 26.5767 44.2423C26.5767 44.0591 26.6494 43.8835 26.7789 43.754C26.9084 43.6245 27.084 43.5518 27.2672 43.5518H30.195C30.3782 43.5518 30.5538 43.6245 30.6833 43.754C30.8128 43.8835 30.8855 44.0591 30.8855 44.2423C30.8855 44.4254 30.8128 44.6011 30.6833 44.7306C30.5538 44.8601 30.3782 44.9328 30.195 44.9328Z" fill="#DFEAEF"/>
<path id="Vector_57" d="M5.8956 61.574C5.71247 61.574 5.53683 61.5013 5.40733 61.3718C5.27783 61.2423 5.20508 61.0666 5.20508 60.8835V57.9557C5.20508 57.7725 5.27783 57.5969 5.40733 57.4674C5.53683 57.3379 5.71247 57.2651 5.8956 57.2651C6.07874 57.2651 6.25438 57.3379 6.38388 57.4674C6.51337 57.5969 6.58613 57.7725 6.58613 57.9557V60.8835C6.58613 61.0666 6.51337 61.2423 6.38388 61.3718C6.25438 61.5013 6.07874 61.574 5.8956 61.574Z" fill="#DFEAEF"/>
<path id="Vector_58" d="M5.8956 67.9334C5.71247 67.9334 5.53683 67.8606 5.40733 67.7311C5.27783 67.6017 5.20508 67.426 5.20508 67.2429V64.315C5.20508 64.1319 5.27783 63.9563 5.40733 63.8268C5.53683 63.6973 5.71247 63.6245 5.8956 63.6245C6.07874 63.6245 6.25438 63.6973 6.38388 63.8268C6.51337 63.9563 6.58613 64.1319 6.58613 64.315V67.2429C6.58613 67.426 6.51337 67.6017 6.38388 67.7311C6.25438 67.8606 6.07874 67.9334 5.8956 67.9334Z" fill="#DFEAEF"/>
<path id="Vector_59" d="M10.5432 63.2873H7.61533C7.43219 63.2873 7.25655 63.2146 7.12705 63.0851C6.99756 62.9556 6.9248 62.7799 6.9248 62.5968C6.9248 62.4136 6.99756 62.238 7.12705 62.1085C7.25655 61.979 7.43219 61.9062 7.61533 61.9062H10.5432C10.7263 61.9062 10.9019 61.979 11.0314 62.1085C11.1609 62.238 11.2337 62.4136 11.2337 62.5968C11.2337 62.7799 11.1609 62.9556 11.0314 63.0851C10.9019 63.2146 10.7263 63.2873 10.5432 63.2873Z" fill="#DFEAEF"/>
<path id="Vector_60" d="M4.17597 63.2873H1.24814C1.065 63.2873 0.889366 63.2146 0.759867 63.0851C0.630368 62.9556 0.557617 62.7799 0.557617 62.5968C0.557617 62.4136 0.630368 62.238 0.759867 62.1085C0.889366 61.979 1.065 61.9062 1.24814 61.9062H4.17597C4.35911 61.9062 4.53475 61.979 4.66425 62.1085C4.79375 62.238 4.8665 62.4136 4.8665 62.5968C4.8665 62.7799 4.79375 62.9556 4.66425 63.0851C4.53475 63.2146 4.35911 63.2873 4.17597 63.2873Z" fill="#DFEAEF"/>
</g>
<path id="Vector_61" d="M70.6947 54.9452H61.421C60.1817 54.9434 58.9937 54.4503 58.1173 53.5739C57.241 52.6976 56.7479 51.5096 56.7461 50.2703V46.4517C56.7479 45.2124 57.241 44.0244 58.1173 43.1481C58.9937 42.2718 60.1817 41.7787 61.421 41.7769H70.6947C71.934 41.7787 73.122 42.2718 73.9983 43.1481C74.8746 44.0244 75.3678 45.2124 75.3696 46.4517V50.2703C75.3678 51.5096 74.8746 52.6976 73.9983 53.5739C73.122 54.4503 71.934 54.9434 70.6947 54.9452ZM61.414 43.1579C60.541 43.1597 59.7043 43.5073 59.087 44.1247C58.4697 44.742 58.1221 45.5787 58.1202 46.4517V50.2703C58.1221 51.1433 58.4697 51.9801 59.087 52.5974C59.7043 53.2147 60.541 53.5623 61.414 53.5641H70.6947C71.5677 53.5623 72.4045 53.2147 73.0218 52.5974C73.6391 51.9801 73.9867 51.1433 73.9885 50.2703V46.4517C73.9867 45.5787 73.6391 44.742 73.0218 44.1247C72.4045 43.5073 71.5677 43.1597 70.6947 43.1579H61.414Z" fill="#093F68"/>
<path id="Vector_62" d="M95.3598 54.9452H86.0792C84.8399 54.9434 83.6519 54.4503 82.7756 53.5739C81.8992 52.6976 81.4061 51.5096 81.4043 50.2703V46.4517C81.4061 45.2124 81.8992 44.0244 82.7756 43.1481C83.6519 42.2718 84.8399 41.7787 86.0792 41.7769H95.3598C96.5991 41.7787 97.7871 42.2718 98.6635 43.1481C99.5398 44.0244 100.033 45.2124 100.035 46.4517V50.2703C100.033 51.5096 99.5398 52.6976 98.6635 53.5739C97.7871 54.4503 96.5991 54.9434 95.3598 54.9452ZM86.0792 43.1579C85.2062 43.1597 84.3694 43.5073 83.7521 44.1247C83.1348 44.742 82.7872 45.5787 82.7853 46.4517V50.2703C82.7872 51.1433 83.1348 51.9801 83.7521 52.5974C84.3694 53.2147 85.2062 53.5623 86.0792 53.5641H95.3598C96.2329 53.5623 97.0696 53.2147 97.6869 52.5974C98.3042 51.9801 98.6518 51.1433 98.6537 50.2703V46.4517C98.6518 45.5787 98.3042 44.742 97.6869 44.1247C97.0696 43.5073 96.2329 43.1597 95.3598 43.1579H86.0792Z" fill="#093F68"/>
<path id="Vector_63" d="M82.0951 48.1157C81.9402 48.1168 81.7894 48.0657 81.667 47.9707C79.0016 45.8992 75.7077 47.9224 75.5696 47.9707C75.4996 48.0508 75.412 48.1136 75.3137 48.1543C75.2154 48.1949 75.109 48.2123 75.0028 48.205C74.8967 48.1978 74.7937 48.1661 74.7018 48.1124C74.6099 48.0588 74.5317 47.9847 74.4732 47.8958C74.4147 47.807 74.3775 47.7058 74.3645 47.6002C74.3516 47.4946 74.3632 47.3874 74.3985 47.2871C74.4338 47.1867 74.4917 47.0958 74.5679 47.0216C74.6441 46.9473 74.7364 46.8917 74.8377 46.859C75.0103 46.7485 79.0913 44.1936 82.537 46.859C82.6511 46.9475 82.7346 47.0695 82.7757 47.2079C82.8168 47.3463 82.8134 47.4941 82.7662 47.6305C82.7189 47.7669 82.6301 47.8851 82.5122 47.9684C82.3943 48.0518 82.2533 48.096 82.1089 48.095L82.0951 48.1157Z" fill="#093F68"/>
<path id="Vector_64" d="M57.4364 45.9689H51.1803C50.9971 45.9689 50.8215 45.8962 50.692 45.7667C50.5625 45.6372 50.4897 45.4616 50.4897 45.2784C50.4897 45.0953 50.5625 44.9196 50.692 44.7901C50.8215 44.6606 50.9971 44.5879 51.1803 44.5879H57.4364C57.6196 44.5879 57.7952 44.6606 57.9247 44.7901C58.0542 44.9196 58.127 45.0953 58.127 45.2784C58.127 45.4616 58.0542 45.6372 57.9247 45.7667C57.7952 45.8962 57.6196 45.9689 57.4364 45.9689Z" fill="#093F68"/>
<path id="Vector_65" d="M105.718 45.9689H99.4615C99.2784 45.9689 99.1027 45.8962 98.9732 45.7667C98.8437 45.6372 98.771 45.4616 98.771 45.2784C98.771 45.0953 98.8437 44.9196 98.9732 44.7901C99.1027 44.6606 99.2784 44.5879 99.4615 44.5879H105.718C105.901 44.5879 106.076 44.6606 106.206 44.7901C106.335 44.9196 106.408 45.0953 106.408 45.2784C106.408 45.4616 106.335 45.6372 106.206 45.7667C106.076 45.8962 105.901 45.9689 105.718 45.9689Z" fill="#093F68"/>
</g>
</svg>
