<svg width="152" height="155" viewBox="0 0 152 155" fill="none" xmlns="http://www.w3.org/2000/svg">
<g id="&#240;&#159;&#166;&#134; illustration &#34;Quality Check&#34;">
<path id="Vector" d="M146.066 100.03L130.428 101.664L127.061 117.596C127.061 117.596 119.201 107.792 116.326 103.127C113.956 99.3191 110.116 95.667 103.882 95.667H79.1095C77.2052 95.667 75.3196 96.0429 73.5608 96.7731C71.8021 97.5033 70.2048 98.5736 68.8605 99.9224C67.5162 101.271 66.4514 102.872 65.7271 104.633C65.0028 106.395 64.6333 108.281 64.6398 110.186V154.224H114.422V131.257C114.422 131.257 123.164 143.235 131.032 141.666C148.149 139.272 146.989 108.756 146.066 100.03Z" fill="#68E1FD"/>
<path id="Vector_2" d="M114.423 155H64.6409C64.4242 155 64.2164 154.914 64.0632 154.761C63.91 154.608 63.8239 154.4 63.8239 154.183V110.186C63.8282 106.133 65.4402 102.247 68.3061 99.3811C71.1719 96.5152 75.0577 94.9033 79.1106 94.8989H103.883C109.357 94.8989 113.778 97.538 117.021 102.742C119.203 106.256 124.374 112.915 126.621 115.774L129.595 101.501C129.632 101.333 129.72 101.182 129.848 101.067C129.976 100.953 130.136 100.882 130.306 100.863L145.952 99.2292C146.059 99.2179 146.167 99.2277 146.27 99.2582C146.373 99.2886 146.469 99.339 146.552 99.4065C146.636 99.4741 146.705 99.5574 146.757 99.6517C146.808 99.7461 146.84 99.8496 146.851 99.9564C147.072 102.056 148.077 113.029 146.083 123.389C143.853 134.991 138.82 141.413 131.115 142.491C124.775 143.758 118.1 137.001 115.207 133.602V154.199C115.203 154.408 115.12 154.607 114.974 154.755C114.828 154.904 114.631 154.992 114.423 155ZM65.458 153.366H113.606V131.257C113.606 131.085 113.661 130.917 113.762 130.778C113.863 130.638 114.006 130.534 114.17 130.481C114.333 130.429 114.508 130.429 114.67 130.482C114.833 130.535 114.975 130.637 115.077 130.775C115.166 130.898 123.606 142.312 130.878 140.865C147.815 138.496 145.822 106.607 145.331 100.929L131.099 102.424L127.831 117.776C127.798 117.927 127.723 118.066 127.614 118.176C127.506 118.286 127.368 118.363 127.217 118.398C127.067 118.433 126.909 118.425 126.763 118.374C126.617 118.323 126.489 118.232 126.393 118.111C126.074 117.711 118.467 108.184 115.599 103.568C112.732 98.9514 108.728 96.4922 103.851 96.4922H79.1106C77.3146 96.4932 75.5364 96.8484 73.8778 97.5375C72.2192 98.2265 70.7128 99.2359 69.4447 100.508C68.1766 101.78 67.1717 103.289 66.4877 104.95C65.8036 106.61 65.4537 108.39 65.458 110.186V153.366Z" fill="#093F68"/>
<path id="Vector_3" d="M86.7095 90.3228H97.4127V96.4832C97.4127 97.688 96.9341 98.8435 96.0821 99.6954C95.2302 100.547 94.0747 101.026 92.8699 101.026H91.2359C90.0311 101.026 88.8756 100.547 88.0237 99.6954C87.1717 98.8435 86.6931 97.688 86.6931 96.4832V90.3228H86.7095Z" fill="#FFC9B0"/>
<path id="Vector_4" d="M92.8289 101.844H91.1948C89.774 101.842 88.412 101.277 87.4073 100.272C86.4026 99.2672 85.8372 97.9052 85.8351 96.4843V90.3239C85.8351 90.1072 85.9211 89.8994 86.0744 89.7461C86.2276 89.5929 86.4354 89.5068 86.6521 89.5068H97.4043C97.621 89.5068 97.8288 89.5929 97.982 89.7461C98.1353 89.8994 98.2213 90.1072 98.2213 90.3239V96.4843C98.2203 97.1906 98.0798 97.8898 97.808 98.5417C97.5363 99.1936 97.1385 99.7855 96.6376 100.283C96.1366 100.781 95.5423 101.175 94.8887 101.443C94.2352 101.711 93.5352 101.847 92.8289 101.844ZM87.4936 91.1409V96.4843C87.4936 97.4724 87.8862 98.4201 88.5849 99.1188C89.2836 99.8175 90.2312 100.21 91.2193 100.21H92.8534C93.8415 100.21 94.7892 99.8175 95.4879 99.1188C96.1866 98.4201 96.5791 97.4724 96.5791 96.4843V91.1409H87.4936Z" fill="#093F68"/>
<path id="Vector_5" d="M54.4275 62.5278C53.9046 62.5278 51.6087 49.6431 51.3228 48.3849C49.9746 42.396 47.9321 36.0313 49.1168 29.9443C49.4453 27.6213 50.2611 25.3938 51.5107 23.4081C52.8506 21.4962 55.0811 20.0582 57.4097 20.238C56.9031 20.238 60.3347 13.7834 60.8086 13.2686C62.661 11.4179 64.6492 9.70829 66.7566 8.15398C71.5854 4.49265 77.2849 2.1526 83.2934 1.3644C93.0055 -0.0208921 102.911 1.34046 111.89 5.29435C118.606 8.22751 124.848 12.6477 128.982 18.6692C137.414 31.0228 132.487 47.9273 130.069 61.531L123.41 60.3463L54.4275 62.5278Z" fill="#725858"/>
<path id="Vector_6" d="M54.3053 63.3532C53.4882 63.3532 53.2186 62.8057 50.9554 50.8852C50.7348 49.7086 50.5714 48.8426 50.506 48.5648C50.2854 47.6089 50.0567 46.6366 49.8197 45.6561C48.5615 40.4516 47.2624 35.0347 48.2919 29.7893C48.6439 27.3552 49.5041 25.0225 50.8165 22.9425C51.4699 21.9462 52.3411 21.1115 53.3645 20.5015C54.3879 19.8914 55.5366 19.522 56.7237 19.4211C57.686 17.095 58.8421 14.8539 60.1797 12.7214C61.735 11.1217 63.4183 9.65163 65.2127 8.32574L66.2258 7.5087C71.1617 3.75105 76.9954 1.3511 83.1466 0.547552C93.0082 -0.881581 103.073 0.500393 112.184 4.53469C119.75 7.80284 125.78 12.558 129.636 18.2037C137.161 29.2337 134.359 43.5727 131.883 56.2204C131.523 58.0751 131.164 59.8971 130.853 61.6619C130.835 61.7676 130.795 61.8686 130.738 61.9591C130.68 62.0495 130.605 62.1277 130.517 62.1892C130.429 62.2507 130.329 62.2942 130.225 62.3172C130.12 62.3403 130.011 62.3425 129.906 62.3237L123.369 61.1798L54.4278 63.345H54.3053V63.3532ZM57.026 21.0552C56.0531 21.1166 55.1081 21.405 54.2668 21.8974C53.4254 22.3897 52.7111 23.0722 52.181 23.8903C50.9946 25.7843 50.2156 27.9046 49.8933 30.1161C48.9373 35.0183 50.1956 40.2555 51.4048 45.2967C51.6417 46.2771 51.8787 47.2575 52.0993 48.2216C52.1646 48.5076 52.3362 49.3982 52.5568 50.591C53.0634 53.2628 54.3379 59.9788 54.8935 61.7109L123.386 59.5294C123.44 59.5211 123.495 59.5211 123.549 59.5294L129.383 60.5507C129.661 59.031 129.971 57.4705 130.281 55.8854C132.692 43.5482 135.421 29.5687 128.28 19.1188C124.603 13.7264 118.81 9.19997 111.539 6.04621C102.697 2.17143 92.9517 0.830603 83.3918 2.17345C77.5251 2.93368 71.9594 5.21519 67.2471 8.79145L66.2258 9.60849C64.5012 10.8827 62.8811 12.2924 61.3808 13.8244C60.1557 15.8192 59.0877 17.9062 58.1862 20.0666C58.1985 20.1478 58.1985 20.2304 58.1862 20.3117C58.1779 20.4191 58.1485 20.5238 58.0996 20.6198C58.0508 20.7158 57.9834 20.8012 57.9014 20.8711C57.8194 20.9409 57.7243 20.9939 57.6218 21.0269C57.5192 21.0599 57.4112 21.0723 57.3038 21.0633L57.026 21.0552Z" fill="#093F68"/>
<path id="Vector_7" d="M61.4786 71.4827C67.2184 71.4827 71.8713 67.4735 71.8713 62.528C71.8713 57.5824 67.2184 53.5732 61.4786 53.5732C55.7389 53.5732 51.0859 57.5824 51.0859 62.528C51.0859 67.4735 55.7389 71.4827 61.4786 71.4827Z" fill="#FFC9B0"/>
<path id="Vector_8" d="M61.4788 72.3076C55.2938 72.3076 50.269 67.9201 50.269 62.5032C50.269 57.0862 55.2938 52.6987 61.4788 52.6987C67.6637 52.6987 72.6885 57.0862 72.6885 62.5032C72.6885 67.9201 67.6637 72.3076 61.4788 72.3076ZM61.4788 54.39C56.2007 54.39 51.9031 58.0422 51.9031 62.5604C51.9031 67.0786 56.2007 70.7307 61.4788 70.7307C66.7568 70.7307 71.0545 67.0786 71.0545 62.5604C71.0545 58.0422 66.7568 54.39 61.4788 54.39Z" fill="#093F68"/>
<path id="Vector_9" d="M122.086 71.4827C127.826 71.4827 132.479 67.4735 132.479 62.528C132.479 57.5824 127.826 53.5732 122.086 53.5732C116.347 53.5732 111.694 57.5824 111.694 62.528C111.694 67.4735 116.347 71.4827 122.086 71.4827Z" fill="#FFC9B0"/>
<path id="Vector_10" d="M122.086 72.3076C115.902 72.3076 110.869 67.9201 110.869 62.5032C110.869 57.0862 115.902 52.6987 122.086 52.6987C128.271 52.6987 133.296 57.0862 133.296 62.5032C133.296 67.9201 128.263 72.3076 122.086 72.3076ZM122.086 54.39C116.8 54.39 112.503 58.0422 112.503 62.5604C112.503 67.0786 116.8 70.7307 122.086 70.7307C127.373 70.7307 131.662 67.0786 131.662 62.5604C131.662 58.0422 127.365 54.39 122.086 54.39Z" fill="#093F68"/>
<path id="Vector_11" d="M92.0599 91.7296C84.1883 91.7314 76.6041 88.7719 70.8142 83.4391C65.0243 78.1064 61.4524 70.7906 60.8082 62.9454C60.2527 56.1722 58.88 49.7993 61.0779 43.1568C61.6609 41.0517 62.8145 39.1487 64.4114 37.6582C66.0454 36.2774 68.5701 35.7054 70.4656 36.7512C71.585 32.4128 76.0787 29.6267 80.5724 29.1201C85.0661 28.6136 89.4617 29.9372 93.7512 31.1872C101.726 33.5853 109.481 36.6632 116.93 40.3871C125.763 44.7827 123.467 52.0298 123.467 60.3718C123.468 64.4942 122.656 68.5763 121.077 72.3845C119.499 76.1927 117.185 79.6522 114.267 82.5649C111.35 85.4776 107.887 87.7863 104.076 89.3589C100.266 90.9316 96.1823 91.7372 92.0599 91.7296Z" fill="#FFC9B0"/>
<path id="Vector_12" d="M92.0596 92.5461C83.9827 92.5467 76.2011 89.5095 70.2601 84.0377C64.3191 78.5659 60.6533 71.0599 59.9909 63.0102C59.8846 61.7193 59.7539 60.4447 59.615 59.1702C59.0268 53.647 58.4712 48.4343 60.3095 42.8948C61.2082 40.1741 62.3439 38.3112 63.8881 37.0285C64.7104 36.3231 65.6922 35.8287 66.7485 35.5881C67.8049 35.3475 68.9039 35.3679 69.9505 35.6477C71.5846 31.2275 76.2662 28.7846 80.4413 28.2943C85.1229 27.7551 89.8127 29.1114 93.9469 30.386C101.968 32.7985 109.766 35.8955 117.257 39.643C125.002 43.4994 124.692 49.6108 124.365 56.0818C124.3 57.4626 124.226 58.9005 124.226 60.3549C124.222 68.8869 120.832 77.0687 114.802 83.1041C108.771 89.1395 100.592 92.5353 92.0596 92.5461ZM68.2674 37.0285C67.0444 37.0508 65.8667 37.4953 64.9339 38.2867C63.6349 39.3652 62.6626 40.9911 61.8537 43.4095C60.1298 48.614 60.669 53.6552 61.2409 58.9986C61.3798 60.2813 61.5106 61.5723 61.6249 62.8795C62.0434 68.0134 63.7552 72.9576 66.6007 77.2512C69.411 81.4293 73.1993 84.8577 77.6362 87.2385C82.0731 89.6193 87.0243 90.8804 92.0596 90.912C100.16 90.9012 107.924 87.6764 113.649 81.9457C119.374 76.215 122.59 68.4468 122.592 60.3467C122.592 58.8515 122.666 57.3972 122.739 55.9919C123.058 49.5536 123.311 44.4717 116.53 41.0973C109.124 37.39 101.413 34.3284 93.4812 31.9465C89.4941 30.7536 84.984 29.4137 80.621 29.9121C76.8627 30.3369 72.3281 32.7145 71.2578 36.9304C71.227 37.0512 71.169 37.1634 71.0882 37.2584C71.0074 37.3533 70.906 37.4285 70.7916 37.4782C70.6773 37.5279 70.5531 37.5507 70.4285 37.545C70.304 37.5393 70.1824 37.5051 70.0731 37.4452C69.5154 37.1577 68.8947 37.0145 68.2674 37.0285Z" fill="#093F68"/>
<path id="Vector_13" d="M77.5414 58.7121C79.1433 58.7121 80.4419 57.4135 80.4419 55.8116C80.4419 54.2097 79.1433 52.9111 77.5414 52.9111C75.9395 52.9111 74.641 54.2097 74.641 55.8116C74.641 57.4135 75.9395 58.7121 77.5414 58.7121Z" fill="#093F68"/>
<path id="Vector_14" d="M107.486 58.7121C109.087 58.7121 110.386 57.4135 110.386 55.8116C110.386 54.2097 109.087 52.9111 107.486 52.9111C105.884 52.9111 104.585 54.2097 104.585 55.8116C104.585 57.4135 105.884 58.7121 107.486 58.7121Z" fill="#093F68"/>
<path id="Vector_15" d="M103.499 69.8242C103.499 72.8579 102.294 75.7673 100.149 77.9125C98.0037 80.0576 95.0943 81.2627 92.0606 81.2627C89.0269 81.2627 86.1175 80.0576 83.9724 77.9125C81.8272 75.7673 80.6221 72.8579 80.6221 69.8242H103.499Z" fill="white"/>
<path id="Vector_16" d="M92.0601 82.0799C88.8097 82.0799 85.6924 80.7887 83.3941 78.4903C81.0957 76.192 79.8045 73.0747 79.8045 69.8244C79.8045 69.6077 79.8906 69.3999 80.0438 69.2466C80.197 69.0934 80.4048 69.0073 80.6215 69.0073H103.499C103.715 69.0073 103.923 69.0934 104.076 69.2466C104.23 69.3999 104.316 69.6077 104.316 69.8244C104.316 73.0747 103.024 76.192 100.726 78.4903C98.4277 80.7887 95.3104 82.0799 92.0601 82.0799ZM81.4386 70.6414C81.6353 73.3163 82.8367 75.8178 84.8016 77.6435C86.7664 79.4692 89.3493 80.484 92.0315 80.484C94.7136 80.484 97.2965 79.4692 99.2614 77.6435C101.226 75.8178 102.428 73.3163 102.624 70.6414H81.4386Z" fill="#093F68"/>
<path id="Vector_17" d="M91.905 66.3928C90.9633 66.39 90.0233 66.3107 89.0944 66.1558C88.9871 66.137 88.8846 66.0973 88.7926 66.0389C88.7007 65.9805 88.6211 65.9046 88.5586 65.8154C88.496 65.7263 88.4515 65.6257 88.4278 65.5194C88.4041 65.413 88.4016 65.3031 88.4203 65.1958C88.4391 65.0885 88.4789 64.986 88.5373 64.894C88.5957 64.8021 88.6716 64.7225 88.7608 64.6599C88.8499 64.5974 88.9505 64.5529 89.0568 64.5292C89.1631 64.5055 89.2731 64.503 89.3804 64.5217C90.833 64.7624 92.3152 64.7624 93.7678 64.5217C94.0211 63.7701 92.91 60.5755 91.3167 57.5443C91.2219 57.3531 91.2057 57.1324 91.2715 56.9295C91.3373 56.7265 91.4798 56.5573 91.6687 56.458C91.8576 56.3588 92.0778 56.3374 92.2823 56.3984C92.4868 56.4593 92.6592 56.5979 92.7629 56.7844C93.5799 58.2959 96.031 63.3779 95.214 65.2489C95.1201 65.4499 94.9827 65.6275 94.8118 65.7688C94.6408 65.9101 94.4405 66.0116 94.2254 66.0659C93.4671 66.2636 92.6884 66.3733 91.905 66.3928Z" fill="#093F68"/>
<path id="Vector_18" d="M69.6659 46.9304C69.4514 46.9417 69.2367 46.9105 69.0341 46.8388C68.8315 46.7671 68.6451 46.6562 68.4854 46.5124C68.3257 46.3687 68.1958 46.1949 68.1033 46.0009C68.0108 45.807 67.9574 45.5967 67.9461 45.3821C67.9348 45.1675 67.9659 44.9528 68.0376 44.7502C68.1094 44.5477 68.2203 44.3612 68.364 44.2015C68.5078 44.0418 68.6816 43.912 68.8756 43.8195C69.0695 43.7269 69.2798 43.6735 69.4944 43.6622L83.2696 42.2161C83.703 42.1717 84.1363 42.3012 84.4741 42.5763C84.812 42.8513 85.0268 43.2493 85.0712 43.6827C85.1156 44.1161 84.986 44.5493 84.711 44.8872C84.436 45.225 84.038 45.4398 83.6046 45.4842L69.8375 46.9304H69.6659Z" fill="#093F68"/>
<path id="Vector_19" d="M116.93 48.213C116.827 48.2211 116.723 48.2211 116.62 48.213L103.016 45.6393C102.59 45.5581 102.214 45.311 101.971 44.9525C101.727 44.5939 101.636 44.1533 101.717 43.7275C101.798 43.3017 102.045 42.9256 102.404 42.682C102.763 42.4384 103.203 42.3471 103.629 42.4284L117.224 45.0021C117.658 45.0411 118.058 45.2506 118.337 45.5847C118.616 45.9187 118.75 46.3498 118.711 46.7832C118.672 47.2166 118.463 47.6167 118.129 47.8956C117.795 48.1745 117.364 48.3092 116.93 48.2702V48.213Z" fill="#093F68"/>
<path id="Vector_20" d="M93.9719 102.187H90.6548C89.3823 102.187 88.3507 103.219 88.3507 104.491V106.125C88.3507 107.398 89.3823 108.429 90.6548 108.429H93.9719C95.2444 108.429 96.276 107.398 96.276 106.125V104.491C96.276 103.219 95.2444 102.187 93.9719 102.187Z" fill="#F56132"/>
<path id="Vector_21" d="M93.9799 109.246H90.6546C89.8268 109.246 89.0329 108.917 88.4476 108.332C87.8623 107.746 87.5335 106.953 87.5335 106.125V104.491C87.5356 103.664 87.8652 102.871 88.45 102.286C89.0349 101.701 89.8275 101.372 90.6546 101.37H93.9799C94.807 101.372 95.5996 101.701 96.1844 102.286C96.7693 102.871 97.0988 103.664 97.101 104.491V106.125C97.0988 106.952 96.7693 107.744 96.1844 108.329C95.5996 108.914 94.807 109.244 93.9799 109.246ZM90.6546 103.004C90.2608 103.006 89.8839 103.163 89.6055 103.442C89.3271 103.72 89.1697 104.097 89.1676 104.491V106.125C89.1697 106.518 89.3271 106.895 89.6055 107.174C89.8839 107.452 90.2608 107.61 90.6546 107.612H93.9799C94.3736 107.61 94.7506 107.452 95.029 107.174C95.3074 106.895 95.4648 106.518 95.4669 106.125V104.491C95.4648 104.097 95.3074 103.72 95.029 103.442C94.7506 103.163 94.3736 103.006 93.9799 103.004H90.6546Z" fill="#093F68"/>
<path id="Vector_22" d="M90.0415 108.428L85.0413 136.788L92.3129 146.322L97.7707 136.314L94.5924 108.428H90.0415Z" fill="#F56132"/>
<path id="Vector_23" d="M92.3133 147.14C92.1885 147.14 92.0655 147.111 91.9536 147.056C91.8417 147.001 91.744 146.92 91.6679 146.822L84.3881 137.279C84.3196 137.189 84.2704 137.086 84.2437 136.976C84.217 136.866 84.2133 136.752 84.2328 136.641L89.2331 108.282C89.2679 108.092 89.3691 107.92 89.5187 107.797C89.6683 107.674 89.8567 107.609 90.0501 107.612H94.601C94.803 107.611 94.9983 107.684 95.1492 107.819C95.3 107.953 95.3958 108.138 95.418 108.339L98.5473 136.225C98.563 136.39 98.5319 136.557 98.4574 136.707L92.9996 146.715C92.9347 146.835 92.8409 146.937 92.7267 147.011C92.6126 147.085 92.4817 147.129 92.346 147.14H92.3133ZM85.9077 136.576L92.1989 144.828L96.9132 136.151L93.8493 109.246H90.7119L85.9077 136.576Z" fill="#093F68"/>
<path id="Vector_24" d="M71.0623 74.0645H20.21C18.2336 74.0645 16.6314 75.6667 16.6314 77.6431V140.963C16.6314 142.94 18.2336 144.542 20.21 144.542H71.0623C73.0388 144.542 74.641 142.94 74.641 140.963V77.6431C74.641 75.6667 73.0388 74.0645 71.0623 74.0645Z" fill="#FFBC0E"/>
<path id="Vector_25" d="M71.0618 145.368H20.2094C19.0443 145.366 17.9275 144.902 17.1036 144.078C16.2797 143.254 15.8159 142.137 15.8138 140.972V77.6437C15.8159 76.4786 16.2797 75.3618 17.1036 74.5379C17.9275 73.714 19.0443 73.2502 20.2094 73.248H71.0618C72.2269 73.2502 73.3437 73.714 74.1676 74.5379C74.9915 75.3618 75.4553 76.4786 75.4575 77.6437V140.972C75.4553 142.137 74.9915 143.254 74.1676 144.078C73.3437 144.902 72.2269 145.366 71.0618 145.368ZM20.2094 74.8821C19.477 74.8821 18.7746 75.1731 18.2567 75.691C17.7388 76.2089 17.4478 76.9113 17.4478 77.6437V140.972C17.4478 141.705 17.7388 142.407 18.2567 142.925C18.7746 143.443 19.477 143.734 20.2094 143.734H71.0618C71.7935 143.732 72.4947 143.44 73.0121 142.923C73.5296 142.405 73.8212 141.704 73.8234 140.972V77.6437C73.8212 76.912 73.5296 76.2108 73.0121 75.6934C72.4947 75.1759 71.7935 74.8843 71.0618 74.8821H20.2094Z" fill="#093F68"/>
<path id="Vector_26" d="M21.656 77.3247H69.616V138.668H21.656V77.3247Z" fill="white"/>
<path id="Vector_27" d="M69.6162 139.484H21.6561C21.4394 139.484 21.2316 139.398 21.0784 139.245C20.9252 139.091 20.8391 138.884 20.8391 138.667V77.3239C20.8391 77.1072 20.9252 76.8994 21.0784 76.7461C21.2316 76.5929 21.4394 76.5068 21.6561 76.5068H69.6162C69.8329 76.5068 70.0407 76.5929 70.1939 76.7461C70.3471 76.8994 70.4332 77.1072 70.4332 77.3239V138.667C70.4332 138.884 70.3471 139.091 70.1939 139.245C70.0407 139.398 69.8329 139.484 69.6162 139.484ZM22.4732 137.85H68.7991V78.1409H22.4732V137.85Z" fill="#093F68"/>
<path id="Vector_28" d="M55.5957 70.7153H35.6764C34.3046 70.7153 33.1926 71.8274 33.1926 73.1991V76.9248C33.1926 78.2966 34.3046 79.4086 35.6764 79.4086H55.5957C56.9675 79.4086 58.0795 78.2966 58.0795 76.9248V73.1991C58.0795 71.8274 56.9675 70.7153 55.5957 70.7153Z" fill="#68E1FD"/>
<path id="Vector_29" d="M55.5962 80.2249H35.6769C34.8101 80.2249 33.9789 79.8805 33.366 79.2677C32.7531 78.6548 32.4088 77.8235 32.4088 76.9567V73.231C32.4088 72.3643 32.7531 71.533 33.366 70.9201C33.9789 70.3072 34.8101 69.9629 35.6769 69.9629H55.5962C56.463 69.9629 57.2943 70.3072 57.9072 70.9201C58.5201 71.533 58.8644 72.3643 58.8644 73.231V76.9567C58.8644 77.8235 58.5201 78.6548 57.9072 79.2677C57.2943 79.8805 56.463 80.2249 55.5962 80.2249ZM35.6769 71.5316C35.2435 71.5316 34.8279 71.7038 34.5214 72.0102C34.215 72.3167 34.0428 72.7323 34.0428 73.1657V76.8914C34.0428 77.3247 34.215 77.7404 34.5214 78.0468C34.8279 78.3533 35.2435 78.5254 35.6769 78.5254H55.5962C56.0296 78.5254 56.4453 78.3533 56.7517 78.0468C57.0582 77.7404 57.2303 77.3247 57.2303 76.8914V73.1657C57.2303 72.7323 57.0582 72.3167 56.7517 72.0102C56.4453 71.7038 56.0296 71.5316 55.5962 71.5316H35.6769Z" fill="#093F68"/>
<path id="Vector_30" d="M139.227 90.3732V80.8628C139.227 79.8011 138.806 78.7828 138.055 78.032C137.304 77.2812 136.286 76.8594 135.224 76.8594C134.162 76.8594 133.144 77.2812 132.393 78.032C131.642 78.7828 131.22 79.8011 131.22 80.8628V92.8733C130.313 94.3521 129.782 96.6889 129.782 100.398C129.782 110.464 134.48 112.204 139.293 112.204C144.105 112.204 150.069 108.462 150.658 105.611C151.753 100.431 143.713 90.7817 139.227 90.3732Z" fill="#FFC9B0"/>
<path id="Vector_31" d="M139.325 113.021C134.897 113.021 128.998 111.714 128.998 100.398C128.998 96.9418 129.455 94.4253 130.403 92.7095V80.8625C130.403 79.584 130.911 78.3579 131.815 77.4539C132.719 76.5499 133.945 76.042 135.224 76.042C136.502 76.042 137.728 76.5499 138.632 77.4539C139.536 78.3579 140.044 79.584 140.044 80.8625V89.6865C142.757 90.381 145.968 93.3795 148.108 96.2228C149.367 97.9222 152.194 102.244 151.491 105.741C150.788 109.238 144.301 113.021 139.325 113.021ZM132.045 92.685C132.097 92.8932 132.065 93.1133 131.956 93.2978C131.073 94.744 130.64 97.0643 130.64 100.398C130.64 110.08 135.036 111.387 139.333 111.387C143.631 111.387 149.407 107.849 149.898 105.447C150.298 103.494 149.081 100.349 146.801 97.2277C144.301 93.8534 141.155 91.3696 139.162 91.1817C138.958 91.1633 138.769 91.0691 138.631 90.9179C138.493 90.7666 138.417 90.5692 138.418 90.3646V80.8625C138.418 80.0174 138.083 79.2069 137.485 78.6093C136.887 78.0118 136.077 77.6761 135.232 77.6761C134.387 77.6761 133.576 78.0118 132.979 78.6093C132.381 79.2069 132.045 80.0174 132.045 80.8625V92.685Z" fill="#093F68"/>
<path id="Vector_32" d="M148.656 88.2231H135.805C134.523 88.2231 133.484 89.262 133.484 90.5435V90.5517C133.484 91.8332 134.523 92.8721 135.805 92.8721H148.656C149.938 92.8721 150.977 91.8332 150.977 90.5517V90.5435C150.977 89.262 149.938 88.2231 148.656 88.2231Z" fill="#FFC9B0"/>
<path id="Vector_33" d="M148.657 93.6894H135.813C135.387 93.7112 134.961 93.646 134.561 93.498C134.161 93.3499 133.795 93.122 133.486 92.8282C133.177 92.5343 132.93 92.1806 132.762 91.7886C132.594 91.3966 132.507 90.9745 132.507 90.5479C132.507 90.1214 132.594 89.6992 132.762 89.3072C132.93 88.9152 133.177 88.5616 133.486 88.2677C133.795 87.9739 134.161 87.746 134.561 87.5979C134.961 87.4498 135.387 87.3847 135.813 87.4064H148.657C149.083 87.3847 149.509 87.4498 149.909 87.5979C150.309 87.746 150.675 87.9739 150.984 88.2677C151.293 88.5616 151.539 88.9152 151.708 89.3072C151.876 89.6992 151.963 90.1214 151.963 90.5479C151.963 90.9745 151.876 91.3966 151.708 91.7886C151.539 92.1806 151.293 92.5343 150.984 92.8282C150.675 93.122 150.309 93.3499 149.909 93.498C149.509 93.646 149.083 93.7112 148.657 93.6894ZM135.813 89.0405C135.606 89.0252 135.397 89.0529 135.201 89.1217C135.005 89.1905 134.825 89.2991 134.673 89.4406C134.521 89.582 134.399 89.7534 134.316 89.9439C134.233 90.1345 134.19 90.3401 134.19 90.5479C134.19 90.7558 134.233 90.9614 134.316 91.1519C134.399 91.3425 134.521 91.5138 134.673 91.6553C134.825 91.7968 135.005 91.9053 135.201 91.9742C135.397 92.043 135.606 92.0706 135.813 92.0554H148.657C148.864 92.0706 149.072 92.043 149.268 91.9742C149.464 91.9053 149.644 91.7968 149.797 91.6553C149.949 91.5138 150.07 91.3425 150.153 91.1519C150.236 90.9614 150.279 90.7558 150.279 90.5479C150.279 90.3401 150.236 90.1345 150.153 89.9439C150.07 89.7534 149.949 89.582 149.797 89.4406C149.644 89.2991 149.464 89.1905 149.268 89.1217C149.072 89.0529 148.864 89.0252 148.657 89.0405H135.813Z" fill="#093F68"/>
<path id="Vector_34" d="M148.656 92.8726H135.805C134.523 92.8726 133.484 93.9114 133.484 95.1929V95.2011C133.484 96.4826 134.523 97.5215 135.805 97.5215H148.656C149.938 97.5215 150.977 96.4826 150.977 95.2011V95.1929C150.977 93.9114 149.938 92.8726 148.656 92.8726Z" fill="#FFC9B0"/>
<path id="Vector_35" d="M148.657 98.33H135.813C134.981 98.33 134.183 97.9995 133.594 97.4111C133.006 96.8227 132.675 96.0247 132.675 95.1926C132.675 94.3605 133.006 93.5625 133.594 92.9741C134.183 92.3857 134.981 92.0552 135.813 92.0552H148.657C149.489 92.0552 150.287 92.3857 150.875 92.9741C151.464 93.5625 151.794 94.3605 151.794 95.1926C151.794 96.0247 151.464 96.8227 150.875 97.4111C150.287 97.9995 149.489 98.33 148.657 98.33ZM135.813 93.6892C135.414 93.6892 135.032 93.8476 134.75 94.1296C134.468 94.4115 134.309 94.7939 134.309 95.1926C134.309 95.5913 134.468 95.9737 134.75 96.2556C135.032 96.5376 135.414 96.696 135.813 96.696H148.657C149.055 96.696 149.438 96.5376 149.72 96.2556C150.002 95.9737 150.16 95.5913 150.16 95.1926C150.16 94.7939 150.002 94.4115 149.72 94.1296C149.438 93.8476 149.055 93.6892 148.657 93.6892H135.813Z" fill="#093F68"/>
<path id="Vector_36" d="M148.656 97.5137H135.805C134.523 97.5137 133.484 98.5525 133.484 99.8341V99.8422C133.484 101.124 134.523 102.163 135.805 102.163H148.656C149.938 102.163 150.977 101.124 150.977 99.8422V99.8341C150.977 98.5525 149.938 97.5137 148.656 97.5137Z" fill="#FFC9B0"/>
<path id="Vector_37" d="M148.657 102.979H135.813C135.387 103.001 134.961 102.936 134.561 102.788C134.161 102.64 133.795 102.412 133.486 102.118C133.177 101.824 132.93 101.471 132.762 101.079C132.594 100.687 132.507 100.265 132.507 99.838C132.507 99.4114 132.594 98.9893 132.762 98.5973C132.93 98.2053 133.177 97.8516 133.486 97.5577C133.795 97.2639 134.161 97.036 134.561 96.8879C134.961 96.7399 135.387 96.6747 135.813 96.6965H148.657C149.083 96.6747 149.509 96.7399 149.909 96.8879C150.309 97.036 150.675 97.2639 150.984 97.5577C151.293 97.8516 151.539 98.2053 151.708 98.5973C151.876 98.9893 151.963 99.4114 151.963 99.838C151.963 100.265 151.876 100.687 151.708 101.079C151.539 101.471 151.293 101.824 150.984 102.118C150.675 102.412 150.309 102.64 149.909 102.788C149.509 102.936 149.083 103.001 148.657 102.979ZM135.813 98.3305C135.606 98.3153 135.397 98.3429 135.201 98.4118C135.005 98.4806 134.825 98.5891 134.673 98.7306C134.521 98.8721 134.399 99.0434 134.316 99.234C134.233 99.4245 134.19 99.6301 134.19 99.838C134.19 100.046 134.233 100.251 134.316 100.442C134.399 100.633 134.521 100.804 134.673 100.945C134.825 101.087 135.005 101.195 135.201 101.264C135.397 101.333 135.606 101.361 135.813 101.345H148.657C148.864 101.361 149.072 101.333 149.268 101.264C149.464 101.195 149.644 101.087 149.797 100.945C149.949 100.804 150.07 100.633 150.153 100.442C150.236 100.251 150.279 100.046 150.279 99.838C150.279 99.6301 150.236 99.4245 150.153 99.234C150.07 99.0434 149.949 98.8721 149.797 98.7306C149.644 98.5891 149.464 98.4806 149.268 98.4118C149.072 98.3429 148.864 98.3153 148.657 98.3305H135.813Z" fill="#093F68"/>
<path id="Vector_38" d="M149.4 108.601C149.292 108.6 149.185 108.578 149.086 108.536C148.986 108.494 148.896 108.433 148.82 108.356C148.668 108.202 148.582 107.995 148.582 107.78C148.582 107.564 148.668 107.357 148.82 107.204C149.595 106.498 150.076 105.527 150.168 104.483C150.166 104.083 150.006 103.701 149.723 103.419C149.439 103.138 149.056 102.979 148.657 102.979H135.813C135.606 102.964 135.397 102.992 135.201 103.061C135.005 103.13 134.825 103.238 134.673 103.38C134.521 103.521 134.399 103.692 134.316 103.883C134.233 104.073 134.19 104.279 134.19 104.487C134.19 104.695 134.233 104.9 134.316 105.091C134.399 105.281 134.521 105.453 134.673 105.594C134.825 105.736 135.005 105.844 135.201 105.913C135.397 105.982 135.606 106.01 135.813 105.994H143.305C143.522 105.994 143.73 106.08 143.883 106.234C144.036 106.387 144.122 106.595 144.122 106.811C144.122 107.028 144.036 107.236 143.883 107.389C143.73 107.542 143.522 107.628 143.305 107.628H135.813C135.387 107.65 134.961 107.585 134.561 107.437C134.161 107.289 133.795 107.061 133.486 106.767C133.177 106.473 132.93 106.12 132.762 105.728C132.594 105.336 132.507 104.913 132.507 104.487C132.507 104.06 132.594 103.638 132.762 103.246C132.93 102.854 133.177 102.501 133.486 102.207C133.795 101.913 134.161 101.685 134.561 101.537C134.961 101.389 135.387 101.324 135.813 101.345H148.657C149.49 101.345 150.288 101.676 150.878 102.264C151.468 102.852 151.8 103.65 151.802 104.483C151.719 105.965 151.063 107.357 149.972 108.364C149.82 108.515 149.615 108.6 149.4 108.601Z" fill="#093F68"/>
<path id="Vector_39" d="M114.423 135.677C114.206 135.677 113.999 135.591 113.845 135.438C113.692 135.285 113.606 135.077 113.606 134.86V121.959C113.606 121.742 113.692 121.535 113.845 121.381C113.999 121.228 114.206 121.142 114.423 121.142C114.64 121.142 114.848 121.228 115.001 121.381C115.154 121.535 115.24 121.742 115.24 121.959V134.86C115.24 135.077 115.154 135.285 115.001 135.438C114.848 135.591 114.64 135.677 114.423 135.677Z" fill="#093F68"/>
<path id="Vector_40" d="M124.603 128.161C124.538 128.169 124.472 128.169 124.407 128.161C124.197 128.109 124.016 127.975 123.904 127.79C123.792 127.605 123.759 127.382 123.81 127.172L126.262 117.368C126.287 117.263 126.334 117.164 126.398 117.077C126.462 116.99 126.543 116.917 126.635 116.862C126.728 116.806 126.831 116.77 126.938 116.754C127.045 116.739 127.154 116.744 127.258 116.771C127.467 116.825 127.646 116.959 127.756 117.145C127.866 117.33 127.899 117.551 127.847 117.76L125.396 127.564C125.347 127.737 125.243 127.889 125.1 127.997C124.957 128.104 124.782 128.162 124.603 128.161Z" fill="#093F68"/>
<path id="Vector_41" d="M42.2865 104.843H28.1109C27.8942 104.843 27.6864 104.757 27.5332 104.603C27.38 104.45 27.2939 104.242 27.2939 104.026V88.3058C27.2939 88.0891 27.38 87.8813 27.5332 87.7281C27.6864 87.5748 27.8942 87.4888 28.1109 87.4888H42.2865C42.5032 87.4888 42.711 87.5748 42.8642 87.7281C43.0175 87.8813 43.1035 88.0891 43.1035 88.3058V104.026C43.1035 104.242 43.0175 104.45 42.8642 104.603C42.711 104.757 42.5032 104.843 42.2865 104.843ZM28.928 103.209H41.4695V89.1228H28.928V103.209Z" fill="#DFEAEF"/>
<path id="Vector_42" d="M33.5693 102.278C33.4425 102.277 33.3162 102.261 33.1935 102.229C32.9291 102.166 32.6845 102.038 32.4819 101.857C32.2793 101.676 32.1252 101.447 32.0333 101.191L29.5332 94.2462C29.4531 94.0429 29.4146 93.8256 29.4199 93.6072C29.4252 93.3888 29.4743 93.1737 29.5642 92.9746C29.6542 92.7755 29.7831 92.5964 29.9434 92.448C30.1038 92.2996 30.2922 92.1848 30.4977 92.1105C30.7031 92.0362 30.9214 92.0038 31.1396 92.0153C31.3578 92.0268 31.5714 92.082 31.7679 92.1775C31.9644 92.273 32.1397 92.407 32.2836 92.5714C32.4274 92.7359 32.5368 92.9275 32.6052 93.135L34.2393 97.7349L43.9457 88.5269C44.261 88.229 44.6817 88.0685 45.1154 88.0807C45.549 88.093 45.96 88.277 46.2579 88.5923C46.5559 88.9076 46.7164 89.3283 46.7041 89.7619C46.6919 90.1956 46.5078 90.6065 46.1926 90.9045L34.6805 101.828C34.3804 102.113 33.9833 102.274 33.5693 102.278Z" fill="#093F68"/>
<path id="Vector_43" d="M64.7309 94.1805H48.047C47.8303 94.1805 47.6225 94.0944 47.4693 93.9412C47.316 93.7879 47.23 93.5801 47.23 93.3634C47.23 93.1467 47.316 92.9389 47.4693 92.7857C47.6225 92.6325 47.8303 92.5464 48.047 92.5464H64.7309C64.9476 92.5464 65.1554 92.6325 65.3086 92.7857C65.4618 92.9389 65.5479 93.1467 65.5479 93.3634C65.5479 93.5801 65.4618 93.7879 65.3086 93.9412C65.1554 94.0944 64.9476 94.1805 64.7309 94.1805Z" fill="#DFEAEF"/>
<path id="Vector_44" d="M59.8368 99.785H48.047C47.8303 99.785 47.6225 99.6989 47.4693 99.5456C47.316 99.3924 47.23 99.1846 47.23 98.9679C47.23 98.7512 47.316 98.5434 47.4693 98.3902C47.6225 98.237 47.8303 98.1509 48.047 98.1509H59.8368C60.0535 98.1509 60.2613 98.237 60.4146 98.3902C60.5678 98.5434 60.6539 98.7512 60.6539 98.9679C60.6539 99.1846 60.5678 99.3924 60.4146 99.5456C60.2613 99.6989 60.0535 99.785 59.8368 99.785Z" fill="#DFEAEF"/>
<path id="Vector_45" d="M42.2865 127.989H28.1109C27.8942 127.989 27.6864 127.903 27.5332 127.75C27.38 127.596 27.2939 127.389 27.2939 127.172V111.444C27.2939 111.227 27.38 111.019 27.5332 110.866C27.6864 110.713 27.8942 110.627 28.1109 110.627H42.2865C42.5032 110.627 42.711 110.713 42.8642 110.866C43.0175 111.019 43.1035 111.227 43.1035 111.444V127.172C43.1035 127.389 43.0175 127.596 42.8642 127.75C42.711 127.903 42.5032 127.989 42.2865 127.989ZM28.928 126.355H41.4695V112.261H28.928V126.355Z" fill="#DFEAEF"/>
<path id="Vector_46" d="M33.5684 125.414C33.4434 125.427 33.3176 125.427 33.1926 125.414C32.9282 125.352 32.6836 125.224 32.481 125.043C32.2784 124.861 32.1242 124.633 32.0324 124.377L29.5323 117.424C29.4471 117.219 29.4044 117 29.4067 116.778C29.4091 116.557 29.4564 116.338 29.5458 116.136C29.6352 115.933 29.7649 115.751 29.927 115.6C30.089 115.449 30.2801 115.332 30.4885 115.258C30.697 115.183 30.9184 115.151 31.1395 115.164C31.3605 115.178 31.5766 115.236 31.7744 115.335C31.9723 115.435 32.1479 115.574 32.2906 115.743C32.4332 115.912 32.54 116.109 32.6043 116.321L34.2384 120.913L43.9448 111.713C44.0982 111.555 44.282 111.429 44.4851 111.344C44.6883 111.259 44.9066 111.216 45.1268 111.217C45.3471 111.218 45.5649 111.264 45.767 111.351C45.9692 111.439 46.1515 111.567 46.3031 111.726C46.4547 111.886 46.5724 112.075 46.6491 112.282C46.7258 112.488 46.76 112.708 46.7496 112.928C46.7392 113.148 46.6844 113.364 46.5885 113.562C46.4926 113.76 46.3576 113.937 46.1916 114.082L34.6796 125.006C34.3733 125.276 33.9768 125.422 33.5684 125.414Z" fill="#093F68"/>
<path id="Vector_47" d="M64.7309 117.319H48.047C47.8303 117.319 47.6225 117.233 47.4693 117.079C47.316 116.926 47.23 116.718 47.23 116.502C47.23 116.285 47.316 116.077 47.4693 115.924C47.6225 115.771 47.8303 115.685 48.047 115.685H64.7309C64.9476 115.685 65.1554 115.771 65.3086 115.924C65.4618 116.077 65.5479 116.285 65.5479 116.502C65.5479 116.718 65.4618 116.926 65.3086 117.079C65.1554 117.233 64.9476 117.319 64.7309 117.319Z" fill="#DFEAEF"/>
<path id="Vector_48" d="M59.8368 122.931H48.047C47.8303 122.931 47.6225 122.845 47.4693 122.692C47.316 122.538 47.23 122.331 47.23 122.114C47.23 121.897 47.316 121.689 47.4693 121.536C47.6225 121.383 47.8303 121.297 48.047 121.297H59.8368C60.0535 121.297 60.2613 121.383 60.4146 121.536C60.5678 121.689 60.6539 121.897 60.6539 122.114C60.6539 122.331 60.5678 122.538 60.4146 122.692C60.2613 122.845 60.0535 122.931 59.8368 122.931Z" fill="#DFEAEF"/>
<path id="Vector_49" d="M9.97148 106.958C9.97148 106.876 9.97148 106.803 9.97148 106.721C10.0589 105.751 10.3366 104.807 10.7885 103.943C12.8066 101.255 16.0176 101.141 19.1141 100.381C21.1812 99.8744 23.6078 99.4332 25.2501 100.806C25.4455 100.952 25.5957 101.15 25.6831 101.378C25.8628 101.991 25.2746 102.546 24.7272 102.873C23.1016 103.849 21.2734 104.439 19.3837 104.597C21.2132 104.242 23.0938 104.242 24.9233 104.597C25.871 104.777 26.9658 105.242 27.0802 106.19C27.211 107.326 25.8792 108.012 24.7762 108.282C23.1839 108.688 21.5606 108.961 19.923 109.099C21.7157 108.886 23.5257 108.862 25.3236 109.025C25.9691 109.091 26.7207 109.246 26.9577 109.842C27.0473 110.095 27.0577 110.368 26.9876 110.627C26.9175 110.885 26.7703 111.116 26.5655 111.288C26.1472 111.628 25.6544 111.863 25.1275 111.975C23.3489 112.471 21.5157 112.745 19.6697 112.792H24.1634C24.6517 112.772 25.1379 112.864 25.5851 113.061C25.8073 113.164 25.9908 113.335 26.1084 113.55C26.2261 113.765 26.2718 114.012 26.2387 114.254C26.1456 114.55 25.952 114.805 25.6913 114.973C24.4249 115.896 22.7173 115.709 21.1567 115.749C19.9814 115.702 18.8336 116.112 17.9539 116.893C17.2349 117.71 17.3085 118.887 16.279 119.5C14.5551 120.513 12.0468 118.683 11.1398 117.302C9.9388 115.504 9.69369 113.217 9.69369 111.084C9.70385 109.704 9.79661 108.327 9.97148 106.958Z" fill="#FFC9B0"/>
<path id="Vector_50" d="M15.2103 120.603C13.2658 120.603 11.2885 118.911 10.5042 117.743C9.10703 115.635 8.92728 113.069 8.92728 111.068C8.92567 109.661 9.01026 108.256 9.18057 106.86V106.615C9.26958 105.543 9.56945 104.499 10.063 103.543L10.112 103.453C11.934 101.002 14.5812 100.495 17.1467 99.9642C17.7268 99.8498 18.3069 99.7273 18.8951 99.5884C21.3462 98.9838 23.8954 98.6324 25.7501 100.177C26.0748 100.423 26.317 100.762 26.4446 101.149C26.6978 102.015 26.2076 102.922 25.1291 103.6L24.8758 103.755H25.0556C26.6897 104.066 27.7355 104.907 27.8662 106.051C27.8971 106.53 27.7865 107.008 27.5483 107.425C27.3101 107.842 26.9547 108.179 26.5263 108.396C27.0431 108.571 27.4692 108.944 27.711 109.434C27.8784 109.842 27.9133 110.293 27.8107 110.723C27.708 111.152 27.4731 111.539 27.139 111.828C26.8491 112.079 26.5209 112.284 26.1668 112.432C26.4995 112.635 26.7623 112.935 26.92 113.291C27.0777 113.647 27.1227 114.043 27.0492 114.426C26.9162 114.916 26.608 115.34 26.1831 115.619C24.933 116.534 23.3807 116.542 22.008 116.542H21.191C20.2391 116.483 19.3016 116.797 18.5765 117.416C18.3717 117.683 18.2116 117.981 18.1026 118.299C17.8721 119.072 17.374 119.738 16.6973 120.178C16.2475 120.447 15.7346 120.594 15.2103 120.603ZM11.4846 104.393C11.1184 105.163 10.8969 105.993 10.831 106.844V107.072C10.6742 108.404 10.5951 109.743 10.594 111.084C10.594 112.857 10.7411 115.112 11.9013 116.852C12.7183 118.078 14.8181 119.459 15.9865 118.797C16.3434 118.531 16.5974 118.15 16.7055 117.718C16.874 117.221 17.1314 116.759 17.4653 116.354C18.4948 115.186 20.2841 114.965 21.2564 114.932H22.0734C23.3071 114.932 24.4755 114.932 25.3416 114.32C25.554 114.164 25.5785 114.074 25.5785 114.074C25.5607 114.013 25.5305 113.956 25.4898 113.907C25.449 113.858 25.3986 113.817 25.3416 113.788C25.0003 113.659 24.636 113.6 24.2712 113.617C22.7924 113.56 21.2972 113.552 19.8184 113.617C19.6017 113.617 19.3939 113.531 19.2407 113.378C19.0874 113.224 19.0013 113.017 19.0013 112.8C19.0013 112.583 19.0874 112.375 19.2407 112.222C19.3939 112.069 19.6017 111.983 19.8184 111.983C21.5992 111.928 23.3665 111.654 25.0801 111.166C25.4786 111.079 25.8543 110.909 26.1831 110.667C26.2592 110.609 26.3182 110.531 26.3541 110.442C26.39 110.353 26.4015 110.256 26.3874 110.161C26.3874 110.087 26.1831 109.899 25.3824 109.826C23.9714 109.707 22.553 109.707 21.142 109.826L20.1207 109.932C19.9064 109.95 19.6936 109.883 19.5285 109.746C19.3633 109.608 19.259 109.411 19.2383 109.197C19.2176 108.984 19.2813 108.771 19.4158 108.604C19.5502 108.438 19.7447 108.331 19.9573 108.306L20.9867 108.2C22.2428 108.06 23.4877 107.833 24.7124 107.522C25.5948 107.301 26.4609 106.819 26.4037 106.321C26.3465 105.822 25.5867 105.553 24.9085 105.43C23.6804 105.203 22.4272 105.143 21.1828 105.25C20.6436 105.364 20.0979 105.443 19.5488 105.487C19.3321 105.519 19.1118 105.463 18.9363 105.332C18.7609 105.201 18.6447 105.006 18.6133 104.789C18.5818 104.572 18.6378 104.352 18.7688 104.176C18.8998 104.001 19.0951 103.885 19.3118 103.853C19.8347 103.747 20.3658 103.674 20.8969 103.616C22.1336 103.349 23.3178 102.88 24.402 102.227C24.835 101.966 24.9821 101.721 24.9902 101.664C24.9416 101.596 24.8839 101.536 24.8187 101.484C23.5196 100.414 21.4443 100.724 19.3935 101.231C18.7971 101.378 18.1843 101.5 17.5879 101.623C15.0387 102.072 12.9144 102.505 11.4683 104.393H11.4846Z" fill="#093F68"/>
<path id="Vector_51" d="M100.182 112.858H110.395V118.324H100.182V112.858Z" fill="white"/>
<path id="Vector_52" d="M110.386 119.173H100.182C99.965 119.173 99.7572 119.087 99.604 118.933C99.4507 118.78 99.3647 118.572 99.3647 118.356V112.89C99.3647 112.673 99.4507 112.465 99.604 112.312C99.7572 112.159 99.965 112.073 100.182 112.073H110.386C110.603 112.073 110.811 112.159 110.964 112.312C111.117 112.465 111.204 112.673 111.204 112.89V118.356C111.204 118.572 111.117 118.78 110.964 118.933C110.811 119.087 110.603 119.173 110.386 119.173ZM100.999 117.539H109.569V113.707H100.999V117.539Z" fill="#093F68"/>
<g id="Group">
<path id="Vector_53" d="M37.1308 51.1305C36.9141 51.1305 36.7063 51.0445 36.553 50.8912C36.3998 50.738 36.3137 50.5302 36.3137 50.3135V46.8493C36.3137 46.6326 36.3998 46.4248 36.553 46.2715C36.7063 46.1183 36.9141 46.0322 37.1308 46.0322C37.3475 46.0322 37.5553 46.1183 37.7085 46.2715C37.8617 46.4248 37.9478 46.6326 37.9478 46.8493V50.3135C37.9478 50.5302 37.8617 50.738 37.7085 50.8912C37.5553 51.0445 37.3475 51.1305 37.1308 51.1305Z" fill="#DFEAEF"/>
<path id="Vector_54" d="M37.1308 58.6637C36.9141 58.6637 36.7063 58.5777 36.553 58.4244C36.3998 58.2712 36.3137 58.0634 36.3137 57.8467V54.3825C36.3137 54.1658 36.3998 53.958 36.553 53.8047C36.7063 53.6515 36.9141 53.5654 37.1308 53.5654C37.3475 53.5654 37.5553 53.6515 37.7085 53.8047C37.8617 53.958 37.9478 54.1658 37.9478 54.3825V57.8467C37.9478 58.0634 37.8617 58.2712 37.7085 58.4244C37.5553 58.5777 37.3475 58.6637 37.1308 58.6637Z" fill="#DFEAEF"/>
<path id="Vector_55" d="M42.6303 53.1648H39.1661C38.9494 53.1648 38.7416 53.0788 38.5883 52.9255C38.4351 52.7723 38.349 52.5645 38.349 52.3478C38.349 52.1311 38.4351 51.9233 38.5883 51.7701C38.7416 51.6168 38.9494 51.5308 39.1661 51.5308H42.6303C42.847 51.5308 43.0548 51.6168 43.208 51.7701C43.3613 51.9233 43.4473 52.1311 43.4473 52.3478C43.4473 52.5645 43.3613 52.7723 43.208 52.9255C43.0548 53.0788 42.847 53.1648 42.6303 53.1648Z" fill="#DFEAEF"/>
<path id="Vector_56" d="M35.1046 53.1648H31.6403C31.4236 53.1648 31.2158 53.0788 31.0626 52.9255C30.9094 52.7723 30.8233 52.5645 30.8233 52.3478C30.8233 52.1311 30.9094 51.9233 31.0626 51.7701C31.2158 51.6168 31.4236 51.5308 31.6403 51.5308H35.1046C35.3213 51.5308 35.5291 51.6168 35.6823 51.7701C35.8355 51.9233 35.9216 52.1311 35.9216 52.3478C35.9216 52.5645 35.8355 52.7723 35.6823 52.9255C35.5291 53.0788 35.3213 53.1648 35.1046 53.1648Z" fill="#DFEAEF"/>
<path id="Vector_57" d="M6.35345 72.8546C6.13676 72.8546 5.92894 72.7686 5.77572 72.6153C5.62249 72.4621 5.53642 72.2543 5.53642 72.0376V68.5734C5.53642 68.3567 5.62249 68.1489 5.77572 67.9957C5.92894 67.8424 6.13676 67.7563 6.35345 67.7563C6.57014 67.7563 6.77795 67.8424 6.93118 67.9957C7.0844 68.1489 7.17049 68.3567 7.17049 68.5734V72.0376C7.17049 72.2543 7.0844 72.4621 6.93118 72.6153C6.77795 72.7686 6.57014 72.8546 6.35345 72.8546Z" fill="#DFEAEF"/>
<path id="Vector_58" d="M6.35345 80.3796C6.13676 80.3796 5.92894 80.2935 5.77572 80.1403C5.62249 79.987 5.53642 79.7792 5.53642 79.5625V76.0983C5.53642 75.8816 5.62249 75.6738 5.77572 75.5206C5.92894 75.3673 6.13676 75.2812 6.35345 75.2812C6.57014 75.2812 6.77795 75.3673 6.93118 75.5206C7.0844 75.6738 7.17049 75.8816 7.17049 76.0983V79.5625C7.17049 79.7792 7.0844 79.987 6.93118 80.1403C6.77795 80.2935 6.57014 80.3796 6.35345 80.3796Z" fill="#DFEAEF"/>
<path id="Vector_59" d="M11.8523 74.8821H8.38803C8.17134 74.8821 7.96352 74.796 7.8103 74.6428C7.65707 74.4896 7.57099 74.2818 7.57099 74.0651C7.57099 73.8484 7.65707 73.6406 7.8103 73.4874C7.96352 73.3341 8.17134 73.248 8.38803 73.248H11.8523C12.069 73.248 12.2768 73.3341 12.43 73.4874C12.5832 73.6406 12.6693 73.8484 12.6693 74.0651C12.6693 74.2818 12.5832 74.4896 12.43 74.6428C12.2768 74.796 12.069 74.8821 11.8523 74.8821Z" fill="#DFEAEF"/>
<path id="Vector_60" d="M4.31872 74.8821H0.854482C0.63779 74.8821 0.429973 74.796 0.276749 74.6428C0.123525 74.4896 0.0374451 74.2818 0.0374451 74.0651C0.0374451 73.8484 0.123525 73.6406 0.276749 73.4874C0.429973 73.3341 0.63779 73.248 0.854482 73.248H4.31872C4.53541 73.248 4.74322 73.3341 4.89645 73.4874C5.04967 73.6406 5.13575 73.8484 5.13575 74.0651C5.13575 74.2818 5.04967 74.4896 4.89645 74.6428C4.74322 74.796 4.53541 74.8821 4.31872 74.8821Z" fill="#DFEAEF"/>
</g>
<path id="Vector_61" d="M83.0242 65.0116H72.0514C70.5851 65.0094 69.1794 64.4259 68.1425 63.3891C67.1057 62.3522 66.5222 60.9466 66.5201 59.4802V54.962C66.5222 53.4957 67.1057 52.09 68.1425 51.0531C69.1794 50.0163 70.5851 49.4328 72.0514 49.4307H83.0242C84.4905 49.4328 85.8962 50.0163 86.9331 51.0531C87.9699 52.09 88.5534 53.4957 88.5555 54.962V59.4802C88.5534 60.9466 87.9699 62.3522 86.9331 63.3891C85.8962 64.4259 84.4905 65.0094 83.0242 65.0116ZM72.0432 51.0647C71.0103 51.0669 70.0202 51.4782 69.2898 52.2086C68.5594 52.939 68.1481 53.9291 68.146 54.962V59.4802C68.1481 60.5132 68.5594 61.5032 69.2898 62.2336C70.0202 62.964 71.0103 63.3753 72.0432 63.3775H83.0242C84.0572 63.3753 85.0472 62.964 85.7776 62.2336C86.508 61.5032 86.9193 60.5132 86.9215 59.4802V54.962C86.9193 53.9291 86.508 52.939 85.7776 52.2086C85.0472 51.4782 84.0572 51.0669 83.0242 51.0647H72.0432Z" fill="#093F68"/>
<path id="Vector_62" d="M112.208 65.0116H101.227C99.761 65.0094 98.3553 64.4259 97.3184 63.3891C96.2816 62.3522 95.6981 60.9466 95.696 59.4802V54.962C95.6981 53.4957 96.2816 52.09 97.3184 51.0531C98.3553 50.0163 99.761 49.4328 101.227 49.4307H112.208C113.675 49.4328 115.08 50.0163 116.117 51.0531C117.154 52.09 117.737 53.4957 117.74 54.962V59.4802C117.737 60.9466 117.154 62.3522 116.117 63.3891C115.08 64.4259 113.675 65.0094 112.208 65.0116ZM101.227 51.0647C100.194 51.0669 99.2043 51.4782 98.4739 52.2086C97.7435 52.939 97.3322 53.9291 97.33 54.962V59.4802C97.3322 60.5132 97.7435 61.5032 98.4739 62.2336C99.2043 62.964 100.194 63.3753 101.227 63.3775H112.208C113.241 63.3753 114.231 62.964 114.962 62.2336C115.692 61.5032 116.103 60.5132 116.106 59.4802V54.962C116.103 53.9291 115.692 52.939 114.962 52.2086C114.231 51.4782 113.241 51.0669 112.208 51.0647H101.227Z" fill="#093F68"/>
<path id="Vector_63" d="M96.5134 56.9309C96.3301 56.9321 96.1517 56.8717 96.0069 56.7593C92.8531 54.3082 88.9558 56.7021 88.7924 56.7593C88.7096 56.854 88.6059 56.9284 88.4896 56.9764C88.3732 57.0245 88.2474 57.0451 88.1218 57.0365C87.9962 57.0279 87.8743 56.9904 87.7656 56.927C87.6569 56.8635 87.5643 56.7758 87.4951 56.6707C87.4259 56.5655 87.3819 56.4458 87.3665 56.3209C87.3512 56.1959 87.3649 56.0691 87.4067 55.9504C87.4484 55.8316 87.5171 55.7241 87.6072 55.6363C87.6974 55.5484 87.8066 55.4826 87.9264 55.4439C88.1306 55.3131 92.9593 52.2901 97.0363 55.4439C97.1713 55.5486 97.27 55.693 97.3187 55.8567C97.3673 56.0205 97.3634 56.1954 97.3075 56.3568C97.2516 56.5182 97.1465 56.658 97.007 56.7566C96.8675 56.8552 96.7006 56.9076 96.5298 56.9064L96.5134 56.9309Z" fill="#093F68"/>
<path id="Vector_64" d="M67.337 54.3909H59.9347C59.718 54.3909 59.5102 54.3048 59.3569 54.1516C59.2037 53.9984 59.1176 53.7906 59.1176 53.5739C59.1176 53.3572 59.2037 53.1494 59.3569 52.9961C59.5102 52.8429 59.718 52.7568 59.9347 52.7568H67.337C67.5537 52.7568 67.7615 52.8429 67.9147 52.9961C68.068 53.1494 68.1541 53.3572 68.1541 53.5739C68.1541 53.7906 68.068 53.9984 67.9147 54.1516C67.7615 54.3048 67.5537 54.3909 67.337 54.3909Z" fill="#093F68"/>
<path id="Vector_65" d="M124.464 54.3909H117.061C116.845 54.3909 116.637 54.3048 116.484 54.1516C116.33 53.9984 116.244 53.7906 116.244 53.5739C116.244 53.3572 116.33 53.1494 116.484 52.9961C116.637 52.8429 116.845 52.7568 117.061 52.7568H124.464C124.68 52.7568 124.888 52.8429 125.041 52.9961C125.195 53.1494 125.281 53.3572 125.281 53.5739C125.281 53.7906 125.195 53.9984 125.041 54.1516C124.888 54.3048 124.68 54.3909 124.464 54.3909Z" fill="#093F68"/>
</g>
</svg>
