<svg width="7" height="9" viewBox="0 0 7 9" fill="none" xmlns="http://www.w3.org/2000/svg">
<path id="Vector" fill-rule="evenodd" clip-rule="evenodd" d="M1.15186 7.18815L5.18452 4.49971L1.15186 1.81127C1.0989 1.77597 1.05341 1.73058 1.018 1.67769C0.982582 1.62481 0.957929 1.56547 0.945447 1.50306C0.932965 1.44064 0.932898 1.37639 0.945249 1.31395C0.957601 1.25151 0.98213 1.19212 1.01743 1.13916C1.08874 1.03221 1.1996 0.957961 1.32565 0.932752C1.38806 0.92027 1.45232 0.920202 1.51476 0.932554C1.57719 0.944905 1.63659 0.969434 1.68954 1.00474L6.26097 4.05235C6.33461 4.10146 6.39499 4.16798 6.43675 4.24602C6.47851 4.32406 6.50036 4.4112 6.50036 4.49971C6.50036 4.58822 6.47851 4.67536 6.43675 4.7534C6.39499 4.83144 6.33461 4.89796 6.26097 4.94707L1.68954 7.99468C1.63659 8.02999 1.57719 8.05452 1.51476 8.06687C1.45232 8.07922 1.38806 8.07915 1.32565 8.06667C1.26324 8.05419 1.2039 8.02953 1.15101 7.99412C1.09813 7.9587 1.05274 7.91322 1.01743 7.86026C0.98213 7.8073 0.957601 7.74791 0.945249 7.68547C0.932898 7.62303 0.932965 7.55878 0.945447 7.49637C0.957929 7.43395 0.982582 7.37461 1.018 7.32173C1.05341 7.26885 1.0989 7.22346 1.15186 7.18815Z" fill="black"/>
</svg>
