<svg width="7" height="9" viewBox="0 0 7 9" fill="none" xmlns="http://www.w3.org/2000/svg">
<path id="Vector" fill-rule="evenodd" clip-rule="evenodd" d="M5.84814 7.18815L1.81548 4.49971L5.84814 1.81127C5.9011 1.77597 5.94659 1.73058 5.982 1.67769C6.01742 1.62481 6.04207 1.56547 6.05455 1.50306C6.06704 1.44064 6.0671 1.37639 6.05475 1.31395C6.0424 1.25151 6.01787 1.19212 5.98257 1.13916C5.91126 1.03221 5.8004 0.957961 5.67435 0.932752C5.61194 0.92027 5.54768 0.920202 5.48524 0.932554C5.42281 0.944905 5.36341 0.969434 5.31046 1.00474L0.739032 4.05235C0.665391 4.10146 0.605012 4.16798 0.563251 4.24602C0.521491 4.32406 0.499641 4.4112 0.499641 4.49971C0.499641 4.58822 0.521491 4.67536 0.563251 4.7534C0.605012 4.83144 0.665391 4.89796 0.739032 4.94707L5.31046 7.99468C5.36341 8.02999 5.42281 8.05452 5.48524 8.06687C5.54768 8.07922 5.61194 8.07915 5.67435 8.06667C5.73676 8.05419 5.7961 8.02953 5.84899 7.99412C5.90187 7.9587 5.94726 7.91322 5.98257 7.86026C6.01787 7.8073 6.0424 7.74791 6.05475 7.68547C6.0671 7.62303 6.06704 7.55878 6.05455 7.49637C6.04207 7.43395 6.01742 7.37461 5.982 7.32173C5.94659 7.26885 5.9011 7.22346 5.84814 7.18815Z" fill="black"/>
</svg>
