<svg width="14" height="15" viewBox="0 0 14 15" fill="none" xmlns="http://www.w3.org/2000/svg">
<path id="Vector" d="M7 6.1C7.74261 6.1 8.4548 5.805 8.9799 5.2799C9.505 4.7548 9.8 4.04261 9.8 3.3C9.8 2.55739 9.505 1.8452 8.9799 1.3201C8.4548 0.794999 7.74261 0.5 7 0.5C6.25739 0.5 5.5452 0.794999 5.0201 1.3201C4.495 1.8452 4.2 2.55739 4.2 3.3C4.2 4.04261 4.495 4.7548 5.0201 5.2799C5.5452 5.805 6.25739 6.1 7 6.1ZM2.45 8.2C2.91413 8.2 3.35925 8.01563 3.68744 7.68744C4.01563 7.35925 4.2 6.91413 4.2 6.45C4.2 5.98587 4.01563 5.54075 3.68744 5.21256C3.35925 4.88437 2.91413 4.7 2.45 4.7C1.98587 4.7 1.54075 4.88437 1.21256 5.21256C0.884375 5.54075 0.7 5.98587 0.7 6.45C0.7 6.91413 0.884375 7.35925 1.21256 7.68744C1.54075 8.01563 1.98587 8.2 2.45 8.2ZM13.3 6.45C13.3 6.91413 13.1156 7.35925 12.7874 7.68744C12.4592 8.01563 12.0141 8.2 11.55 8.2C11.0859 8.2 10.6408 8.01563 10.3126 7.68744C9.98437 7.35925 9.8 6.91413 9.8 6.45C9.8 5.98587 9.98437 5.54075 10.3126 5.21256C10.6408 4.88437 11.0859 4.7 11.55 4.7C12.0141 4.7 12.4592 4.88437 12.7874 5.21256C13.1156 5.54075 13.3 5.98587 13.3 6.45ZM7 6.8C7.92826 6.8 8.8185 7.16875 9.47487 7.82513C10.1313 8.4815 10.5 9.37174 10.5 10.3V14.5H3.5V10.3C3.5 9.37174 3.86875 8.4815 4.52513 7.82513C5.1815 7.16875 6.07174 6.8 7 6.8ZM2.1 10.3C2.1 9.8149 2.17 9.3466 2.3016 8.9042L2.1826 8.914C1.58262 8.97988 1.02806 9.26492 0.625284 9.71446C0.222503 10.164 -0.000156631 10.7464 8.26683e-08 11.35V14.5H2.1V10.3ZM14 14.5V11.35C14.0001 10.7259 13.7619 10.1252 13.3342 9.67068C12.9065 9.21615 12.3214 8.94201 11.6984 8.9042C11.8293 9.3466 11.9 9.8149 11.9 10.3V14.5H14Z" fill="#093F68"/>
</svg>
