<svg width="17" height="15" viewBox="0 0 17 15" fill="none" xmlns="http://www.w3.org/2000/svg">
<g id="Group">
<path id="Vector" opacity="0.2" d="M10.8329 10.4179L7.33338 13.9174H4.03439L1.84285 11.7258C1.7345 11.6175 1.64856 11.4889 1.58992 11.3474C1.53128 11.2058 1.5011 11.0541 1.5011 10.9009C1.5011 10.7477 1.53128 10.596 1.58992 10.4545C1.64856 10.3129 1.7345 10.1843 1.84285 10.076L6.16689 5.75195L10.8329 10.4179Z" fill="#093F68"/>
<path id="Vector_2" d="M15.5718 4.03172L12.5535 1.01342C12.2254 0.685307 11.7803 0.500977 11.3163 0.500977C10.8523 0.500977 10.4072 0.685307 10.0791 1.01342L1.42809 9.66441C1.09998 9.99255 0.915649 10.4376 0.915649 10.9016C0.915649 11.3657 1.09998 11.8107 1.42809 12.1388L3.61964 14.3304C3.67402 14.3847 3.7386 14.4277 3.80966 14.457C3.88073 14.4863 3.95688 14.5012 4.03374 14.501H14.9156C15.0703 14.501 15.2187 14.4395 15.3281 14.3301C15.4374 14.2208 15.4989 14.0724 15.4989 13.9177C15.4989 13.763 15.4374 13.6147 15.3281 13.5053C15.2187 13.3959 15.0703 13.3345 14.9156 13.3345H8.74054L15.5718 6.50614C15.8999 6.178 16.0842 5.73297 16.0842 5.26893C16.0842 4.80489 15.8999 4.35985 15.5718 4.03172ZM7.09141 13.3345H4.27506L2.25412 11.3135C2.14482 11.2042 2.08342 11.0559 2.08342 10.9013C2.08342 10.7466 2.14482 10.5983 2.25412 10.489L6.16696 6.57685L10.0084 10.4183L7.09141 13.3345ZM14.7465 5.67939L10.8329 9.59369L6.99153 5.75229L10.9058 1.84017C10.96 1.78594 11.0243 1.74292 11.0951 1.71357C11.1659 1.68422 11.2418 1.66911 11.3185 1.66911C11.3951 1.66911 11.471 1.68422 11.5418 1.71357C11.6126 1.74292 11.677 1.78594 11.7311 1.84017L14.748 4.85701C14.8573 4.96638 14.9187 5.11467 14.9187 5.26929C14.9187 5.42391 14.8573 5.5722 14.748 5.68157L14.7465 5.67939Z" fill="#093F68"/>
</g>
</svg>
