<svg width="18" height="18" viewBox="0 0 18 18" fill="none" xmlns="http://www.w3.org/2000/svg">
<path id="Vector" d="M5.57291 3.08535L3.43031 4.2852L4.63016 2.1426L3.43031 0L5.57291 1.19986L7.71551 0L6.51565 2.1426L7.71551 4.2852L5.57291 3.08535ZM15.8574 11.4843L18 10.2845L16.8001 12.4271L18 14.5697L15.8574 13.3698L13.7148 14.5697L14.9147 12.4271L13.7148 10.2845L15.8574 11.4843ZM18 0L16.8001 2.1426L18 4.2852L15.8574 3.08535L13.7148 4.2852L14.9147 2.1426L13.7148 0L15.8574 1.19986L18 0ZM10.578 9.2389L12.6692 7.14772L10.8523 5.33079L8.7611 7.42197L10.578 9.2389ZM11.4608 4.53375L13.4663 6.53922C13.8005 6.85633 13.8005 7.4134 13.4663 7.74765L3.46459 17.7493C3.13034 18.0836 2.57327 18.0836 2.25616 17.7493L0.250684 15.7438C-0.0835615 15.4267 -0.0835615 14.8697 0.250684 14.5354L10.2524 4.53375C10.5866 4.1995 11.1437 4.1995 11.4608 4.53375Z" fill="#093F68"/>
</svg>
