<svg width="31" height="48" viewBox="0 0 31 48" fill="none" xmlns="http://www.w3.org/2000/svg">
<g id="Group">
<path id="Vector" fill-rule="evenodd" clip-rule="evenodd" d="M9.64669 37.3408C10.1657 33.1943 12.1892 28.8321 15.9436 24.4451C19.9515 19.76 20.3097 14.6932 19.2626 10.1088C17.9476 13.0905 15.5475 16.522 11.367 20.7169C7.09892 25.8896 6.60348 31.1289 7.8571 35.4009C8.24393 36.7148 8.80166 37.9722 9.51597 39.1409C9.52774 38.55 9.57088 37.95 9.64669 37.3408ZM12.5108 42.7005C11.3696 38.0284 12.6546 32.308 17.9293 26.1445C23.9386 19.1221 22.8536 11.4199 20.5581 5.50341C19.7463 3.40793 18.7829 1.5373 17.928 0C17.928 0.511124 17.9619 1.03401 17.9959 1.57913C18.0757 2.83014 18.1633 4.1988 17.8744 5.8276C17.3227 8.93487 15.3985 12.9873 9.431 18.9547C1.48308 28.4936 4.62826 38.8167 10.1892 44.1227C11.4873 45.362 12.9174 46.3267 14.3671 46.9463C13.5103 45.647 12.8825 44.2118 12.5108 42.7005Z" fill="white"/>
<path id="Vector_2" fill-rule="evenodd" clip-rule="evenodd" d="M17.6401 30.2755C13.0465 35.0312 14.5485 43.7556 15.9616 47.0603C21.4323 46.791 27.9698 45.2158 30.3188 36.4012C30.6377 35.1796 30.8653 33.9361 30.9999 32.6808C30.83 33.0442 30.1032 33.5384 29.243 34.0103C28.8613 34.2194 28.4521 34.4247 28.0547 34.6116C27.1436 35.043 26.29 35.3789 25.9449 35.4613C26.405 34.3514 26.7645 33.2638 27.0364 32.2024C28.3946 26.9042 27.5841 22.2792 26.4351 18.9811C25.29 15.6948 23.8102 13.7261 23.8102 13.7261C23.8102 13.7261 24.4102 15.8699 23.737 19.2138C23.1396 22.1773 21.5422 26.0833 17.6414 30.2768L17.6401 30.2755ZM24.9579 23.9878C23.8821 26.4846 22.184 29.2324 19.5552 32.0573L19.5382 32.0756L19.5212 32.0939C17.8858 33.7867 17.1826 36.3685 17.163 39.2313C17.158 40.9353 17.3693 42.633 17.7917 44.2837C19.9879 44.0105 22.0507 43.4144 23.7527 42.1817C24.9932 41.2824 26.1815 39.9411 27.0717 37.8496C26.8999 37.9094 26.7254 37.9613 26.5488 38.0051L21.5644 39.1908L23.5291 34.4586C25.1475 30.5631 25.3553 26.9839 24.9579 23.9878Z" fill="white"/>
<path id="Vector_3" d="M13.3525 12.4185C9.43081 14.8146 0.565219 20.9154 0.0423295 28.7588C-0.48056 36.6021 3.964 39.8702 6.57845 42.4846C5.27123 40.5238 2.65678 35.687 2.65678 29.4124C2.65678 23.1377 9.86612 15.2512 13.3525 12.4185Z" fill="white"/>
</g>
</svg>
