<svg width="13" height="16" viewBox="0 0 13 16" fill="none" xmlns="http://www.w3.org/2000/svg">
<path id="Vector" fill-rule="evenodd" clip-rule="evenodd" d="M12.5 6L11 4.5L7.56 1.06L6.5 0L5.44 1.06L2 4.5L0.5 6H3.5V13H9.5V6H12.5ZM6.5 2.121L8.879 4.5H8V11.5H5V4.5H4.121L6.5 2.121ZM4.25 14.5C4.05109 14.5 3.86032 14.579 3.71967 14.7197C3.57902 14.8603 3.5 15.0511 3.5 15.25C3.5 15.4489 3.57902 15.6397 3.71967 15.7803C3.86032 15.921 4.05109 16 4.25 16H8.75C8.94891 16 9.13968 15.921 9.28033 15.7803C9.42098 15.6397 9.5 15.4489 9.5 15.25C9.5 15.0511 9.42098 14.8603 9.28033 14.7197C9.13968 14.579 8.94891 14.5 8.75 14.5H4.25Z" fill="white"/>
</svg>
