<svg width="50" height="49" viewBox="0 0 50 49" fill="none" xmlns="http://www.w3.org/2000/svg">
<g id="Group">
<path id="Vector" d="M25 32.6667C27.166 32.6667 29.2432 31.8063 30.7747 30.2747C32.3063 28.7432 33.1667 26.666 33.1667 24.5C33.1667 22.3341 32.3063 20.2569 30.7747 18.7253C29.2432 17.1938 27.166 16.3334 25 16.3334C22.8341 16.3334 20.7569 17.1938 19.2253 18.7253C17.6938 20.2569 16.8334 22.3341 16.8334 24.5C16.8334 26.666 17.6938 28.7432 19.2253 30.2747C20.7569 31.8063 22.8341 32.6667 25 32.6667Z" fill="#FD591B"/>
<path id="Vector_2" fill-rule="evenodd" clip-rule="evenodd" d="M25 0C25.722 0 26.4144 0.286805 26.9249 0.79732C27.4354 1.30784 27.7222 2.00024 27.7222 2.72222V5.635C31.7945 6.22362 35.5672 8.11384 38.4767 11.0233C41.3862 13.9328 43.2764 17.7055 43.865 21.7778H46.7778C47.4998 21.7778 48.1922 22.0646 48.7027 22.5751C49.2132 23.0856 49.5 23.778 49.5 24.5C49.5 25.222 49.2132 25.9144 48.7027 26.4249C48.1922 26.9354 47.4998 27.2222 46.7778 27.2222H43.865C43.2764 31.2945 41.3862 35.0672 38.4767 37.9767C35.5672 40.8862 31.7945 42.7764 27.7222 43.365V46.2778C27.7222 46.9998 27.4354 47.6922 26.9249 48.2027C26.4144 48.7132 25.722 49 25 49C24.278 49 23.5856 48.7132 23.0751 48.2027C22.5646 47.6922 22.2778 46.9998 22.2778 46.2778V43.365C18.2055 42.7764 14.4328 40.8862 11.5233 37.9767C8.61384 35.0672 6.72362 31.2945 6.135 27.2222H3.22222C2.50024 27.2222 1.80784 26.9354 1.29732 26.4249C0.786805 25.9144 0.5 25.222 0.5 24.5C0.5 23.778 0.786805 23.0856 1.29732 22.5751C1.80784 22.0646 2.50024 21.7778 3.22222 21.7778H6.135C6.72404 17.7056 8.61439 13.9332 11.5238 11.0238C14.4332 8.11439 18.2056 6.22404 22.2778 5.635V2.72222C22.2778 2.00024 22.5646 1.30784 23.0751 0.79732C23.5856 0.286805 24.278 0 25 0ZM11.3889 24.5C11.3889 20.8901 12.8229 17.4281 15.3755 14.8755C17.9281 12.3229 21.3901 10.8889 25 10.8889C28.6099 10.8889 32.0719 12.3229 34.6245 14.8755C37.1771 17.4281 38.6111 20.8901 38.6111 24.5C38.6111 28.1099 37.1771 31.5719 34.6245 34.1245C32.0719 36.6771 28.6099 38.1111 25 38.1111C21.3901 38.1111 17.9281 36.6771 15.3755 34.1245C12.8229 31.5719 11.3889 28.1099 11.3889 24.5Z" fill="#FD591B"/>
</g>
</svg>
