<svg width="76" height="69" viewBox="0 0 76 69" fill="none" xmlns="http://www.w3.org/2000/svg">
<g id="Group 7">
<rect id="Rectangle 24" x="0.776367" width="74.4474" height="69" rx="10" fill="#9747FF"/>
<path id="Vector" d="M52.5263 24.8158H50.2566V21.3571C50.2566 16.5842 45.1724 12.7105 38.9079 12.7105C32.6434 12.7105 27.5592 16.5842 27.5592 21.3571V24.8158H25.2895C22.7928 24.8158 20.75 26.3722 20.75 28.2744V45.5677C20.75 47.4699 22.7928 49.0263 25.2895 49.0263H52.5263C55.023 49.0263 57.0658 47.4699 57.0658 45.5677V28.2744C57.0658 26.3722 55.023 24.8158 52.5263 24.8158ZM38.9079 40.3797C36.4112 40.3797 34.3684 38.8233 34.3684 36.921C34.3684 35.0188 36.4112 33.4624 38.9079 33.4624C41.4046 33.4624 43.4474 35.0188 43.4474 36.921C43.4474 38.8233 41.4046 40.3797 38.9079 40.3797ZM32.0987 24.8158V21.3571C32.0987 18.4865 35.1401 16.1692 38.9079 16.1692C42.6757 16.1692 45.7171 18.4865 45.7171 21.3571V24.8158H32.0987Z" fill="white"/>
</g>
</svg>
