<svg width="76" height="70" viewBox="0 0 76 70" fill="none" xmlns="http://www.w3.org/2000/svg">
<g id="Group 8">
<rect id="Rectangle 24" x="0.5" y="0.5" width="75" height="69" rx="10" fill="#2F88FF"/>
<g id="Group">
<path id="Vector" d="M25.9796 39.9886C22.6693 40.9997 20.6218 42.3964 20.6218 43.9392C20.6218 47.0248 28.8117 49.5262 38.9145 49.5262C49.0173 49.5262 57.2072 47.0248 57.2072 43.9392C57.2072 42.3964 55.1597 40.9997 51.8494 39.9886" stroke="white" stroke-width="2" stroke-linecap="round" stroke-linejoin="round"/>
<path id="Vector_2" d="M38.9147 42.077C38.9147 42.077 50.8049 34.1657 50.8049 25.0195C50.8049 18.4976 45.4815 13.2106 38.9147 13.2106C32.3479 13.2106 27.0244 18.4976 27.0244 25.0195C27.0244 34.1657 38.9147 42.077 38.9147 42.077Z" fill="#2F88FF" stroke="white" stroke-width="2" stroke-linejoin="round"/>
<path id="Vector_3" d="M38.9145 29.9716C41.4401 29.9716 43.4876 27.8871 43.4876 25.3157C43.4876 22.7444 41.4401 20.6599 38.9145 20.6599C36.3888 20.6599 34.3413 22.7444 34.3413 25.3157C34.3413 27.8871 36.3888 29.9716 38.9145 29.9716Z" fill="#43CCF8" stroke="white" stroke-width="2" stroke-linejoin="round"/>
</g>
</g>
</svg>
