<svg width="50" height="49" viewBox="0 0 50 49" fill="none" xmlns="http://www.w3.org/2000/svg">
<g id="Group">
<path id="Vector" fill-rule="evenodd" clip-rule="evenodd" d="M0.5 24.5C0.5 30.9978 3.08124 37.2295 7.67588 41.8241C12.2705 46.4188 18.5022 49 25 49C31.4978 49 37.7295 46.4188 42.3241 41.8241C46.9188 37.2295 49.5 30.9978 49.5 24.5C49.5 18.0022 46.9188 11.7705 42.3241 7.17588C37.7295 2.58124 31.4978 0 25 0C18.5022 0 12.2705 2.58124 7.67588 7.17588C3.08124 11.7705 0.5 18.0022 0.5 24.5ZM45.3 24.5C45.3 29.8839 43.1613 35.0473 39.3543 38.8543C35.5473 42.6613 30.3839 44.8 25 44.8C19.6161 44.8 14.4527 42.6613 10.6457 38.8543C6.83874 35.0473 4.7 29.8839 4.7 24.5C4.7 19.1161 6.83874 13.9527 10.6457 10.1457C14.4527 6.33874 19.6161 4.2 25 4.2C30.3839 4.2 35.5473 6.33874 39.3543 10.1457C43.1613 13.9527 45.3 19.1161 45.3 24.5Z" fill="#FD591B"/>
<path id="Vector_2" fill-rule="evenodd" clip-rule="evenodd" d="M14.5 24.5C14.5 37.1616 18.6748 47.6 25 47.6C31.3252 47.6 35.5 37.1616 35.5 24.5C35.5 11.8384 31.3252 1.40002 25 1.40002C18.6748 1.40002 14.5 11.8384 14.5 24.5ZM31.3 24.5C31.3 35.0336 27.954 43.4 25 43.4C22.046 43.4 18.7 35.0336 18.7 24.5C18.7 13.9664 22.046 5.60002 25 5.60002C27.954 5.60002 31.3 13.9664 31.3 24.5Z" fill="#FD591B"/>
<path id="Vector_3" d="M7.0855 11.8076L9.9023 8.69397C10.1823 8.94597 10.4875 9.19797 10.8123 9.44157C14.3711 12.1072 20.0523 13.7536 26.2543 13.7536C31.5491 13.7536 36.4799 12.558 40.0611 10.5112C40.9235 10.0184 41.6907 9.48357 42.3543 8.91517L45.0815 12.11C44.1704 12.8828 43.1878 13.5672 42.1471 14.154C37.9023 16.5844 32.2519 17.9508 26.2543 17.9508C19.1927 17.9508 12.6323 16.0524 8.2923 12.8016C7.87498 12.4889 7.47229 12.1573 7.0855 11.8076ZM7.0855 37.2372L9.9023 40.3508C10.1823 40.096 10.4875 39.8468 10.8123 39.6032C14.3711 36.9376 20.0523 35.2912 26.2543 35.2912C31.5491 35.2912 36.4799 36.4868 40.0611 38.5336C40.9235 39.0264 41.6907 39.5612 42.3543 40.1296L45.0815 36.9348C44.1693 36.1634 43.1868 35.4791 42.1471 34.8908C37.9023 32.4604 32.2519 31.094 26.2543 31.094C19.1927 31.094 12.6323 32.9924 8.2923 36.2432C7.87498 36.5558 7.47228 36.8875 7.0855 37.2372ZM1.8999 26.6V22.4H48.0999V26.6H1.8999Z" fill="#FD591B"/>
</g>
</svg>
