<svg width="54" height="53" viewBox="0 0 54 53" fill="none" xmlns="http://www.w3.org/2000/svg">
<g id="Group">
<path id="Vector" d="M13.3889 7.15784H7.94444C6.50049 7.15784 5.11567 7.70126 4.09464 8.66855C3.07361 9.63584 2.5 10.9478 2.5 12.3157V43.2631C2.5 44.6311 3.07361 45.943 4.09464 46.9103C5.11567 47.8776 6.50049 48.421 7.94444 48.421H23.4529M40.6111 30.3684V40.6842H51.5M40.6111 22.6315V12.3157C40.6111 10.9478 40.0375 9.63584 39.0165 8.66855C37.9954 7.70126 36.6106 7.15784 35.1667 7.15784H29.7222" stroke="#FD591B" stroke-width="4" stroke-linecap="round" stroke-linejoin="round"/>
<path id="Vector_2" d="M13.3889 22.6316H24.2778M13.3889 32.9474H21.5556M13.3889 7.15789C13.3889 5.78994 13.9625 4.478 14.9836 3.51071C16.0046 2.54342 17.3894 2 18.8334 2H24.2778C25.7218 2 27.1066 2.54342 28.1276 3.51071C29.1486 4.478 29.7222 5.78994 29.7222 7.15789C29.7222 8.52585 29.1486 9.83778 28.1276 10.8051C27.1066 11.7724 25.7218 12.3158 24.2778 12.3158H18.8334C17.3894 12.3158 16.0046 11.7724 14.9836 10.8051C13.9625 9.83778 13.3889 8.52585 13.3889 7.15789ZM29.7222 40.6842C29.7222 43.4201 30.8695 46.044 32.9115 47.9786C34.9536 49.9132 37.7232 51 40.6111 51C43.499 51 46.2687 49.9132 48.3107 47.9786C50.3528 46.044 51.5 43.4201 51.5 40.6842C51.5 37.9483 50.3528 35.3244 48.3107 33.3898C46.2687 31.4553 43.499 30.3684 40.6111 30.3684C37.7232 30.3684 34.9536 31.4553 32.9115 33.3898C30.8695 35.3244 29.7222 37.9483 29.7222 40.6842Z" stroke="#FD591B" stroke-width="4" stroke-linecap="round" stroke-linejoin="round"/>
</g>
</svg>
