<svg width="76" height="70" viewBox="0 0 76 70" fill="none" xmlns="http://www.w3.org/2000/svg">
<g id="Group 6">
<rect id="Rectangle 24" x="0.5" y="0.5" width="75" height="69" rx="10" fill="#FD591B"/>
<path id="Vector" d="M37.4046 15.1833C37.586 15.0805 37.7912 15.0264 38 15.0264C38.2089 15.0264 38.4141 15.0805 38.5955 15.1833L47.5989 20.2906C47.7826 20.3948 47.9354 20.5453 48.0416 20.727C48.1479 20.9086 48.2039 21.1149 48.2039 21.325V30.8461L56.6023 35.6127C56.7854 35.7165 56.9376 35.8663 57.0438 36.047C57.1501 36.2277 57.2064 36.433 57.2074 36.6423V46.857C57.2073 47.067 57.1513 47.2733 57.045 47.4549C56.9388 47.6366 56.7861 47.7871 56.6023 47.8913L47.5989 52.9986C47.4176 53.1015 47.2123 53.1556 47.0035 53.1556C46.7946 53.1556 46.5894 53.1015 46.408 52.9986L38 48.2321L29.592 53.001C29.4107 53.1039 29.2055 53.1579 28.9966 53.1579C28.7878 53.1579 28.5825 53.1039 28.4012 53.001L19.3978 47.8937C19.214 47.7895 19.0613 47.639 18.955 47.4573C18.8488 47.2757 18.7928 47.0694 18.7927 46.8593V36.6446C18.7928 36.4346 18.8488 36.2283 18.955 36.0467C19.0613 35.865 19.214 35.7145 19.3978 35.6103L27.7962 30.8461V21.325C27.7962 21.1149 27.8522 20.9086 27.9585 20.727C28.0647 20.5453 28.2175 20.3948 28.4012 20.2906L37.4046 15.1833ZM28.9966 32.9101L22.4133 36.6446L28.9966 40.3792L35.5799 36.6446L28.9966 32.9101ZM36.7996 38.699L30.1971 42.4431V49.9123L36.7996 46.1682V38.699ZM39.2005 46.1682L45.803 49.9123V42.4431L39.2005 38.699V46.1682ZM40.4202 36.6446L47.0035 40.3792L53.5868 36.6446L47.0035 32.9101L40.4202 36.6446ZM45.803 30.8461V23.377L39.2005 27.1235V34.5926L45.803 30.8461ZM36.7996 34.5926V27.1235L30.1971 23.377V30.8461L36.7996 34.5926ZM31.4167 21.325L38 25.0596L44.5833 21.325L38 17.5904L31.4167 21.325ZM54.8064 38.699L48.2039 42.4431V49.9123L54.8064 46.1682V38.699ZM27.7962 49.9123V42.4431L21.1936 38.699V46.1682L27.7962 49.9123Z" fill="white"/>
</g>
</svg>
