<svg width="20" height="21" viewBox="0 0 20 21" fill="none" xmlns="http://www.w3.org/2000/svg">
<g id="Group">
<path id="Vector" fill-rule="evenodd" clip-rule="evenodd" d="M10 19.5C14.9706 19.5 19 14.1501 19 10.5C19 6.84986 14.9706 1.5 10 1.5C5.02945 1.5 1 6.85359 1 10.5C1 14.1464 5.02945 19.5 10 19.5Z" fill="#FD591B" stroke="black" stroke-width="2" stroke-linejoin="round"/>
<path id="Vector_2" d="M10.0002 14.3238C11.4729 14.3238 12.6668 13.0597 12.6668 11.5003C12.6668 9.9409 11.4729 8.67676 10.0002 8.67676C8.52741 8.67676 7.3335 9.9409 7.3335 11.5003C7.3335 13.0597 8.52741 14.3238 10.0002 14.3238Z" fill="#F06A37" stroke="white" stroke-width="2" stroke-linejoin="round"/>
<path id="Vector_3" d="M5.22852 4.0957L6.38163 5.79933" stroke="black" stroke-width="2" stroke-linecap="round"/>
<path id="Vector_4" d="M15.1668 4.30518L14.0137 6.00885" stroke="black" stroke-width="2" stroke-linecap="round"/>
<path id="Vector_5" d="M10.0039 2.08838V4.91191" stroke="black" stroke-width="2" stroke-linecap="round"/>
</g>
</svg>
