<svg width="15" height="15" viewBox="0 0 15 15" fill="none" xmlns="http://www.w3.org/2000/svg">
<g id="teenyicons:invoice-solid">
<path id="Vector" d="M10 7.995V9H8V7.995H10ZM10 6V6.995H8V6H10ZM7 6H5V6.995H7V6ZM7 7.995H5V9H7V7.995Z" fill="white"/>
<path id="Vector_2" fill-rule="evenodd" clip-rule="evenodd" d="M1 1.5C1 1.10218 1.15804 0.720644 1.43934 0.43934C1.72064 0.158035 2.10218 0 2.5 0L10.707 0L14 3.293V13.5C14 13.8978 13.842 14.2794 13.5607 14.5607C13.2794 14.842 12.8978 15 12.5 15H2.5C2.10218 15 1.72064 14.842 1.43934 14.5607C1.15804 14.2794 1 13.8978 1 13.5V1.5ZM4 4H7V3H4V4ZM11 5H4V10H11V5ZM11 12H8V11H11V12Z" fill="white"/>
</g>
</svg>
