<svg width="13" height="15" viewBox="0 0 13 15" fill="none" xmlns="http://www.w3.org/2000/svg">
<path id="Vector" d="M11.6163 0.504521H6.24694C6.13501 0.494172 6.02208 0.506545 5.91539 0.540846C5.8087 0.575146 5.7106 0.630617 5.6274 0.703701C5.54419 0.776784 5.47771 0.865867 5.43222 0.965236C5.38672 1.0646 5.36322 1.17206 5.36322 1.28072C5.36322 1.38938 5.38672 1.49684 5.43222 1.59621C5.47771 1.69558 5.54419 1.78466 5.6274 1.85775C5.7106 1.93083 5.8087 1.9863 5.91539 2.0206C6.02208 2.0549 6.13501 2.06727 6.24694 2.05693H7.80933L3.3202 12.945H1.38371C1.27179 12.9347 1.15885 12.9471 1.05216 12.9814C0.945475 13.0157 0.847381 13.0711 0.764175 13.1442C0.680968 13.2173 0.614486 13.3064 0.568993 13.4057C0.5235 13.5051 0.5 13.6126 0.5 13.7212C0.5 13.8299 0.5235 13.9374 0.568993 14.0367C0.614486 14.1361 0.680968 14.2252 0.764175 14.2983C0.847381 14.3713 0.945475 14.4268 1.05216 14.4611C1.15885 14.4954 1.27179 14.5078 1.38371 14.4974H6.7604C6.87233 14.5078 6.98526 14.4954 7.09195 14.4611C7.19864 14.4268 7.29673 14.3713 7.37994 14.2983C7.46314 14.2252 7.52963 14.1361 7.57512 14.0367C7.62061 13.9374 7.64411 13.8299 7.64411 13.7212C7.64411 13.6126 7.62061 13.5051 7.57512 13.4057C7.52963 13.3064 7.46314 13.2173 7.37994 13.1442C7.29673 13.0711 7.19864 13.0157 7.09195 12.9814C6.98526 12.9471 6.87233 12.9347 6.7604 12.945H5.08064L9.57711 2.05693H11.6163C11.7282 2.06727 11.8411 2.0549 11.9478 2.0206C12.0545 1.9863 12.1526 1.93083 12.2358 1.85775C12.319 1.78466 12.3855 1.69558 12.431 1.59621C12.4765 1.49684 12.5 1.38938 12.5 1.28072C12.5 1.17206 12.4765 1.0646 12.431 0.965236C12.3855 0.865867 12.319 0.776784 12.2358 0.703701C12.1526 0.630617 12.0545 0.575146 11.9478 0.540846C11.8411 0.506545 11.7282 0.494172 11.6163 0.504521Z" fill="#093F68"/>
</svg>
