<svg width="15" height="15" viewBox="0 0 15 15" fill="none" xmlns="http://www.w3.org/2000/svg">
<g id="ant-design:bulb-twotone">
<path id="Vector" d="M7.5 1.99219C5.42871 1.99219 3.75 3.6709 3.75 5.74219C3.75 7.09717 4.47363 8.32471 5.62646 8.99121L6.15234 9.2959V11.0156H8.84766V9.2959L9.37354 8.99121C10.5264 8.32471 11.25 7.09717 11.25 5.74219C11.25 3.6709 9.57129 1.99219 7.5 1.99219Z" fill="black" fill-opacity="0.15"/>
<path id="Vector_2" d="M9.25781 13.0078H5.74219C5.67773 13.0078 5.625 13.0605 5.625 13.125V13.5938C5.625 13.853 5.83447 14.0625 6.09375 14.0625H8.90625C9.16553 14.0625 9.375 13.853 9.375 13.5938V13.125C9.375 13.0605 9.32227 13.0078 9.25781 13.0078ZM7.5 0.9375C4.84717 0.9375 2.69531 3.08936 2.69531 5.74219C2.69531 7.52051 3.66211 9.07324 5.09766 9.90381V11.6016C5.09766 11.8608 5.30713 12.0703 5.56641 12.0703H9.43359C9.69287 12.0703 9.90234 11.8608 9.90234 11.6016V9.90381C11.3379 9.07324 12.3047 7.52051 12.3047 5.74219C12.3047 3.08936 10.1528 0.9375 7.5 0.9375ZM9.37354 8.99121L8.84766 9.2959V11.0156H6.15234V9.2959L5.62646 8.99121C4.47363 8.32471 3.75 7.09717 3.75 5.74219C3.75 3.6709 5.42871 1.99219 7.5 1.99219C9.57129 1.99219 11.25 3.6709 11.25 5.74219C11.25 7.09717 10.5264 8.32471 9.37354 8.99121Z" fill="white"/>
</g>
</svg>
