<svg width="17" height="17" viewBox="0 0 17 17" fill="none" xmlns="http://www.w3.org/2000/svg">
<path id="Vector" d="M9.34594 3.33828C9.47863 3.20552 9.55318 3.0255 9.55318 2.83781C9.55318 2.65012 9.47863 2.47011 9.34594 2.33735L8.46609 1.45235C7.53562 0.522635 6.27387 0.00056076 4.9584 0.000976562C3.64294 0.00139046 2.38152 0.52426 1.45163 1.45456C0.521753 2.38486 -0.000414742 3.64638 2.47168e-07 4.9616C0.000415237 6.27683 0.52338 7.53802 1.45385 8.46773L3.58885 10.6024C4.48259 11.4966 5.68435 12.0156 6.94823 12.0531C8.21211 12.0907 9.44255 11.6438 10.3878 10.8041C10.4575 10.7423 10.5144 10.6673 10.5552 10.5835C10.5959 10.4997 10.6198 10.4087 10.6254 10.3157C10.631 10.2227 10.6182 10.1294 10.5877 10.0414C10.5573 9.95327 10.5098 9.87204 10.448 9.80231C10.3861 9.73258 10.3111 9.67571 10.2273 9.63494C10.1435 9.59418 10.0525 9.57032 9.95942 9.56474C9.86638 9.55915 9.77315 9.57194 9.68505 9.60238C9.59695 9.63281 9.5157 9.6803 9.44596 9.74213C8.77086 10.3415 7.89224 10.6604 6.98977 10.6336C6.08729 10.6068 5.22916 10.2363 4.59086 9.59788L2.45585 7.46591C1.79172 6.8019 1.41861 5.90131 1.41861 4.96225C1.41861 4.0232 1.79172 3.1226 2.45585 2.45859C3.11998 1.79458 4.02074 1.42154 4.95997 1.42154C5.89919 1.42154 6.79995 1.79458 7.46409 2.45859L8.34394 3.33828C8.4097 3.40411 8.4878 3.45633 8.57376 3.49196C8.65973 3.52759 8.75188 3.54593 8.84494 3.54593C8.93799 3.54593 9.03014 3.52759 9.11611 3.49196C9.20207 3.45633 9.28017 3.40411 9.34594 3.33828ZM15.5491 15.5513C14.6185 16.4796 13.3576 17.001 12.043 17.001C10.7284 17.001 9.4675 16.4796 8.5369 15.5513L7.65705 14.6707C7.52429 14.5378 7.44976 14.3577 7.44984 14.1699C7.44992 13.9821 7.52462 13.802 7.65749 13.6693C7.79037 13.5366 7.97054 13.4621 8.15836 13.4621C8.34619 13.4622 8.5263 13.5369 8.65905 13.6698L9.5389 14.5494C10.203 15.2135 11.1038 15.5865 12.043 15.5865C12.9822 15.5865 13.883 15.2135 14.5471 14.5494C15.2113 13.8854 15.5844 12.9848 15.5844 12.0458C15.5844 11.1067 15.2113 10.2061 14.5471 9.54212L12.4121 7.40573C11.7735 6.76768 10.9152 6.39765 10.0127 6.37133C9.11023 6.34501 8.23179 6.66438 7.55703 7.26413C7.41617 7.389 7.23147 7.45281 7.04356 7.44153C6.85565 7.43024 6.67992 7.34478 6.55503 7.20395C6.43013 7.06312 6.36631 6.87846 6.3776 6.69058C6.38889 6.5027 6.47436 6.327 6.61522 6.20214C7.56021 5.3622 8.79052 4.91507 10.0544 4.95225C11.3183 4.98943 12.5202 5.50811 13.4141 6.40214L15.5491 8.53676C16.4782 9.46727 17 10.7283 17 12.0431C17 13.3579 16.4782 14.619 15.5491 15.5495V15.5513Z" fill="#093F68"/>
</svg>
