<svg width="50" height="49" viewBox="0 0 50 49" fill="none" xmlns="http://www.w3.org/2000/svg">
<g id="mdi:payment-on-delivery">
<path id="Vector" d="M38.2709 24.5C34.3917 24.5 31.125 27.7666 31.125 31.6458C31.125 36.9541 38.2709 44.9166 38.2709 44.9166C38.2709 44.9166 45.4167 36.9541 45.4167 31.6458C45.4167 27.7666 42.15 24.5 38.2709 24.5ZM38.2709 34.3C36.8417 34.3 35.8209 33.075 35.8209 31.85C35.8209 30.4208 37.0459 29.4 38.2709 29.4C39.4959 29.4 40.7209 30.625 40.7209 31.85C40.925 33.075 39.7 34.3 38.2709 34.3ZM30.2063 40.8333H8.66671C7.58374 40.8333 6.54513 40.4031 5.77935 39.6373C5.01358 38.8715 4.58337 37.8329 4.58337 36.75V12.25C4.58337 11.167 5.01358 10.1284 5.77935 9.36261C6.54513 8.59683 7.58374 8.16663 8.66671 8.16663H41.3334C43.5996 8.16663 45.4167 9.98371 45.4167 12.25V23.0708C44.2223 22.062 42.832 21.3112 41.3334 20.8658V16.3333H8.66671V22.4583H31.9213C29.0017 24.5 27.0417 27.8891 27.0417 31.6458C27.0417 34.7083 28.5117 37.9954 30.2063 40.8333Z" fill="#FD591B"/>
</g>
</svg>
