<svg width="18" height="17" viewBox="0 0 18 17" fill="none" xmlns="http://www.w3.org/2000/svg">
<g id="mingcute:menu-fill" clip-path="url(#clip0_28_1197)">
<g id="Group">
<path id="Vector" d="M14.6667 12.3971C14.9396 12.3973 15.2019 12.5024 15.3994 12.6907C15.5969 12.879 15.7143 13.136 15.7275 13.4086C15.7406 13.6811 15.6483 13.9483 15.4698 14.1547C15.2913 14.361 15.0403 14.4908 14.7687 14.5172L14.6667 14.5221H3.33337C3.06051 14.522 2.79816 14.4169 2.60068 14.2286C2.40321 14.0403 2.28574 13.7832 2.27263 13.5107C2.25951 13.2381 2.35176 12.971 2.53025 12.7646C2.70874 12.5582 2.95979 12.4284 3.23137 12.4021L3.33337 12.3971H14.6667ZM14.6667 7.4388C14.9485 7.4388 15.2188 7.55074 15.418 7.75C15.6173 7.94926 15.7292 8.21951 15.7292 8.5013C15.7292 8.78309 15.6173 9.05335 15.418 9.2526C15.2188 9.45186 14.9485 9.5638 14.6667 9.5638H3.33337C3.05158 9.5638 2.78133 9.45186 2.58207 9.2526C2.38282 9.05335 2.27087 8.78309 2.27087 8.5013C2.27087 8.21951 2.38282 7.94926 2.58207 7.75C2.78133 7.55074 3.05158 7.4388 3.33337 7.4388H14.6667ZM14.6667 2.48047C14.9485 2.48047 15.2188 2.59241 15.418 2.79167C15.6173 2.99093 15.7292 3.26118 15.7292 3.54297C15.7292 3.82476 15.6173 4.09501 15.418 4.29427C15.2188 4.49353 14.9485 4.60547 14.6667 4.60547H3.33337C3.05158 4.60547 2.78133 4.49353 2.58207 4.29427C2.38282 4.09501 2.27087 3.82476 2.27087 3.54297C2.27087 3.26118 2.38282 2.99093 2.58207 2.79167C2.78133 2.59241 3.05158 2.48047 3.33337 2.48047H14.6667Z" fill="#093F68"/>
</g>
</g>
<defs>
<clipPath id="clip0_28_1197">
<rect width="17" height="17" fill="white" transform="translate(0.5 0.000976562)"/>
</clipPath>
</defs>
</svg>
