<svg width="50" height="49" viewBox="0 0 50 49" fill="none" xmlns="http://www.w3.org/2000/svg">
<g id="mingcute:print-line" clip-path="url(#clip0_38_2512)">
<g id="Group">
<path id="Vector" d="M35.0042 6.125C35.5576 6.12472 36.0916 6.32877 36.5039 6.69803C36.9161 7.06728 37.1774 7.57573 37.2378 8.12583L37.25 8.37083V14.2917H39.2917C40.854 14.2916 42.3573 14.8885 43.494 15.9603C44.6307 17.0321 45.3148 18.4977 45.4065 20.0573L45.4167 20.4167V34.7083C45.417 35.7385 45.028 36.7307 44.3275 37.4861C43.627 38.2415 42.6669 38.7042 41.6396 38.7815L41.3334 38.7917H37.25V42.6708C37.2503 43.2242 37.0463 43.7583 36.677 44.1705C36.3078 44.5827 35.7993 44.844 35.2492 44.9044L35.0042 44.9167H14.9959C14.4425 44.917 13.9084 44.7129 13.4962 44.3436C13.084 43.9744 12.8227 43.4659 12.7623 42.9158L12.75 42.6708V38.7917H8.66671C7.63653 38.792 6.6443 38.4029 5.88892 37.7024C5.13354 37.002 4.67085 36.0419 4.59358 35.0146L4.58337 34.7083V20.4167C4.58329 18.8544 5.1802 17.3511 6.25199 16.2144C7.32378 15.0777 8.78943 14.3935 10.349 14.3019L10.7084 14.2917H12.75V8.37083C12.7498 7.81742 12.9538 7.28339 13.3231 6.87119C13.6923 6.45898 14.2008 6.19762 14.7509 6.13725L14.9959 6.125H35.0042ZM33.1667 32.6667H16.8334V40.8333H33.1667V32.6667ZM39.2917 18.375H10.7084C10.2083 18.3751 9.72564 18.5587 9.35195 18.891C8.97825 19.2233 8.73951 19.6812 8.681 20.1778L8.66671 20.4167V34.7083H12.75V30.8292C12.7498 30.2758 12.9538 29.7417 13.3231 29.3295C13.6923 28.9173 14.2008 28.656 14.7509 28.5956L14.9959 28.5833H35.0042C35.5576 28.583 36.0916 28.7871 36.5039 29.1564C36.9161 29.5256 37.1774 30.0341 37.2378 30.5842L37.25 30.8292V34.7083H41.3334V20.4167C41.3334 19.8752 41.1183 19.3559 40.7354 18.973C40.3525 18.5901 39.8332 18.375 39.2917 18.375ZM35.2084 20.4167C35.7288 20.4172 36.2293 20.6165 36.6077 20.9737C36.9861 21.331 37.2138 21.8192 37.2443 22.3387C37.2748 22.8582 37.1057 23.3697 36.7717 23.7687C36.4378 24.1678 35.964 24.4242 35.4472 24.4857L35.2084 24.5H31.125C30.6047 24.4994 30.1041 24.3002 29.7257 23.9429C29.3474 23.5857 29.1196 23.0975 29.0891 22.578C29.0586 22.0585 29.2277 21.547 29.5617 21.1479C29.8957 20.7489 30.3694 20.4924 30.8862 20.431L31.125 20.4167H35.2084ZM33.1667 10.2083H16.8334V14.2917H33.1667V10.2083Z" fill="#FD591B"/>
</g>
</g>
<defs>
<clipPath id="clip0_38_2512">
<rect width="49" height="49" fill="white" transform="translate(0.5)"/>
</clipPath>
</defs>
</svg>
