<svg width="19" height="15" viewBox="0 0 19 15" fill="none" xmlns="http://www.w3.org/2000/svg">
<g id="Group">
<path id="Vector" fill-rule="evenodd" clip-rule="evenodd" d="M5.52405 12.5492C5.52405 12.3734 5.59386 12.2049 5.71813 12.0806C5.8424 11.9564 6.01095 11.8865 6.1867 11.8865H18.1144C18.2901 11.8865 18.4586 11.9564 18.5829 12.0806C18.7072 12.2049 18.777 12.3734 18.777 12.5492C18.777 12.7249 18.7072 12.8935 18.5829 13.0178C18.4586 13.142 18.2901 13.2118 18.1144 13.2118H6.1867C6.01095 13.2118 5.8424 13.142 5.71813 13.0178C5.59386 12.8935 5.52405 12.7249 5.52405 12.5492ZM5.52405 7.24801C5.52405 7.07227 5.59386 6.90372 5.71813 6.77945C5.8424 6.65518 6.01095 6.58536 6.1867 6.58536H18.1144C18.2901 6.58536 18.4586 6.65518 18.5829 6.77945C18.7072 6.90372 18.777 7.07227 18.777 7.24801C18.777 7.42376 18.7072 7.5923 18.5829 7.71657C18.4586 7.84084 18.2901 7.91066 18.1144 7.91066H6.1867C6.01095 7.91066 5.8424 7.84084 5.71813 7.71657C5.59386 7.5923 5.52405 7.42376 5.52405 7.24801ZM5.52405 1.94683C5.52405 1.77108 5.59386 1.60254 5.71813 1.47826C5.8424 1.35399 6.01095 1.28418 6.1867 1.28418H18.1144C18.2901 1.28418 18.4586 1.35399 18.5829 1.47826C18.7072 1.60254 18.777 1.77108 18.777 1.94683C18.777 2.12257 18.7072 2.29112 18.5829 2.41539C18.4586 2.53966 18.2901 2.60948 18.1144 2.60948H6.1867C6.01095 2.60948 5.8424 2.53966 5.71813 2.41539C5.59386 2.29112 5.52405 2.12257 5.52405 1.94683Z" fill="#093F68"/>
<path id="Vector_2" d="M1.16784 13.0328V12.4046H1.5482C1.83579 12.4046 2.02928 12.223 2.02928 11.9845C2.02928 11.7393 1.81988 11.5736 1.55085 11.5736C1.25531 11.5736 1.06446 11.7751 1.05651 11.9845H0.274587C0.295792 11.3655 0.768922 10.9414 1.58133 10.9414C2.3606 10.9388 2.84566 11.3271 2.84964 11.8731C2.85215 12.0604 2.78792 12.2425 2.66844 12.3867C2.54897 12.5309 2.38206 12.6279 2.19759 12.6604V12.7041C2.40674 12.7197 2.60182 12.8153 2.74227 12.9711C2.88272 13.1268 2.95772 13.3307 2.95168 13.5403C2.95566 14.2467 2.28639 14.6006 1.5588 14.6006C0.689404 14.6006 0.233503 14.1102 0.2229 13.5483H0.994223C1.00482 13.7842 1.24073 13.9538 1.5535 13.9578C1.89012 13.9578 2.11542 13.7656 2.11277 13.494C2.11012 13.2355 1.90735 13.0328 1.5641 13.0328H1.16651H1.16784ZM1.16254 6.8052H0.362056V6.75881C0.362056 6.21809 0.753019 5.64026 1.63169 5.64026C2.40434 5.64026 2.90397 6.07231 2.90397 6.64218C2.90397 7.15772 2.56337 7.45989 2.27313 7.76604L1.56145 8.52411V8.56386H2.95831V9.23579H0.412418V8.7123L1.68073 7.40025C1.86362 7.21206 2.06904 6.99736 2.06904 6.727C2.06904 6.48845 1.87422 6.30291 1.61579 6.30291C1.55613 6.30072 1.49665 6.31077 1.44102 6.33244C1.38539 6.3541 1.33478 6.38693 1.29232 6.4289C1.24986 6.47086 1.21644 6.52108 1.19412 6.57645C1.1718 6.63182 1.16105 6.69118 1.16254 6.75086V6.8052ZM2.29566 3.93461H1.4541V1.18329H1.41302L0.620489 1.73992V0.988473L1.4541 0.401367H2.29566V3.93461Z" fill="#093F68"/>
</g>
</svg>
