<svg width="18" height="17" viewBox="0 0 18 17" fill="none" xmlns="http://www.w3.org/2000/svg">
<g id="ph:file-thin">
<path id="Vector" d="M14.5009 5.65582L10.7822 1.93707C10.7575 1.91241 10.7282 1.89286 10.6959 1.87953C10.6637 1.8662 10.6291 1.85935 10.5942 1.85938H4.21924C4.00789 1.85938 3.80521 1.94333 3.65576 2.09277C3.50632 2.24222 3.42236 2.44491 3.42236 2.65625V14.3438C3.42236 14.5551 3.50632 14.7578 3.65576 14.9072C3.80521 15.0567 4.00789 15.1406 4.21924 15.1406H13.7817C13.9931 15.1406 14.1958 15.0567 14.3452 14.9072C14.4947 14.7578 14.5786 14.5551 14.5786 14.3438V5.84375C14.5786 5.80886 14.5718 5.7743 14.5585 5.74206C14.5451 5.70981 14.5256 5.68051 14.5009 5.65582ZM10.8599 2.76582L13.6715 5.57812H10.8599V2.76582ZM13.7817 14.6094H4.21924C4.14879 14.6094 4.08123 14.5814 4.03141 14.5316C3.9816 14.4818 3.95361 14.4142 3.95361 14.3438V2.65625C3.95361 2.5858 3.9816 2.51824 4.03141 2.46842C4.08123 2.41861 4.14879 2.39063 4.21924 2.39063H10.3286V5.84375C10.3286 5.9142 10.3566 5.98176 10.4064 6.03158C10.4562 6.08139 10.5238 6.10938 10.5942 6.10938H14.0474V14.3438C14.0474 14.4142 14.0194 14.4818 13.9696 14.5316C13.9197 14.5814 13.8522 14.6094 13.7817 14.6094Z" fill="black"/>
</g>
</svg>
