<svg width="18" height="19" viewBox="0 0 18 19" fill="none" xmlns="http://www.w3.org/2000/svg">
<path id="Vector" d="M1 17.5L4.5 14M12 1.5L8.5 5M17 6.5L13.5 10M6.785 3.5L15 11.715L12.946 13.769C12.4105 14.3259 11.7694 14.7704 11.06 15.0765C10.3507 15.3827 9.58743 15.5442 8.8149 15.5518C8.04237 15.5594 7.27608 15.4128 6.56088 15.1207C5.84567 14.8285 5.19592 14.3967 4.64963 13.8504C4.10334 13.3041 3.67148 12.6543 3.37934 11.9391C3.08719 11.2239 2.94062 10.4576 2.9482 9.6851C2.95577 8.91257 3.11735 8.1493 3.42347 7.43997C3.72959 6.73063 4.1741 6.08947 4.731 5.554L6.785 3.5Z" stroke="#093F68" stroke-width="2" stroke-linecap="round" stroke-linejoin="round"/>
</svg>
