<svg width="17" height="17" viewBox="0 0 17 17" fill="none" xmlns="http://www.w3.org/2000/svg">
<g id="Group">
<path id="Vector" d="M13.4493 13.4505C12.6353 14.2644 11.6333 14.865 10.5318 15.1992C9.43032 15.5333 8.26344 15.5906 7.13452 15.3661C6.0056 15.1415 4.94948 14.642 4.05972 13.9118C3.16996 13.1816 2.47401 12.2432 2.03353 11.1798C1.59304 10.1164 1.42162 8.96072 1.53444 7.81522C1.64725 6.66973 2.04083 5.56973 2.68031 4.61268C3.31979 3.65562 4.18542 2.87105 5.20054 2.32844C6.21566 1.78584 7.34893 1.50196 8.49997 1.50195C11.6559 1.50195 13.569 3.60563 15.4993 5.7793" stroke="#093F68" stroke-width="1.5" stroke-linecap="round" stroke-linejoin="round"/>
<path id="Vector_2" d="M15.4993 2.66895V5.77974H12.3885" stroke="#093F68" stroke-width="1.5" stroke-linecap="round" stroke-linejoin="round"/>
</g>
</svg>
