<svg width="17" height="17" viewBox="0 0 17 17" fill="none" xmlns="http://www.w3.org/2000/svg">
<g id="Group">
<path id="Vector" d="M3.55023 13.4508C4.36423 14.2648 5.36641 14.8655 6.468 15.1996C7.56959 15.5338 8.73659 15.5911 9.86562 15.3665C10.9947 15.1419 12.0509 14.6424 12.9407 13.9121C13.8306 13.1818 14.5266 12.2433 14.9671 11.1798C15.4077 10.1163 15.5791 8.96052 15.4663 7.81491C15.3535 6.66929 14.9598 5.56918 14.3203 4.61203C13.6808 3.65487 12.815 2.87021 11.7998 2.32755C10.7846 1.78489 9.65119 1.50099 8.50003 1.50098C5.34379 1.50098 3.43045 3.60487 1.5 5.77877" stroke="#093F68" stroke-width="1.5" stroke-linecap="round" stroke-linejoin="round"/>
<path id="Vector_2" d="M1.5 2.66797V5.77909H4.61112" stroke="#093F68" stroke-width="1.5" stroke-linecap="round" stroke-linejoin="round"/>
</g>
</svg>
