<svg width="15" height="15" viewBox="0 0 15 15" fill="none" xmlns="http://www.w3.org/2000/svg">
<path id="Vector" d="M7.50288 5.45774C6.97365 5.45774 6.47805 5.65221 6.10281 6.00763C5.72934 6.36304 5.52225 6.83245 5.52225 7.33371C5.52225 7.83498 5.72934 8.30439 6.10281 8.6598C6.47805 9.01353 6.97365 9.20968 7.50288 9.20968C8.03211 9.20968 8.52771 9.01353 8.90295 8.6598C9.27642 8.30439 9.48351 7.83498 9.48351 7.33371C9.48351 6.83245 9.27642 6.36304 8.90295 6.00763C8.71967 5.8327 8.50152 5.69401 8.26118 5.59961C8.02083 5.50521 7.76307 5.45699 7.50288 5.45774ZM14.8006 9.40583L13.643 8.46868C13.6979 8.15015 13.7262 7.82492 13.7262 7.50136C13.7262 7.1778 13.6979 6.85089 13.643 6.53404L14.8006 5.59689C14.888 5.52599 14.9506 5.43155 14.98 5.32614C15.0094 5.22073 15.0043 5.10933 14.9652 5.00677L14.9493 4.96319C14.6307 4.1194 14.1533 3.33727 13.5404 2.65469L13.5085 2.61948C13.4341 2.53658 13.3348 2.47699 13.2239 2.44856C13.113 2.42013 12.9956 2.4242 12.8872 2.46022L11.45 2.94472C10.919 2.53231 10.3278 2.20707 9.68706 1.98075L9.40917 0.557426C9.3882 0.450203 9.33329 0.35156 9.25172 0.274602C9.17015 0.197644 9.0658 0.146015 8.95251 0.126573L8.90472 0.118191C7.98432 -0.039397 7.01436 -0.039397 6.09396 0.118191L6.04617 0.126573C5.93288 0.146015 5.82852 0.197644 5.74695 0.274602C5.66539 0.35156 5.61047 0.450203 5.58951 0.557426L5.30985 1.98745C4.67517 2.21558 4.08393 2.54003 3.55932 2.94807L2.11145 2.46022C2.00307 2.42391 1.88559 2.4197 1.77461 2.44815C1.66364 2.47659 1.56444 2.53635 1.49018 2.61948L1.45832 2.65469C0.846421 3.338 0.369191 4.11993 0.0494027 4.96319L0.0334726 5.00677C-0.0461774 5.21633 0.0193127 5.45104 0.198083 5.59689L1.36982 6.5441C1.31495 6.85927 1.2884 7.18115 1.2884 7.49968C1.2884 7.82156 1.31495 8.14345 1.36982 8.45527L0.201623 9.40247C0.114177 9.47338 0.0515911 9.56781 0.022187 9.67323C-0.00721705 9.77864 -0.00204605 9.89003 0.0370126 9.99259L0.0529426 10.0362C0.373313 10.8794 0.845903 11.659 1.46186 12.3447L1.49372 12.3799C1.56816 12.4628 1.66737 12.5224 1.77827 12.5508C1.88918 12.5792 2.00658 12.5752 2.11499 12.5391L3.56286 12.0513C4.09032 12.462 4.67796 12.7873 5.31339 13.0119L5.59305 14.4419C5.61401 14.5492 5.66893 14.6478 5.7505 14.7248C5.83206 14.8017 5.93642 14.8533 6.04971 14.8728L6.0975 14.8812C7.02695 15.0396 7.97881 15.0396 8.90826 14.8812L8.95605 14.8728C9.06934 14.8533 9.17369 14.8017 9.25526 14.7248C9.33683 14.6478 9.39174 14.5492 9.41271 14.4419L9.6906 13.0186C10.3313 12.7906 10.9225 12.4671 11.4535 12.0546L12.8908 12.5391C12.9991 12.5755 13.1166 12.5797 13.2276 12.5512C13.3386 12.5228 13.4378 12.463 13.512 12.3799L13.5439 12.3447C14.1599 11.6556 14.6324 10.8794 14.9528 10.0362L14.9687 9.99259C15.0449 9.78471 14.9794 9.55168 14.8006 9.40583ZM7.50288 10.2809C5.78421 10.2809 4.39122 8.96156 4.39122 7.33371C4.39122 5.70586 5.78421 4.38648 7.50288 4.38648C9.22155 4.38648 10.6145 5.70586 10.6145 7.33371C10.6145 8.96156 9.22155 10.2809 7.50288 10.2809Z" fill="white"/>
</svg>
