<svg width="30" height="25" viewBox="0 0 30 25" fill="none" xmlns="http://www.w3.org/2000/svg">
<g id="solar:case-bold">
<path id="Vector" fill-rule="evenodd" clip-rule="evenodd" d="M12.8438 2.755C12.9487 2.75 13.0588 2.75 13.2013 2.75H16.8C16.9412 2.75 17.0513 2.75 17.1562 2.755C17.8057 2.78658 18.4306 2.96498 18.9584 3.26946C19.4861 3.57393 19.895 3.99197 20.1375 4.475C20.1763 4.552 20.2125 4.635 20.2563 4.743L20.26 4.753C20.365 4.977 20.6038 5.232 20.9387 5.436C20.9762 5.459 21.0138 5.48 21.0513 5.5C23.7425 5.503 25.1475 5.542 26.1162 6.173C26.3162 6.303 26.4975 6.448 26.6587 6.607C27.5 7.434 27.5 8.659 27.5 11.109C27.5 11.731 27.5 12.041 27.3125 12.284C27.2756 12.3314 27.2338 12.3762 27.1875 12.418C26.95 12.632 26.5787 12.721 25.835 12.9L20 14.3V13.5C20 12.9696 19.7366 12.4609 19.2678 12.0858C18.7989 11.7107 18.163 11.5 17.5 11.5H12.5C11.837 11.5 11.2011 11.7107 10.7322 12.0858C10.2634 12.4609 10 12.9696 10 13.5V14.3L4.165 12.9C3.42125 12.721 3.04875 12.632 2.8125 12.418C2.76624 12.3762 2.72443 12.3314 2.6875 12.284C2.5 12.041 2.5 11.731 2.5 11.109C2.5 8.659 2.5 7.434 3.34125 6.607C3.50375 6.447 3.685 6.302 3.88375 6.173C4.8525 5.543 6.2575 5.503 8.95 5.5C8.9875 5.48 9.025 5.459 9.0625 5.436C9.39625 5.232 9.63625 4.976 9.74 4.753C9.7875 4.639 9.8225 4.553 9.8625 4.474C10.1052 3.99116 10.5142 3.57333 11.0419 3.26904C11.5696 2.96475 12.1944 2.7865 12.8438 2.755ZM18.5238 5.318C18.5538 5.38 18.5863 5.44 18.6238 5.5H11.3762C11.4125 5.44 11.445 5.38 11.4762 5.318V5.315L11.4825 5.305L11.4888 5.293L11.495 5.281L11.4988 5.271L11.5013 5.266L11.5063 5.254L11.5112 5.242L11.5138 5.236L11.5175 5.228L11.52 5.221L11.5225 5.215C11.5713 5.099 11.5863 5.062 11.6012 5.034C11.7114 4.81442 11.8973 4.62437 12.1371 4.48594C12.377 4.34751 12.661 4.26639 12.9562 4.252C12.9963 4.25 13.0463 4.25 13.225 4.25H16.7725C16.9513 4.25 17.0013 4.25 17.0413 4.252C17.6438 4.282 18.1713 4.586 18.3975 5.034C18.41 5.062 18.4262 5.097 18.475 5.215L18.4775 5.221L18.48 5.228L18.4837 5.236L18.4862 5.242L18.4913 5.254L18.4963 5.266L18.4987 5.271L18.5037 5.281L18.5088 5.293L18.515 5.305L18.52 5.315L18.5225 5.318H18.5238ZM17.5 13H12.5C12.3342 13 12.1753 13.0527 12.0581 13.1464C11.9408 13.2402 11.875 13.3674 11.875 13.5V15.662C11.875 15.7619 11.9124 15.8594 11.9824 15.9421C12.0523 16.0248 12.1516 16.0889 12.2675 16.126L13.1425 16.406C14.3349 16.7877 15.6651 16.7877 16.8575 16.406L17.7325 16.126C17.8484 16.0889 17.9477 16.0248 18.0176 15.9421C18.0876 15.8594 18.125 15.7619 18.125 15.662V13.5C18.125 13.3674 18.0592 13.2402 17.9419 13.1464C17.8247 13.0527 17.6658 13 17.5 13ZM10.0125 15.87L3.7575 14.368C3.795 17.482 4.0225 20.35 5.3975 21.328C7.045 22.5 9.6975 22.5 15 22.5C20.3025 22.5 22.955 22.5 24.6025 21.328C25.9775 20.351 26.205 17.482 26.2425 14.368L19.9862 15.869C19.9392 16.2314 19.7692 16.5767 19.4947 16.8675C19.2202 17.1583 18.8516 17.3836 18.4288 17.519L17.5538 17.799C15.9144 18.3237 14.0856 18.3237 12.4462 17.799L11.5712 17.519C11.1484 17.3836 10.7798 17.1583 10.5053 16.8675C10.2308 16.5767 10.0608 16.2314 10.0137 15.869L10.0125 15.87Z" fill="#F06A37"/>
</g>
</svg>
