<svg width="37" height="37" viewBox="0 0 37 37" fill="none" xmlns="http://www.w3.org/2000/svg">
<g id="ion:pricetag-sharp" clip-path="url(#clip0_24_999)">
<path id="Vector" d="M5.22325 19.1805L25.8908 31.1129L33.1829 18.4827L12.5153 6.55029L2.55418 9.21936L5.22325 19.1805ZM11.2545 12.7116C11.3505 13.0698 11.3381 13.4484 11.2189 13.7995C11.0997 14.1507 10.879 14.4586 10.5848 14.6844C10.2906 14.9101 9.93604 15.0436 9.566 15.0678C9.19595 15.0921 8.82702 15.0061 8.50587 14.8206C8.18471 14.6352 7.92575 14.3587 7.76173 14.0261C7.59771 13.6935 7.536 13.3198 7.58441 12.9521C7.63281 12.5844 7.78916 12.2394 8.03367 11.9606C8.27818 11.6818 8.59988 11.4817 8.95808 11.3857C9.43842 11.257 9.95021 11.3244 10.3809 11.573C10.8115 11.8217 11.1258 12.2312 11.2545 12.7116Z" fill="#F06A37"/>
</g>
<defs>
<clipPath id="clip0_24_999">
<rect width="30" height="30" fill="white" transform="translate(8.02246 36.8711) rotate(-105)"/>
</clipPath>
</defs>
</svg>
