<svg width="50" height="49" viewBox="0 0 50 49" fill="none" xmlns="http://www.w3.org/2000/svg">
<g id="teenyicons:send-outline" clip-path="url(#clip0_38_2473)">
<path id="Vector" d="M47.8667 1.63332L49.3694 2.27685C49.4987 1.97658 49.5349 1.64442 49.4734 1.32333C49.4119 1.00224 49.2554 0.707006 49.0242 0.47583C48.793 0.244653 48.4978 0.0881724 48.1767 0.0266336C47.8556 -0.0349053 47.5234 0.00133027 47.2232 0.130652L47.8667 1.63332ZM2.13337 21.2333L1.48984 19.7307C1.21284 19.849 0.973961 20.0417 0.799624 20.2873C0.625288 20.533 0.522283 20.8221 0.501999 21.1226C0.481714 21.4232 0.54494 21.7235 0.684686 21.9903C0.824432 22.2572 1.03525 22.4802 1.29384 22.6347L2.13337 21.2333ZM28.2667 47.3666L26.8653 48.2062C27.0198 48.4648 27.2428 48.6756 27.5097 48.8153C27.7765 48.9551 28.0769 49.0183 28.3774 48.998C28.6779 48.9777 28.967 48.8747 29.2127 48.7004C29.4584 48.5261 29.651 48.2872 29.7694 48.0102L28.2667 47.3666ZM47.2232 0.130652L1.48984 19.7307L2.77691 22.736L48.5102 3.13598L47.2232 0.130652ZM1.29384 22.6347L17.6272 32.438L19.3062 29.6352L2.97291 19.8352L1.29384 22.6347ZM17.062 31.8729L26.862 48.2062L29.6648 46.5271L19.8648 30.1938L17.062 31.8729ZM29.7661 48.0102L49.3661 2.27685L46.3608 0.989785L26.7608 46.7231L29.7661 48.0102ZM46.7103 0.480185L17.3103 29.8802L19.6231 32.1897L49.0231 2.78972L46.7103 0.476918V0.480185Z" fill="#FD591B"/>
</g>
<defs>
<clipPath id="clip0_38_2473">
<rect width="49" height="49" fill="white" transform="translate(0.5)"/>
</clipPath>
</defs>
</svg>
