<svg width="16" height="16" viewBox="0 0 16 16" fill="none" xmlns="http://www.w3.org/2000/svg">
<g id="teenyicons:instagram-solid" clip-path="url(#clip0_266_608)">
<path id="Vector" d="M8.00004 5.3335C7.2928 5.3335 6.61452 5.61445 6.11442 6.11454C5.61433 6.61464 5.33337 7.29292 5.33337 8.00016C5.33337 8.70741 5.61433 9.38568 6.11442 9.88578C6.61452 10.3859 7.2928 10.6668 8.00004 10.6668C8.70728 10.6668 9.38556 10.3859 9.88566 9.88578C10.3858 9.38568 10.6667 8.70741 10.6667 8.00016C10.6667 7.29292 10.3858 6.61464 9.88566 6.11454C9.38556 5.61445 8.70728 5.3335 8.00004 5.3335Z" fill="#093F68"/>
<path id="Vector_2" fill-rule="evenodd" clip-rule="evenodd" d="M4.8 0C3.52696 0 2.30606 0.505713 1.40589 1.40589C0.505713 2.30606 0 3.52696 0 4.8L0 11.2C0 12.473 0.505713 13.6939 1.40589 14.5941C2.30606 15.4943 3.52696 16 4.8 16H11.2C12.473 16 13.6939 15.4943 14.5941 14.5941C15.4943 13.6939 16 12.473 16 11.2V4.8C16 3.52696 15.4943 2.30606 14.5941 1.40589C13.6939 0.505713 12.473 0 11.2 0L4.8 0ZM4.26667 8C4.26667 7.00986 4.66 6.06027 5.36014 5.36014C6.06027 4.66 7.00986 4.26667 8 4.26667C8.99014 4.26667 9.93973 4.66 10.6399 5.36014C11.34 6.06027 11.7333 7.00986 11.7333 8C11.7333 8.99014 11.34 9.93973 10.6399 10.6399C9.93973 11.34 8.99014 11.7333 8 11.7333C7.00986 11.7333 6.06027 11.34 5.36014 10.6399C4.66 9.93973 4.26667 8.99014 4.26667 8ZM11.7333 4.26667H12.8V3.2H11.7333V4.26667Z" fill="#093F68"/>
</g>
<defs>
<clipPath id="clip0_266_608">
<rect width="16" height="16" fill="white"/>
</clipPath>
</defs>
</svg>
