<svg width="16" height="15" viewBox="0 0 16 15" fill="none" xmlns="http://www.w3.org/2000/svg">
<g id="Group">
<g id="Vector">
<path fill-rule="evenodd" clip-rule="evenodd" d="M14.7494 7.50178H5.52295H14.7494ZM14.7494 12.7741H5.52295H14.7494ZM14.7494 2.22949H5.52295H14.7494Z" fill="#093F68"/>
<path d="M14.7494 7.50178H5.52295M14.7494 12.7741H5.52295M14.7494 2.22949H5.52295" stroke="#093F68" stroke-linecap="round" stroke-linejoin="round"/>
</g>
<path id="Vector_2" fill-rule="evenodd" clip-rule="evenodd" d="M1.56736 3.54727C2.2264 3.54727 2.88543 2.88824 2.88543 2.2292C2.88543 1.57017 2.2264 0.911133 1.56736 0.911133C0.908328 0.911133 0.25061 1.57017 0.25061 2.2292C0.25061 2.88824 0.908328 3.54727 1.56736 3.54727ZM1.56736 8.81956C2.2264 8.81956 2.88543 8.16052 2.88543 7.50149C2.88543 6.84245 2.2264 6.18342 1.56736 6.18342C0.908328 6.18342 0.25061 6.84245 0.25061 7.50149C0.25061 8.16052 0.908328 8.81956 1.56736 8.81956ZM1.56736 14.0918C2.2264 14.0918 2.88543 13.4328 2.88543 12.7738C2.88543 12.1147 2.2264 11.4557 1.56736 11.4557C0.908328 11.4557 0.25061 12.1147 0.25061 12.7738C0.25061 13.4328 0.908328 14.0918 1.56736 14.0918Z" fill="#093F68"/>
</g>
</svg>
