<svg width="24" height="24" viewBox="0 0 24 24" fill="none" xmlns="http://www.w3.org/2000/svg">
<g id="Group">
<path id="Vector" d="M16.7997 9.60024C16.7997 10.8733 16.294 12.0942 15.3938 12.9943C14.4936 13.8945 13.2727 14.4002 11.9997 14.4002C10.7267 14.4002 9.50577 13.8945 8.60559 12.9943C7.70542 12.0942 7.19971 10.8733 7.19971 9.60024C7.19971 8.32721 7.70542 7.10633 8.60559 6.20616C9.50577 5.306 10.7267 4.80029 11.9997 4.80029C13.2727 4.80029 14.4936 5.306 15.3938 6.20616C16.294 7.10633 16.7997 8.32721 16.7997 9.60024Z" fill="#0F143F"/>
<path id="Vector_2" fill-rule="evenodd" clip-rule="evenodd" d="M11.5104 23.9901C5.1102 23.7333 0 18.463 0 11.9999C0 5.37234 5.3724 0 12 0C18.6276 0 24 5.37234 24 11.9999C24 18.6274 18.6276 23.9997 12 23.9997C11.9452 24.0001 11.8904 24.0001 11.8356 23.9997C11.727 23.9997 11.6184 23.9961 11.5104 23.9901ZM4.2996 19.5718C4.20988 19.3141 4.17934 19.0396 4.21025 18.7685C4.24116 18.4974 4.33272 18.2368 4.47815 18.006C4.62357 17.7751 4.81912 17.58 5.05027 17.4351C5.28143 17.2901 5.54226 17.1991 5.8134 17.1688C10.491 16.651 13.5378 16.6978 18.1926 17.1796C18.4641 17.2079 18.7256 17.2977 18.9571 17.4423C19.1886 17.5869 19.3841 17.7825 19.5286 18.014C19.6732 18.2456 19.763 18.5071 19.7912 18.7786C19.8194 19.0501 19.7853 19.3245 19.6914 19.5808C21.6864 17.5623 22.8036 14.8378 22.8 11.9999C22.8 6.03533 17.9646 1.19999 12 1.19999C6.0354 1.19999 1.2 6.03533 1.2 11.9999C1.2 14.9494 2.3826 17.623 4.2996 19.5718Z" fill="#0F143F"/>
</g>
</svg>
