<svg width="50" height="49" viewBox="0 0 50 49" fill="none" xmlns="http://www.w3.org/2000/svg">
<path id="Vector" d="M46.8183 35.8633L49.5 33.53L47.1476 29.4933L43.7367 30.6367C42.9839 30.0067 42.1371 29.5167 41.1961 29.1667L40.4904 25.6667H35.7856L35.0799 29.1433C34.139 29.4933 33.2921 29.9833 32.5394 30.6133L29.1284 29.47L26.776 33.5067L29.4578 35.84C29.2696 37.0067 29.2696 37.6133 29.4578 38.78L26.776 41.1133L29.1284 45.15L32.5394 44.0067C33.2921 44.6367 34.139 45.1267 35.0799 45.4767L35.7856 49H40.4904L41.1961 45.5233C42.1371 45.1733 42.9839 44.6833 43.7367 44.0533L47.1476 45.1967L49.5 41.16L46.8183 38.8267C47.0065 37.6367 47.0065 37.03 46.8183 35.8633ZM38.138 42C35.5504 42 33.4333 39.9 33.4333 37.3333C33.4333 34.7667 35.5504 32.6667 38.138 32.6667C40.7256 32.6667 42.8428 34.7667 42.8428 37.3333C42.8428 39.9 40.7256 42 38.138 42ZM19.319 9.33333V21.9567L24.8706 27.4633L27.3171 23.2867L24.0238 20.0433V9.33333H19.319ZM42.8428 21C42.8428 15.4305 40.6122 10.089 36.6418 6.15076C32.6714 2.21249 27.2864 0 21.6714 0C15.0142 0 9.08617 3.08 5.20475 7.84V2.33333H0.5V16.3333H14.6143V11.6667H8.16875C9.68597 9.50878 11.7056 7.74575 14.0562 6.52715C16.4068 5.30855 19.0191 4.67034 21.6714 4.66667C30.7516 4.66667 38.138 11.9933 38.138 21H42.8428ZM18.9897 37.1233C11.9561 35.98 6.40446 30.3567 5.39294 23.3333H0.641142C1.81733 33.8333 10.7799 42 21.6714 42H21.8361L18.9897 37.1233Z" fill="#FD591B"/>
</svg>
