<svg width="32" height="43" viewBox="0 0 32 43" fill="none" xmlns="http://www.w3.org/2000/svg">
<path id="Vector" d="M26.85 0H5.15C2.5925 0 0.5 1.81406 0.5 4.03125V38.9688C0.5 41.1859 2.5925 43 5.15 43H26.85C29.4075 43 31.5 41.1859 31.5 38.9688V4.03125C31.5 1.81406 29.4075 0 26.85 0ZM9.8 2.01562H22.2V3.35938H9.8V2.01562ZM16 40.3125C15.1778 40.3125 14.3893 40.0294 13.808 39.5253C13.2266 39.0213 12.9 38.3378 12.9 37.625C12.9 36.9122 13.2266 36.2287 13.808 35.7247C14.3893 35.2206 15.1778 34.9375 16 34.9375C16.8222 34.9375 17.6107 35.2206 18.192 35.7247C18.7734 36.2287 19.1 36.9122 19.1 37.625C19.1 38.3378 18.7734 39.0213 18.192 39.5253C17.6107 40.0294 16.8222 40.3125 16 40.3125ZM28.4 32.25H3.6V5.375H28.4V32.25Z" fill="white"/>
</svg>
