<svg width="50" height="49" viewBox="0 0 50 49" fill="none" xmlns="http://www.w3.org/2000/svg">
<path id="Vector" d="M46.932 1.20976L48.2759 2.53915C50.1277 4.37325 49.8476 7.62461 47.645 9.80119L19.9315 37.2158L10.9526 40.4649C9.82513 40.875 8.72725 40.3432 8.50403 39.282C8.42859 38.897 8.46411 38.4988 8.60653 38.1328L11.9548 29.1741L39.5908 1.8339C41.7934 -0.342688 45.0802 -0.624337 46.932 1.20976ZM18.722 3.93613C19.0212 3.93613 19.3173 3.99441 19.5937 4.10764C19.87 4.22087 20.1211 4.38684 20.3327 4.59607C20.5442 4.8053 20.7119 5.05369 20.8264 5.32706C20.9409 5.60043 20.9998 5.89343 20.9998 6.18932C20.9998 6.48521 20.9409 6.77821 20.8264 7.05158C20.7119 7.32495 20.5442 7.57334 20.3327 7.78257C20.1211 7.9918 19.87 8.15777 19.5937 8.271C19.3173 8.38423 19.0212 8.44251 18.722 8.44251H9.61102C8.40282 8.44251 7.24411 8.91729 6.38979 9.7624C5.53546 10.6075 5.05551 11.7537 5.05551 12.9489V39.9872C5.05551 41.1824 5.53546 42.3286 6.38979 43.1737C7.24411 44.0188 8.40282 44.4936 9.61102 44.4936H36.9441C38.1523 44.4936 39.311 44.0188 40.1653 43.1737C41.0196 42.3286 41.4996 41.1824 41.4996 39.9872V30.9744C41.4996 30.3769 41.7396 29.8038 42.1667 29.3812C42.5939 28.9586 43.1732 28.7213 43.7773 28.7213C44.3814 28.7213 44.9608 28.9586 45.388 29.3812C45.8151 29.8038 46.0551 30.3769 46.0551 30.9744V39.9872C46.0551 42.3776 45.0952 44.67 43.3865 46.3602C41.6779 48.0504 39.3605 49 36.9441 49H9.61102C7.19463 49 4.8772 48.0504 3.16856 46.3602C1.45991 44.67 0.5 42.3776 0.5 39.9872V12.9489C0.5 10.5586 1.45991 8.26613 3.16856 6.57591C4.8772 4.88568 7.19463 3.93613 9.61102 3.93613H18.722Z" fill="#FD591B"/>
</svg>
