<svg width="50" height="49" viewBox="0 0 50 49" fill="none" xmlns="http://www.w3.org/2000/svg">
<path id="Vector" d="M39.2917 34.2728L36.4129 38.1111L29.0833 28.3383L21.7537 38.1111L18.875 34.2728L26.2046 24.5L18.875 14.7272L21.7537 10.8889L29.0833 20.6617L36.4129 10.8889L39.2917 14.7272L31.9621 24.5L39.2917 34.2728ZM45.4167 0C46.4996 0 47.5382 0.573609 48.304 1.59464C49.0698 2.61567 49.5 4.00049 49.5 5.44444V43.5556C49.5 44.9995 49.0698 46.3843 48.304 47.4054C47.5382 48.4264 46.4996 49 45.4167 49H14.7917C13.3829 49 12.2804 48.02 11.5454 46.5772L0.5 24.5L11.5454 2.39556C12.2804 0.952778 13.3829 0 14.7917 0H45.4167ZM45.4167 5.44444H14.7917L5.155 24.5L14.7917 43.5556H45.4167V5.44444Z" fill="#FD591B"/>
</svg>
