<svg width="50" height="49" viewBox="0 0 50 49" fill="none" xmlns="http://www.w3.org/2000/svg">
<path id="Vector" d="M13.6923 22.8503H11.8077V26.117H13.6923V22.8503ZM36.3077 26.117H38.1923V22.8503H36.3077V26.117ZM13.6923 31.0333H11.8077V32.6667H13.6923V31.0333ZM36.3077 31.0333V32.6667H38.1923V31.0333H36.3077ZM13.6923 17.9667V16.3333H11.8077V17.9667H13.6923ZM36.3077 17.9667H38.1923V16.3333H36.3077V17.9667ZM47.6154 11.4333H49.5V10.7571L48.9497 10.2769L47.6154 11.4333ZM36.3077 1.63333L37.642 0.476933L37.0879 0H36.3077V1.63333ZM13.6923 26.117H36.3077V22.8503H13.6923V26.117ZM13.6923 32.6667H36.3077V29.4H13.6923V32.6667ZM13.6923 19.6H36.3077V16.3333H13.6923V19.6ZM43.8462 45.7333H6.15385V49H43.8462V45.7333ZM4.26923 44.1V4.9H0.5V44.1H4.26923ZM45.7308 11.4333V44.1H49.5V11.4333H45.7308ZM6.15385 3.26667H36.3077V0H6.15385V3.26667ZM34.9734 2.78973L46.2811 12.5897L48.9497 10.2769L37.642 0.476933L34.9734 2.78973ZM6.15385 45.7333C5.65402 45.7333 5.17466 45.5613 4.82122 45.2549C4.46779 44.9486 4.26923 44.5332 4.26923 44.1H0.5C0.5 45.3996 1.09567 46.6459 2.15597 47.5648C3.21628 48.4838 4.65435 49 6.15385 49V45.7333ZM43.8462 49C45.3456 49 46.7837 48.4838 47.844 47.5648C48.9043 46.6459 49.5 45.3996 49.5 44.1H45.7308C45.7308 44.5332 45.5322 44.9486 45.1788 45.2549C44.8253 45.5613 44.346 45.7333 43.8462 45.7333V49ZM4.26923 4.9C4.26923 4.46681 4.46779 4.05137 4.82122 3.74506C5.17466 3.43875 5.65402 3.26667 6.15385 3.26667V0C4.65435 0 3.21628 0.516248 2.15597 1.43518C1.09567 2.3541 0.5 3.60044 0.5 4.9H4.26923ZM11.8077 17.9667V31.0333H15.5769V17.9667H11.8077ZM23.1154 17.9667V31.0333H26.8846V17.9667H23.1154ZM34.4231 17.9667V31.0333H38.1923V17.9667H34.4231ZM11.8077 13.0667H23.1154V9.8H11.8077V13.0667ZM26.8846 39.2H38.1923V35.9333H26.8846V39.2Z" fill="#FD591B"/>
</svg>
