<svg width="24" height="47" viewBox="0 0 24 47" fill="none" xmlns="http://www.w3.org/2000/svg">
<path id="Vector" d="M23.9885 31.0768L23.9904 31.2569C23.9935 33.7523 23.0773 36.1578 21.4234 37.9964L21.4291 37.9886C19.7063 39.9243 17.3764 41.1875 14.8397 41.561L14.7802 41.5689V46.1911C14.7802 46.4056 14.6966 46.6114 14.5479 46.7631C14.3992 46.9148 14.1975 47 13.9872 47H13.9546H10.4871C10.2694 46.9975 10.0613 46.9081 9.9074 46.7511C9.75347 46.5941 9.66589 46.3818 9.66339 46.1598V41.5689C8.50639 41.4112 7.36952 41.1262 6.27268 40.7188L6.38596 40.7561C4.74759 40.197 3.21033 39.3673 1.83557 38.3L1.87397 38.3294C1.45407 38.0196 1.05092 37.6868 0.666296 37.3325L0.679736 37.3442C0.465977 37.1353 0.316217 36.9786 0.230457 36.8742C0.091649 36.7334 0.00969506 36.5446 0.000806664 36.3451C-0.00808174 36.1456 0.0567428 35.95 0.182457 35.7969L0.180537 35.7989L2.82821 32.2578C2.89856 32.1653 2.98764 32.0895 3.08937 32.0354C3.1911 31.9813 3.30308 31.9503 3.41765 31.9444H3.41957C3.53343 31.9231 3.65083 31.9339 3.75911 31.9757C3.86739 32.0174 3.96243 32.0886 4.03397 32.1814L4.03589 32.1834L4.08581 32.2343C5.82179 33.8557 7.9464 34.9813 10.2452 35.4973L10.3335 35.5149C10.9056 35.6481 11.5623 35.7245 12.2362 35.7245L12.3552 35.7264C13.6819 35.7264 14.9107 35.3034 15.9226 34.5826L15.9015 34.5963C16.4118 34.2444 16.8252 33.7649 17.1022 33.2036C17.3791 32.6423 17.5104 32.0179 17.4835 31.3901V31.398C17.4835 30.8829 17.3395 30.403 17.0919 29.9976L17.0976 30.0093C16.8636 29.6049 16.5746 29.2363 16.2394 28.9145L16.2375 28.9125C15.7911 28.5307 15.3004 28.2064 14.7763 27.947L14.7341 27.9274C14.048 27.5696 13.4848 27.2895 13.0445 27.0871C12.6042 26.8848 11.9187 26.6008 10.9882 26.2352C10.32 25.9557 9.79268 25.737 9.40612 25.579C9.01956 25.421 8.4922 25.1893 7.82404 24.8837C7.15588 24.5782 6.6202 24.3073 6.217 24.0709C5.8138 23.8346 5.32932 23.5245 4.76357 23.1406C4.26794 22.8148 3.80435 22.441 3.37925 22.0242L3.38117 22.0262C2.99536 21.6279 2.63007 21.2095 2.28677 20.7727L2.26181 20.7413C1.89822 20.2917 1.59655 19.7936 1.36517 19.2607L1.34981 19.2195C1.12681 18.6786 0.950146 18.1189 0.821816 17.5469L0.808376 17.4764C0.661483 16.8198 0.588054 16.1482 0.589496 15.4747V15.369C0.589496 12.9207 1.55141 10.6997 3.11237 9.08193L3.11045 9.08389C4.85036 7.23868 7.12405 6.01069 9.59811 5.57999L9.66724 5.5702V0.832396C9.66724 0.603242 9.76131 0.395633 9.91107 0.248739C9.98509 0.170084 10.0739 0.107504 10.1722 0.0647587C10.2706 0.0220137 10.3764 -1.3725e-05 10.4832 6.41593e-09H13.9911C14.4288 6.41593e-09 14.784 0.362337 14.784 0.808893V0.842189V5.4566C15.84 5.5702 16.8039 5.78368 17.7274 6.08922L17.6256 6.05984C18.5069 6.33404 19.248 6.6337 19.9603 6.98233L19.8605 6.93924C20.4902 7.25849 21.0259 7.58557 21.5328 7.94987L21.4944 7.92245C22.0064 8.29066 22.3405 8.54397 22.4966 8.68238C22.6528 8.82078 22.7814 8.94287 22.8826 9.04863C23.0207 9.16991 23.11 9.33896 23.1334 9.52332C23.1568 9.70768 23.1126 9.89436 23.0093 10.0475L23.0112 10.0455L20.9338 13.8765C20.8819 13.9943 20.7997 14.0955 20.6959 14.1693C20.5921 14.2431 20.4706 14.2868 20.3443 14.2957C20.2224 14.3215 20.0943 14.3184 19.9738 14.2864C19.8533 14.2545 19.7416 14.1947 19.6474 14.1116H19.6493C19.5981 14.0593 19.4739 13.9549 19.2768 13.7982C19.0797 13.6415 18.7456 13.4097 18.2746 13.1029C17.8176 12.8041 17.3424 12.5352 16.8519 12.2979L16.7712 12.2627C16.1802 11.9855 15.5659 11.7632 14.9357 11.5987L14.8551 11.5811C14.1393 11.3812 13.4006 11.2798 12.6586 11.2795C11.2367 11.213 9.82951 11.614 8.64772 12.4233L8.67268 12.4076C8.01903 12.8506 7.53256 13.5073 7.29321 14.2697C7.05385 15.0321 7.07584 15.8549 7.35556 16.6029L7.34788 16.5794C7.52452 17.0103 7.7818 17.3745 8.10436 17.6664L8.1082 17.6683C8.41732 17.9641 8.74756 18.2481 9.09316 18.5125L9.12388 18.534C9.53668 18.8239 10.0109 19.0961 10.5082 19.3233L10.5658 19.3468C11.2084 19.6524 11.7268 19.8887 12.121 20.0558C12.5152 20.223 13.1155 20.4632 13.9219 20.7766C14.8307 21.1265 15.5251 21.402 16.0051 21.6031C16.4851 21.8042 17.1367 22.1104 17.9597 22.5217C18.653 22.8538 19.3211 23.2381 19.9584 23.6714L19.9027 23.6361C20.4979 24.067 21.0163 24.4979 21.5098 24.9582L21.4982 24.9464C22.0301 25.4204 22.4832 25.9688 22.8442 26.5818L22.8614 26.6132C23.1802 27.187 23.4547 27.8549 23.6544 28.5541L23.6717 28.6207C23.881 29.3356 24 30.1582 24 31.0082V31.0905V31.0866L23.9885 31.0768Z" fill="white"/>
</svg>
