<svg width="36" height="49" viewBox="0 0 36 49" fill="none" xmlns="http://www.w3.org/2000/svg">
<path id="Vector" d="M30.25 0H5.75C2.8625 0 0.5 2.06719 0.5 4.59375V44.4062C0.5 46.9328 2.8625 49 5.75 49H30.25C33.1375 49 35.5 46.9328 35.5 44.4062V4.59375C35.5 2.06719 33.1375 0 30.25 0ZM11 2.29688H25V3.82812H11V2.29688ZM18 45.9375C17.0717 45.9375 16.1815 45.6148 15.5251 45.0405C14.8687 44.4662 14.5 43.6872 14.5 42.875C14.5 42.0628 14.8687 41.2838 15.5251 40.7095C16.1815 40.1352 17.0717 39.8125 18 39.8125C18.9283 39.8125 19.8185 40.1352 20.4749 40.7095C21.1313 41.2838 21.5 42.0628 21.5 42.875C21.5 43.6872 21.1313 44.4662 20.4749 45.0405C19.8185 45.6148 18.9283 45.9375 18 45.9375ZM32 36.75H4V6.125H32V36.75Z" fill="#FD591B"/>
</svg>
